<svg width="25" height="11" viewBox="0 0 25 11" fill="none" xmlns="http://www.w3.org/2000/svg">
<path d="M5.064 10.144C4.424 10.144 3.832 10.028 3.288 9.796C2.752 9.564 2.28 9.24 1.872 8.824C1.472 8.408 1.16 7.92 0.936 7.36C0.712 6.8 0.6 6.188 0.6 5.524C0.6 4.86 0.708 4.248 0.924 3.688C1.148 3.12 1.46 2.632 1.86 2.224C2.268 1.808 2.744 1.488 3.288 1.264C3.832 1.032 4.424 0.916 5.064 0.916C5.704 0.916 6.276 1.024 6.78 1.24C7.292 1.456 7.724 1.744 8.076 2.104C8.428 2.456 8.68 2.844 8.832 3.268L7.368 3.952C7.2 3.504 6.916 3.136 6.516 2.848C6.116 2.552 5.632 2.404 5.064 2.404C4.504 2.404 4.008 2.536 3.576 2.8C3.152 3.064 2.82 3.428 2.58 3.892C2.348 4.356 2.232 4.9 2.232 5.524C2.232 6.148 2.348 6.696 2.58 7.168C2.82 7.632 3.152 7.996 3.576 8.26C4.008 8.524 4.504 8.656 5.064 8.656C5.632 8.656 6.116 8.512 6.516 8.224C6.916 7.928 7.2 7.556 7.368 7.108L8.832 7.792C8.68 8.216 8.428 8.608 8.076 8.968C7.724 9.32 7.292 9.604 6.78 9.82C6.276 10.036 5.704 10.144 5.064 10.144ZM10.157 10V1.06H16.097V2.5H11.789V4.792H15.857V6.232H11.789V8.56H16.097V10H10.157ZM17.2937 10V1.06H18.9257V5.716L18.4817 5.56L22.2857 1.06H24.3377L20.7737 5.284L20.8697 4.132L24.4457 10H22.5257L20.1257 6.064L18.9257 7.492V10H17.2937Z" fill="#EF4444"/>
</svg>
