<svg width="412" height="917" viewBox="0 0 412 917" fill="none" xmlns="http://www.w3.org/2000/svg">
<g clip-path="url(#clip0_322_4165)">
<rect width="412" height="917" fill="#1C6EA4"/>
<path d="M21.02 7.82882C35.152 24.6708 48.6279 40.7327 71.3298 51.2357C105.365 66.9837 130.635 68.5097 153.657 69.8987C177.512 71.3397 198.955 72.6337 225.237 89.4546C254.287 108.047 266.017 125.659 278.073 143.761C287.45 157.841 297.025 172.218 315.102 187.583C348.538 216.004 383.275 225.801 424.593 225.801H561.973V-113H-880V225.801H-742.62C-701.3 225.801 -666.57 216.004 -633.13 187.583C-615.05 172.218 -605.481 157.841 -596.101 143.761C-584.041 125.66 -572.311 108.047 -543.261 89.4546C-516.981 72.6337 -495.541 71.3397 -471.681 69.8987C-448.661 68.5097 -423.392 66.9837 -389.357 51.2357C-366.655 40.7327 -353.179 24.6708 -339.047 7.82882C-310.097 -26.6731 -278.398 -64.452 -159.014 -64.452C-39.6289 -64.452 -7.92993 -26.6731 21.02 7.82882Z" fill="url(#paint0_linear_322_4165)" fill-opacity="0.5"/>
<path d="M21.02 7.82883C35.152 24.6708 48.6279 40.7327 71.3298 51.2357C105.365 66.9837 130.635 68.5097 153.657 69.8987C177.512 71.3397 198.955 72.6336 225.237 89.4546C254.287 108.047 266.017 125.659 278.073 143.761C287.45 157.841 297.025 172.218 315.102 187.583C348.538 216.004 383.275 225.801 424.593 225.801H561.973V-113H-880V225.801H-742.62C-701.3 225.801 -666.57 216.004 -633.13 187.583C-615.05 172.218 -605.481 157.841 -596.101 143.761C-584.041 125.66 -572.311 108.047 -543.261 89.4546C-516.981 72.6336 -495.541 71.3397 -471.681 69.8987C-448.661 68.5097 -423.392 66.9837 -389.357 51.2357C-366.655 40.7327 -353.179 24.6708 -339.047 7.82883C-310.097 -26.6731 -278.398 -64.452 -159.014 -64.452C-39.6289 -64.452 -7.92991 -26.6731 21.02 7.82883Z" fill="url(#paint1_linear_322_4165)" fill-opacity="0.5"/>
<path d="M375.953 818.972C361.821 802.13 348.345 786.069 325.643 775.566C291.608 759.818 266.338 758.292 243.316 756.903C219.461 755.462 198.018 754.168 171.735 737.347C142.685 718.755 130.955 701.143 118.899 683.04C109.522 668.96 99.9474 654.583 81.8704 639.218C48.4345 610.797 13.6976 601 -27.6203 601H-165V939.801H1276.97V601H1139.59C1098.27 601 1063.54 610.797 1030.1 639.218C1012.02 654.583 1002.45 668.96 993.073 683.04C981.013 701.142 969.283 718.755 940.233 737.347C913.953 754.168 892.513 755.462 868.653 756.903C845.634 758.292 820.365 759.818 786.33 775.566C763.628 786.069 750.152 802.13 736.02 818.972C707.07 853.474 675.371 891.253 555.986 891.253C436.602 891.253 404.903 853.474 375.953 818.972Z" fill="url(#paint2_linear_322_4165)" fill-opacity="0.5"/>
</g>
<defs>
<linearGradient id="paint0_linear_322_4165" x1="-147.809" y1="284.943" x2="-151.107" y2="82.4352" gradientUnits="userSpaceOnUse">
<stop stop-color="#ECF2FF"/>
<stop offset="1" stop-color="#ECF2FF" stop-opacity="0"/>
</linearGradient>
<linearGradient id="paint1_linear_322_4165" x1="-147.809" y1="284.943" x2="-151.107" y2="82.4352" gradientUnits="userSpaceOnUse">
<stop stop-color="#ECF2FF"/>
<stop offset="1" stop-color="#ECF2FF" stop-opacity="0"/>
</linearGradient>
<linearGradient id="paint2_linear_322_4165" x1="544.782" y1="541.858" x2="548.08" y2="744.366" gradientUnits="userSpaceOnUse">
<stop stop-color="#ECF2FF"/>
<stop offset="1" stop-color="#ECF2FF" stop-opacity="0"/>
</linearGradient>
<clipPath id="clip0_322_4165">
<rect width="412" height="917" fill="white"/>
</clipPath>
</defs>
</svg>
