<svg width="412" height="917" viewBox="0 0 412 917" fill="none" xmlns="http://www.w3.org/2000/svg">
<g clip-path="url(#clip0_329_4258)">
<rect width="412" height="917" fill="white"/>
<g clip-path="url(#clip1_329_4258)">
<path d="M26.0199 -4.1713C40.1519 12.6707 53.6278 28.7326 76.3297 39.2356C110.365 54.9836 135.635 56.5095 158.657 57.8985C182.511 59.3395 203.954 60.6335 230.237 77.4545C259.287 96.0464 271.017 113.658 283.073 131.761C292.45 145.841 302.025 160.218 320.102 175.583C353.538 204.004 388.275 213.801 429.593 213.801H566.973V-125H-875V213.801H-737.62C-696.3 213.801 -661.57 204.004 -628.13 175.583C-610.051 160.218 -600.481 145.841 -591.101 131.761C-579.041 113.659 -567.311 96.0464 -538.261 77.4545C-511.981 60.6335 -490.541 59.3395 -466.681 57.8985C-443.661 56.5095 -418.392 54.9836 -384.357 39.2356C-361.655 28.7326 -348.179 12.6707 -334.047 -4.1713C-305.097 -38.6732 -273.398 -76.4521 -154.014 -76.4521C-34.629 -76.4521 -2.93003 -38.6732 26.0199 -4.1713Z" fill="url(#paint0_linear_329_4258)" fill-opacity="0.5"/>
<path d="M386.953 635.972C372.821 619.13 359.345 603.069 336.643 592.566C302.608 576.818 277.338 575.292 254.316 573.903C230.461 572.462 209.018 571.168 182.735 554.347C153.685 535.755 141.955 518.143 129.899 500.04C120.522 485.96 110.947 471.583 92.8704 456.218C59.4345 427.797 24.6976 418 -16.6203 418H-154V756.801H1287.97V418H1150.59C1109.27 418 1074.54 427.797 1041.1 456.218C1023.02 471.583 1013.45 485.96 1004.07 500.04C992.013 518.142 980.283 535.755 951.233 554.347C924.953 571.168 903.513 572.462 879.653 573.903C856.634 575.292 831.365 576.818 797.33 592.566C774.628 603.069 761.152 619.13 747.02 635.972C718.07 670.474 686.371 708.253 566.986 708.253C447.602 708.253 415.903 670.474 386.953 635.972Z" fill="url(#paint1_linear_329_4258)" fill-opacity="0.5"/>
</g>
<rect x="152" y="903" width="108" height="4" rx="2" fill="#171D1B"/>
</g>
<defs>
<linearGradient id="paint0_linear_329_4258" x1="-142.809" y1="272.943" x2="-146.107" y2="70.4351" gradientUnits="userSpaceOnUse">
<stop stop-color="#1C6EA4"/>
<stop offset="1" stop-color="#ECF2FF" stop-opacity="0"/>
</linearGradient>
<linearGradient id="paint1_linear_329_4258" x1="555.782" y1="358.858" x2="559.08" y2="561.366" gradientUnits="userSpaceOnUse">
<stop stop-color="#1C6EA4"/>
<stop offset="1" stop-color="#ECF2FF" stop-opacity="0"/>
</linearGradient>
<clipPath id="clip0_329_4258">
<rect width="412" height="917" fill="white"/>
</clipPath>
<clipPath id="clip1_329_4258">
<rect width="2162.97" height="881.801" fill="white" transform="translate(-875 -125)"/>
</clipPath>
</defs>
</svg>
