<svg width="220" height="226" viewBox="0 0 220 226" fill="none" xmlns="http://www.w3.org/2000/svg">
<path d="M168.323 203.61V196.733L204.018 173.154H216.125C217.683 173.154 218.621 174.879 217.775 176.187L209.642 188.755C209.211 189.421 209.223 190.282 209.673 190.936L217.621 202.497C218.517 203.8 217.584 205.575 216.002 205.575H170.288C169.203 205.575 168.323 204.695 168.323 203.61Z" fill="#FFC300"/>
<path d="M51.4141 203.61V196.733L15.7191 173.154H3.61185C2.05469 173.154 1.11628 174.879 1.96221 176.187L10.0948 188.755C10.526 189.421 10.5139 190.282 10.0643 190.936L2.11628 202.497C1.22 203.8 2.15334 205.575 3.73541 205.575H49.4492C50.5344 205.575 51.4141 204.695 51.4141 203.61Z" fill="#FFC300"/>
<circle cx="109.705" cy="127.211" r="98.2112" fill="url(#paint0_linear_942_21149)"/>
<path d="M153.732 57.688C155.224 54.158 159.94 52.2634 163.945 53.1291C167.949 53.9947 171.044 57.1888 172.18 60.8081C173.896 66.2798 171.18 72.7036 165.835 75.6793C163.971 76.7169 161.803 77.3605 159.633 77.2582C157.464 77.1558 155.306 76.2518 154.018 74.6583" fill="#EAA16A"/>
<path d="M158.666 75.9225C157.926 75.5633 157.238 75.0641 156.636 74.4082C153.759 71.2779 153.775 66.087 155.863 62.5715C156.862 60.8902 158.746 58.8854 161.02 58.9014C162.16 58.9094 167.568 59.5007 166.384 61.5665C166.094 62.073 165.414 62.0665 164.888 61.954C164.076 61.7806 163.445 61.7218 162.733 62.1797C161.202 63.1643 160.516 65.0552 160.285 66.6813C160.033 68.4503 161.278 70.2686 163.252 70.6554C165.343 71.0653 167.232 69.4603 168.225 67.9025C170.38 64.5233 168.574 60.3911 167.127 57.1259C167.037 56.9234 166.946 56.7209 166.856 56.5192C166.752 56.2849 166.484 55.3815 166.157 55.3213C167.408 55.5506 168.572 56.1434 169.444 56.9923C170.115 57.6468 170.606 58.4384 171.028 59.2497C172.523 62.1274 173.205 65.455 172.361 68.5642C171.843 70.4732 170.377 72.3685 168.91 73.7907C166.277 76.3433 161.95 77.5159 158.666 75.9225Z" fill="#C47D4D"/>
<path d="M160.943 72.2083C160.943 72.2083 160.888 72.1517 160.783 72.0443C160.679 71.9362 160.517 71.7896 160.339 71.5727C159.968 71.1576 159.476 70.5249 159.013 69.6789C158.558 68.8335 158.096 67.788 157.839 66.5929C157.566 65.4167 157.498 64.0475 157.857 62.8365C158.069 62.2408 158.368 61.6929 158.764 61.2242C159.179 60.7765 159.64 60.376 160.158 60.0951C161.182 59.5132 162.312 59.3391 163.243 59.4203C164.186 59.5023 164.915 59.855 165.401 60.1278C165.862 60.4529 166.118 60.6335 166.118 60.6335C166.118 60.6335 165.949 60.3767 165.579 59.9261C165.177 59.5183 164.506 58.9233 163.429 58.5931C162.372 58.2674 160.924 58.2224 159.506 58.8152C158.794 59.0996 158.12 59.5625 157.516 60.1445C156.93 60.7475 156.469 61.505 156.18 62.343C155.679 64.0576 155.941 65.6692 156.414 66.9876C156.884 68.3176 157.607 69.369 158.289 70.1592C158.979 70.9508 159.664 71.4646 160.156 71.7715C160.395 71.9348 160.603 72.0305 160.735 72.1024C160.872 72.172 160.943 72.2083 160.943 72.2083Z" fill="#281612"/>
<path d="M154.019 74.6583C154.019 74.6583 154.114 74.8158 154.337 75.0959C154.558 75.376 154.919 75.7765 155.489 76.2002C156.055 76.6233 156.833 77.0702 157.84 77.3895C158.842 77.7102 160.085 77.8931 161.444 77.7936C164.161 77.6195 167.008 76.3178 169.512 73.8551C174.094 69.3491 174.702 61.4227 170.564 56.2804C167.859 52.9172 164.033 51.3891 159.789 52.5334C157.136 53.2336 155.484 54.7123 154.679 55.8182C154.278 56.3863 154.043 56.8594 153.916 57.1874C153.796 57.516 153.732 57.6887 153.732 57.6887C153.732 57.6887 153.831 57.5313 154.019 57.2323C154.209 56.9377 154.53 56.5234 155.005 56.0554C155.958 55.1404 157.692 54.052 160.067 53.7292C161.24 53.5594 162.552 53.6159 163.827 53.97C165.117 54.3415 166.393 55.0047 167.502 55.9538C168.623 56.8877 169.565 58.1074 170.252 59.4781C170.946 60.8509 171.294 62.3979 171.351 64.0051C171.391 67.2347 170.109 70.328 168.147 72.5345C166.206 74.7606 163.604 76.1451 161.272 76.5797C158.924 77.0485 156.916 76.5014 155.724 75.8831C155.118 75.5762 154.693 75.2569 154.422 75.0255C154.15 74.7947 154.019 74.6583 154.019 74.6583Z" fill="#281612"/>
<path d="M79.5482 119.962C70.7082 117.548 56.5242 111.884 54.6209 110.166C51.5067 107.355 48.375 105.34 46.5356 104.125C45.6939 103.568 44.7034 103.549 44.8594 105.244C44.9668 106.413 46.2598 108.44 46.2598 108.44C46.2598 108.44 35.304 100.85 33.8768 102.044C32.4495 103.239 40.2932 109.271 40.2932 109.271C40.2932 109.271 29.9099 103.418 29.2155 104.813C28.5211 106.209 38.1992 113.256 38.1992 113.256C38.1992 113.256 28.7533 108.31 27.7295 110.276C26.7057 112.241 37.0505 117.915 37.0505 117.915C37.0505 117.915 29.304 114.465 28.5762 116.498C27.8485 118.532 56.0554 135.997 73.2471 138.976" fill="#EAA16A"/>
<path d="M77.7479 125.396C73.8565 126.33 70.6095 129.357 66.6753 130.32C63.8904 131.002 60.9641 130.598 58.1429 130.089C52.4151 129.055 46.767 127.591 41.251 125.732C50.7513 131.198 63.6981 137.323 73.2485 138.978L77.7479 125.396Z" fill="#C47D4D"/>
<path d="M79.8088 119.018C73.3988 117.259 67.0839 114.94 60.9802 112.314C59.1002 111.505 56.9865 110.731 55.3314 109.495C55.5251 109.641 55.0209 109.213 54.9135 109.118C54.4781 108.734 54.0348 108.359 53.5856 107.991C52.7301 107.291 51.8522 106.617 50.9589 105.965C49.6471 105.009 48.2989 103.985 46.8811 103.187C45.3479 102.325 43.8488 103.182 43.8647 104.963C43.8778 106.371 44.681 107.774 45.4153 108.935C45.8623 108.488 46.3086 108.041 46.7555 107.594C43.7595 105.521 40.6518 103.453 37.3518 101.897C36.2169 101.361 33.7971 100.115 32.9118 101.7C31.9867 103.358 34.4544 105.458 35.471 106.433C36.838 107.745 38.3001 108.962 39.8007 110.118C40.1301 109.554 40.4595 108.99 40.7897 108.427C39.5017 107.701 38.1927 107.011 36.8729 106.346C34.9246 105.363 32.8451 104.221 30.6973 103.749C29.9942 103.595 29.1155 103.483 28.564 104.064C27.9647 104.696 28.2244 105.561 28.6431 106.205C29.8171 108.012 31.7429 109.434 33.3929 110.775C34.802 111.92 36.2394 113.035 37.7066 114.104C38.036 113.541 38.3662 112.977 38.6956 112.413C37.4105 111.741 36.0914 111.13 34.7577 110.561C32.9176 109.777 30.7176 108.728 28.6642 108.842C26.6883 108.953 26.2581 110.755 27.3429 112.18C28.6076 113.842 30.5413 115.055 32.2675 116.181C33.665 117.092 35.0959 117.96 36.5587 118.764C36.8881 118.2 37.2175 117.636 37.5477 117.072C36.2648 116.503 34.9457 115.998 33.6062 115.581C32.1195 115.119 29.7751 114.319 28.3384 115.305C25.9657 116.934 29.8578 119.475 31.0064 120.334C34.3688 122.852 38.0055 125.023 41.6553 127.092C46.4327 129.8 51.3435 132.288 56.3806 134.477C61.7109 136.793 67.245 138.913 72.9896 139.923C74.2224 140.14 74.7521 138.252 73.5106 138.034C68.866 137.217 64.3629 135.653 60.0014 133.889C55.211 131.952 50.5475 129.691 45.9958 127.249C42.1262 125.172 38.3139 122.963 34.6634 120.519C33.4473 119.705 32.2225 118.861 31.1065 117.95C30.7212 117.635 30.3396 117.312 29.9877 116.959C29.8578 116.828 29.7322 116.695 29.6133 116.554C29.471 116.386 29.717 116.674 29.6125 116.553C29.6002 116.54 29.4892 116.36 29.4921 116.358C29.5226 116.344 29.5632 116.603 29.524 116.761C29.4746 116.962 29.3854 116.89 29.4522 116.907C29.389 116.891 29.7656 116.842 29.7156 116.848C30.6051 116.754 31.5535 117.031 32.4003 117.266C33.3994 117.544 34.3797 117.89 35.3462 118.265C35.9013 118.481 36.1596 118.584 36.5601 118.762C37.6848 119.261 38.6789 117.691 37.5491 117.071C34.9159 115.625 32.2029 114.049 29.9412 112.06C29.4115 111.595 28.9508 111.148 28.6337 110.572C28.6605 110.62 28.6692 110.466 28.6431 110.571C28.638 110.59 28.5619 110.807 28.588 110.751C28.5227 110.89 28.469 110.824 28.5031 110.839C28.5829 110.872 28.6134 110.802 28.7723 110.796C30.4658 110.738 32.3299 111.643 33.8522 112.288C35.159 112.841 36.4506 113.447 37.7088 114.104C38.8465 114.699 39.7034 113.146 38.6978 112.413C36.058 110.49 33.3588 108.475 31.0986 106.11C30.8918 105.894 30.5885 105.563 30.4571 105.387C30.3686 105.269 30.2866 105.145 30.2126 105.017C30.1567 104.92 30.0711 104.902 30.1887 104.998C30.0965 104.923 30.2344 104.731 30.1647 105.012C30.1611 105.028 29.9942 105.383 29.8447 105.527C29.7439 105.624 29.5922 105.527 29.7446 105.581C29.9507 105.653 29.8672 105.58 29.971 105.597C30.1553 105.627 30.3381 105.677 30.5181 105.726C32.3872 106.241 34.1635 107.17 35.8868 108.038C37.2066 108.704 38.5156 109.395 39.8036 110.119C40.9377 110.758 41.7612 109.174 40.7926 108.428C41.114 108.676 40.8034 108.435 40.6721 108.332C40.4269 108.138 40.1831 107.942 39.9407 107.745C39.2267 107.163 38.5236 106.568 37.8379 105.954C37.0869 105.281 36.3483 104.588 35.6735 103.837C35.4267 103.562 35.1851 103.283 34.9812 102.975C34.8361 102.756 34.6453 102.422 34.6779 102.396C34.609 102.451 34.4755 103.082 34.26 102.901C34.3587 102.984 34.5901 102.922 34.8738 103.002C35.6452 103.218 36.3729 103.582 37.084 103.944C38.935 104.886 40.7113 105.98 42.4607 107.097C43.5752 107.809 44.6825 108.535 45.7702 109.288C46.5836 109.851 47.6183 108.75 47.1103 107.948C46.577 107.105 45.8275 105.99 45.8275 104.964C45.8275 104.91 45.8841 104.604 45.8717 104.58C44.2885 101.369 45.6207 104.733 45.6497 104.77C45.7201 104.857 46.0263 104.964 46.1257 105.026C46.7301 105.402 47.3179 105.811 47.9078 106.211C49.5237 107.305 51.1019 108.453 52.6002 109.705C53.3853 110.361 54.1015 111.077 54.9838 111.601C56.824 112.693 58.839 113.521 60.8053 114.352C63.6403 115.55 66.5107 116.662 69.4051 117.708C72.6623 118.885 75.9508 119.991 79.2914 120.908C80.5054 121.241 81.0249 119.352 79.8088 119.018Z" fill="#281612"/>
<path d="M41.4781 118.575C43.6556 117.437 46.3353 117.525 48.454 118.761C49.5453 119.398 50.5322 117.706 49.443 117.07C46.7148 115.477 43.2834 115.424 40.4898 116.883C40.0211 117.128 39.8804 117.782 40.1387 118.223C40.4158 118.699 41.0079 118.821 41.4781 118.575Z" fill="#281612"/>
<path d="M134.183 120.486C143.128 118.494 157.563 113.507 159.546 111.881C162.791 109.221 166.014 107.356 167.908 106.229C168.775 105.713 169.766 105.741 169.529 107.426C169.367 108.589 167.979 110.553 167.979 110.553C167.979 110.553 179.282 103.49 180.651 104.75C182.02 106.011 173.899 111.666 173.899 111.666C173.899 111.666 184.548 106.31 185.175 107.738C185.802 109.164 175.802 115.746 175.802 115.746C175.802 115.746 185.471 111.252 186.401 113.264C187.33 115.276 176.729 120.454 176.729 120.454C176.729 120.454 184.63 117.373 185.26 119.44C185.891 121.506 156.889 137.617 139.576 139.778" fill="#EAA16A"/>
<path d="M135.724 125.998C139.567 127.115 142.667 130.292 146.552 131.441C149.301 132.254 152.243 131.989 155.085 131.613C160.856 130.852 166.567 129.656 172.164 128.061C162.416 133.072 149.193 138.577 139.576 139.777L135.724 125.998Z" fill="#C47D4D"/>
<path d="M133.968 119.53C140.454 118.075 146.871 116.058 153.092 113.724C155.008 113.005 157.156 112.332 158.868 111.176C158.668 111.311 159.192 110.908 159.303 110.819C159.757 110.456 160.217 110.102 160.683 109.756C161.572 109.098 162.48 108.466 163.403 107.858C164.758 106.964 166.154 106.004 167.608 105.275C169.18 104.486 170.637 105.413 170.536 107.192C170.456 108.598 169.588 109.961 168.8 111.086C168.375 110.619 167.95 110.151 167.524 109.684C170.615 107.755 173.817 105.837 177.188 104.438C178.347 103.957 180.823 102.826 181.632 104.452C182.478 106.15 179.913 108.133 178.852 109.058C177.424 110.304 175.906 111.451 174.353 112.534C174.05 111.955 173.748 111.377 173.445 110.798C174.766 110.135 176.107 109.506 177.456 108.905C179.449 108.016 181.581 106.973 183.748 106.603C184.458 106.482 185.341 106.411 185.864 107.019C186.433 107.678 186.132 108.529 185.684 109.153C184.426 110.902 182.435 112.232 180.723 113.493C179.262 114.57 177.773 115.616 176.256 116.614C175.954 116.035 175.651 115.457 175.348 114.878C176.664 114.268 178.011 113.719 179.37 113.215C181.245 112.519 183.492 111.574 185.538 111.786C187.507 111.99 187.851 113.81 186.7 115.183C185.357 116.782 183.369 117.903 181.591 118.945C180.152 119.789 178.681 120.588 177.183 121.322C176.88 120.743 176.578 120.164 176.275 119.585C177.583 119.078 178.925 118.635 180.283 118.282C181.79 117.89 184.17 117.203 185.558 118.255C187.851 119.995 183.843 122.349 182.655 123.154C179.177 125.509 175.442 127.506 171.698 129.4C166.798 131.879 161.775 134.132 156.64 136.08C151.206 138.141 145.578 139.997 139.791 140.735C138.55 140.893 138.11 138.982 139.36 138.823C144.038 138.226 148.61 136.877 153.05 135.322C157.927 133.613 162.692 131.575 167.355 129.351C171.319 127.46 175.231 125.435 178.993 123.166C180.246 122.411 181.51 121.625 182.668 120.768C183.067 120.472 183.464 120.167 183.832 119.831C183.969 119.707 184.1 119.58 184.225 119.445C184.376 119.284 184.116 119.559 184.226 119.444C184.239 119.431 184.359 119.256 184.356 119.255C184.326 119.239 184.274 119.495 184.305 119.656C184.345 119.859 184.437 119.791 184.37 119.805C184.434 119.792 184.06 119.726 184.11 119.734C183.226 119.598 182.265 119.83 181.409 120.024C180.398 120.254 179.402 120.554 178.419 120.884C177.855 121.073 177.591 121.164 177.184 121.323C176.036 121.768 175.118 120.152 176.276 119.586C178.974 118.266 181.759 116.821 184.112 114.942C184.664 114.501 185.145 114.078 185.489 113.516C185.46 113.564 185.458 113.409 185.479 113.514C185.483 113.533 185.55 113.754 185.526 113.697C185.585 113.839 185.642 113.776 185.607 113.788C185.526 113.817 185.499 113.747 185.34 113.734C183.652 113.595 181.746 114.41 180.195 114.982C178.864 115.474 177.546 116.017 176.258 116.615C175.093 117.155 174.311 115.563 175.35 114.879C178.077 113.082 180.87 111.198 183.239 108.942C183.456 108.736 183.775 108.42 183.914 108.251C184.008 108.136 184.096 108.017 184.176 107.892C184.236 107.798 184.323 107.784 184.201 107.874C184.297 107.803 184.167 107.605 184.224 107.89C184.227 107.905 184.377 108.268 184.519 108.419C184.615 108.522 184.771 108.432 184.617 108.477C184.407 108.54 184.494 108.471 184.39 108.482C184.204 108.503 184.019 108.545 183.837 108.585C181.946 109.011 180.127 109.855 178.366 110.641C177.016 111.243 175.676 111.871 174.354 112.534C173.192 113.118 172.443 111.497 173.447 110.798C173.114 111.03 173.436 110.804 173.571 110.707C173.825 110.525 174.079 110.341 174.33 110.156C175.071 109.608 175.801 109.048 176.515 108.466C177.297 107.83 178.067 107.173 178.776 106.454C179.035 106.192 179.29 105.924 179.509 105.626C179.664 105.414 179.87 105.089 179.839 105.062C179.906 105.121 180.009 105.756 180.233 105.586C180.131 105.664 179.902 105.592 179.616 105.658C178.836 105.838 178.091 106.167 177.363 106.495C175.47 107.349 173.644 108.358 171.843 109.391C170.696 110.049 169.555 110.722 168.434 111.422C167.595 111.946 166.613 110.798 167.159 110.021C167.731 109.204 168.533 108.126 168.581 107.102C168.584 107.048 168.541 106.739 168.555 106.715C170.288 103.582 168.798 106.88 168.767 106.915C168.693 106.999 168.382 107.091 168.28 107.149C167.658 107.496 167.051 107.877 166.444 108.247C164.778 109.264 163.147 110.337 161.591 111.516C160.776 112.134 160.027 112.816 159.12 113.297C157.231 114.3 155.179 115.032 153.175 115.769C150.286 116.831 147.366 117.806 144.426 118.714C141.116 119.736 137.779 120.685 134.399 121.443C133.166 121.718 132.737 119.806 133.968 119.53Z" fill="#281612"/>
<path d="M172.276 120.902C170.154 119.663 167.474 119.623 165.299 120.758C164.179 121.343 163.273 119.605 164.391 119.022C167.192 117.56 170.622 117.669 173.344 119.259C173.8 119.526 173.91 120.187 173.631 120.615C173.332 121.075 172.734 121.17 172.276 120.902Z" fill="#281612"/>
<path d="M136.26 148.719L135.724 143.092L146.223 139.777L139.831 118.456C139.831 118.456 124.162 122.174 109.133 122.241C102.042 122.273 75.1205 118.456 75.1205 118.456L67.7847 138.977C70.6784 140.432 77.7958 142.758 77.7958 142.758C77.7958 142.758 77.0165 146.23 76.6247 148.718H136.26V148.719Z" fill="#D33611"/>
<path d="M113.094 148.718C113.572 146.976 114.53 144.334 115.283 142.695C117.234 138.446 120.026 135.809 122.856 132.137C124.445 130.076 126.034 128.014 127.623 125.952C128.391 124.955 129.16 123.957 129.929 122.96C130.319 122.454 131.659 120.068 132.235 119.967C126.278 121.005 117.604 122.203 109.132 122.241C102.041 122.273 75.12 118.456 75.12 118.456L67.7842 138.977C70.6779 140.432 77.7953 142.758 77.7953 142.758C77.7953 142.758 77.016 146.23 76.6242 148.718H113.094Z" fill="#AD2D14"/>
<path d="M137.24 148.719C137.061 146.843 136.883 144.967 136.704 143.092C136.464 143.407 136.224 143.722 135.985 144.037C139.484 142.932 142.984 141.827 146.483 140.722C146.98 140.565 147.324 140.04 147.168 139.517C145.304 133.302 143.442 127.088 141.579 120.873C141.311 119.981 141.044 119.088 140.777 118.196C140.621 117.675 140.097 117.387 139.571 117.511C136.106 118.331 132.585 118.952 129.069 119.505C122.298 120.569 115.336 121.406 108.471 121.255C104.627 121.17 100.779 120.698 96.9627 120.271C92.3493 119.756 87.7439 119.175 83.1422 118.568C80.554 118.226 77.9665 117.878 75.3819 117.511C74.8254 117.432 74.3748 117.643 74.1767 118.196C72.0369 124.182 69.8971 130.167 67.7573 136.153C67.4518 137.008 67.1463 137.863 66.8409 138.717C66.7045 139.098 66.9265 139.642 67.2907 139.824C70.5472 141.437 74.0867 142.574 77.5355 143.703C77.3076 143.301 77.0791 142.899 76.8512 142.497C76.4086 144.472 76.0008 146.459 75.6801 148.457C75.5814 149.075 75.9326 149.697 76.6249 149.697C83.3562 149.697 90.0884 149.697 96.8197 149.697C107.532 149.697 118.243 149.697 128.955 149.697C131.39 149.697 133.825 149.697 136.26 149.697C137.52 149.697 137.522 147.738 136.26 147.738C129.528 147.738 122.796 147.738 116.065 147.738C105.353 147.738 94.6415 147.738 83.9295 147.738C81.4943 147.738 79.06 147.738 76.6249 147.738C76.9398 148.152 77.2547 148.565 77.5696 148.978C77.8896 146.979 78.2981 144.993 78.7407 143.018C78.8604 142.483 78.5803 141.985 78.0565 141.813C74.7688 140.737 71.3838 139.67 68.2797 138.131C68.4299 138.5 68.5801 138.869 68.7296 139.238C70.8694 133.252 73.0092 127.266 75.149 121.28C75.4545 120.425 75.7599 119.571 76.0654 118.717C75.6634 118.944 75.2622 119.173 74.8602 119.401C81.6039 120.356 88.3607 121.239 95.1269 122.022C99.2251 122.497 103.341 122.985 107.464 123.178C113.989 123.483 120.646 122.686 127.095 121.768C131.448 121.148 135.811 120.414 140.092 119.401C139.69 119.173 139.288 118.944 138.886 118.717C140.75 124.931 142.612 131.145 144.476 137.36C144.743 138.253 145.01 139.145 145.278 140.038C145.506 139.636 145.735 139.234 145.962 138.832C142.463 139.937 138.963 141.043 135.464 142.148C135.084 142.267 134.703 142.659 134.745 143.092C134.923 144.968 135.102 146.843 135.281 148.719C135.399 149.963 137.359 149.975 137.24 148.719Z" fill="#281612"/>
<path d="M121.275 122.148C120.491 127.793 117.767 133.871 111.647 135.168C106.377 136.284 100.022 133.871 96.8651 129.5C95.1178 127.081 94.3255 124.175 94.1971 121.221C94.1426 119.965 92.1835 119.958 92.2379 121.221C92.3678 124.226 93.0891 127.223 94.7028 129.79C96.2962 132.325 98.6443 134.294 101.349 135.555C107.288 138.324 114.703 138.145 119.113 132.765C121.464 129.895 122.659 126.306 123.164 122.67C123.335 121.436 121.448 120.903 121.275 122.148Z" fill="#281612"/>
<path d="M77.5354 143.703C79.3334 144.214 81.1315 144.725 82.9295 145.236C83.1864 145.309 83.4439 145.382 83.7008 145.455C84.1935 145.595 84.7892 145.284 84.906 144.771C85.025 144.25 84.7493 143.716 84.2218 143.565C82.4238 143.055 80.6257 142.544 78.8277 142.033C78.5708 141.96 78.3132 141.887 78.0564 141.814C77.5637 141.674 76.968 141.985 76.8511 142.498C76.7321 143.019 77.0079 143.553 77.5354 143.703Z" fill="#281612"/>
<path d="M136.704 143.092C136.448 140.75 136.193 138.409 135.937 136.067C135.9 135.73 135.864 135.393 135.827 135.056C135.77 134.53 135.418 134.076 134.848 134.076C134.363 134.076 133.81 134.526 133.868 135.056C134.123 137.397 134.379 139.739 134.634 142.08C134.671 142.418 134.708 142.754 134.745 143.092C134.802 143.618 135.154 144.071 135.724 144.071C136.209 144.071 136.761 143.621 136.704 143.092Z" fill="#281612"/>
<path d="M100.78 111.507C102.238 116.544 102.134 123.5 100.947 127.046C110.516 135.083 116.247 126.782 116.247 126.782C115.782 122.217 116.694 117.519 118.836 113.461" fill="#EAA16A"/>
<path d="M100.947 127.047C101.648 127.637 102.327 128.129 102.988 128.552C104.093 126.994 105.144 125.38 105.687 123.557C105.977 122.582 106.143 121.514 106.822 120.758C107.923 119.531 109.831 119.642 111.477 119.725C113.201 119.812 114.932 119.759 116.648 119.571C117.095 117.447 117.823 115.382 118.836 113.461L100.78 111.507C102.237 116.545 102.134 123.5 100.947 127.047Z" fill="#C47D4D"/>
<path d="M101.736 111.292C102.522 114.073 102.826 116.997 102.834 119.883C102.841 122.375 102.651 124.968 101.878 127.352C101.746 126.977 101.613 126.601 101.481 126.226C104.348 128.598 108.152 130.578 111.875 129.001C112.879 128.575 113.776 127.963 114.563 127.212C114.7 127.081 114.834 126.946 114.964 126.806C115.107 126.654 115.251 126.478 115.185 126.562C115.268 126.46 115.352 126.357 115.427 126.249C115.382 126.499 115.337 126.748 115.293 126.999C114.828 122.108 115.752 117.291 118.015 112.928C118.595 111.81 120.236 112.883 119.658 113.996C118.112 116.975 117.248 120.28 117.123 123.633C117.096 124.379 117.104 125.128 117.15 125.873C117.18 126.373 117.319 126.88 117.057 127.337C116.909 127.594 116.665 127.832 116.472 128.049C114.471 130.301 111.52 131.69 108.484 131.518C105.447 131.345 102.708 129.768 100.414 127.87C100.073 127.588 99.8709 127.192 100.016 126.744C100.737 124.521 100.883 122.115 100.877 119.792C100.869 117.073 100.564 114.346 99.8237 111.725C99.4805 110.507 101.394 110.083 101.736 111.292Z" fill="#281612"/>
<path d="M131.655 11.8305C142.38 15.7473 151.431 25.2163 155.919 35.2151C159.871 44.0188 161.759 53.559 162.717 63.1035C162.968 65.5967 163.196 68.2132 164.634 70.3058C165.563 71.6598 166.929 72.6807 168.053 73.8925C172.628 78.8193 172.652 86.5636 169.508 92.4562C166.363 98.3488 160.614 102.628 154.535 105.83C142.584 112.124 128.892 114.927 115.283 115.688C104.011 116.319 92.2514 115.492 82.3745 110.349C68.4989 103.124 60.4796 88.3094 58.0894 73.4121C56.4343 63.0977 57.1404 52.3175 61.0746 42.5458C66.5673 28.9046 78.724 18.7658 92.6541 13.1061C102.182 9.23501 112.852 7.82881 122.993 9.97948" fill="#EAA16A"/>
<path d="M124.243 112.176C116.593 113.013 108.885 113.252 101.276 112.089C86.1508 109.777 70.3777 100.617 66.6576 84.7465C65.2165 78.5992 65.9951 71.6842 69.9082 66.7284C71.3333 64.9238 73.1466 63.3913 74.1842 61.3386C76.6121 56.5344 74.0848 50.5765 75.5868 45.4074C77.2339 39.7404 83.3841 36.4622 89.2535 35.8498C94.903 35.2606 99.7275 35.6713 105.326 36.058C114.901 36.719 126.428 36.1175 134.879 31.0354C137.055 29.7271 139.012 27.7455 138.919 25.047C138.902 24.5667 137.959 20.0586 137.546 20.2632L142.327 17.8984C139.067 15.3269 135.471 13.2219 131.656 11.8288L122.994 9.97705C112.853 7.8271 102.183 9.23333 92.6551 13.1037C78.7243 18.7634 66.5676 28.9022 61.0755 42.5434C57.1413 52.3151 56.4353 63.0953 58.0904 73.4097C60.4805 88.307 68.4999 103.122 82.3755 110.346C92.2524 115.489 104.012 116.317 115.284 115.686C126.958 115.033 138.689 112.871 149.334 108.298C147.814 108.95 145.532 108.909 143.891 109.185C141.836 109.53 139.783 109.885 137.728 110.23C133.274 110.977 128.769 111.681 124.243 112.176Z" fill="#C47D4D"/>
<path d="M67.6154 94.7947C67.9964 94.2236 68.0544 93.5031 68.082 92.8174C68.2257 89.241 67.8607 85.6449 68.2395 82.0851C68.8308 76.5226 71.2209 71.2142 71.3305 65.6205L68.8446 53.7417C67.0887 50.8379 63.3787 49.2669 60.0707 50.0259C59.5707 50.1406 59.0875 50.306 58.6158 50.5026C56.9375 58.0003 56.8722 65.8309 58.089 73.4113C59.34 81.2078 62.1357 88.9797 66.5031 95.6553C66.9501 95.4702 67.3477 95.1952 67.6154 94.7947Z" fill="#845439"/>
<path d="M123.016 9.78987C110.67 8.2545 97.8242 10.3021 86.8081 16.083C75.7913 21.8639 66.7083 31.4302 61.9912 42.9425C56.5753 56.1629 57.1079 71.4571 62.2604 84.7813C65.506 93.1729 70.6563 101.017 77.9536 106.281C89.1046 114.324 103.807 115.458 117.516 114.394C126.71 113.681 136.077 112.081 144.843 108.93C153.309 105.887 162.826 101.338 167.763 93.4486C170.881 88.4645 171.594 82.3948 168.716 77.2677C167.132 74.4459 164.61 71.9709 163.212 68.9799C160.66 63.5205 161.39 56.9089 160.057 51.0845C158.661 44.988 156.526 39.0468 153.526 33.5518C149.85 26.8183 144.003 21.5337 137.903 16.9153C135.722 15.2645 134.227 13.0195 131.784 11.7737C140.951 15.1782 148.581 22.1236 153.708 30.4499C158.835 38.7761 161.575 48.4215 162.625 58.1438C162.957 61.2088 163.567 64.4616 164.635 67.3814C165.846 70.6924 168.175 72.5818 170.091 75.432C173.615 80.673 173.074 87.9174 169.997 93.4334C166.92 98.9494 161.699 102.963 156.19 106.053C144.68 112.509 131.504 115.527 118.353 116.643C104.388 117.828 89.4936 116.702 77.8535 108.897C67.0856 101.675 60.3999 89.431 57.7348 76.7431C55.5537 66.3591 55.8511 55.3713 59.2752 45.3283C65.0648 28.3471 80.2814 15.9538 97.3076 11.1562C105.636 8.80958 114.491 8.2857 123.016 9.78987Z" fill="#281612"/>
<path d="M139.884 92.2436C143.142 99.3022 152.27 102.03 160.272 98.3357C168.273 94.6417 172.118 85.9251 168.859 78.8664C165.6 71.8078 156.472 69.0803 148.471 72.7743C140.47 76.4676 136.625 85.185 139.884 92.2436Z" fill="url(#paint1_radial_942_21149)"/>
<path d="M156.926 79.3134C157.464 80.0919 158.532 80.2864 159.311 79.7473C160.089 79.2089 160.284 78.1408 159.745 77.363C159.206 76.5844 158.138 76.3899 157.36 76.929C156.582 77.4674 156.387 78.5348 156.926 79.3134Z" fill="white"/>
<path d="M154.154 82.2133C154.452 82.6436 155.042 82.751 155.473 82.4535C155.903 82.1553 156.01 81.5653 155.713 81.1343C155.415 80.7041 154.824 80.5959 154.394 80.8942C153.963 81.1916 153.856 81.7823 154.154 82.2133Z" fill="white"/>
<path d="M71.6468 85.3424C69.671 92.8618 77.046 101.316 88.1194 104.225C99.1927 107.135 109.771 103.398 111.746 95.8781C113.722 88.3588 106.347 79.9048 95.2738 76.9951C84.2004 74.0862 73.6226 77.8231 71.6468 85.3424Z" fill="url(#paint2_radial_942_21149)"/>
<path d="M97.047 89.2367C96.8032 90.151 97.3467 91.0907 98.2617 91.3345C99.1767 91.5783 100.116 91.0348 100.359 90.1198C100.603 89.2048 100.06 88.2659 99.1447 88.0221C98.2305 87.7783 97.2908 88.3225 97.047 89.2367Z" fill="white"/>
<path d="M93.0415 89.005C92.9066 89.5107 93.2077 90.0303 93.7134 90.1652C94.2192 90.3002 94.7387 89.999 94.8737 89.4933C95.0086 88.9876 94.7075 88.468 94.2018 88.3331C93.696 88.1981 93.1765 88.4985 93.0415 89.005Z" fill="white"/>
<path d="M107.708 76.0749C112.013 69.5394 110.205 60.7514 103.67 56.4463C97.1343 52.1412 88.3462 53.9493 84.0411 60.4848C79.7361 67.0203 81.5442 75.8083 88.0797 80.1134C94.6151 84.4185 103.403 82.6104 107.708 76.0749Z" fill="#C47D4D"/>
<path d="M102.957 80.0345C110.628 78.4818 115.587 71.0051 114.034 63.3348C112.481 55.6646 105.005 50.7053 97.3345 52.258C89.6643 53.8106 84.705 61.2873 86.2577 68.9576C87.8103 76.6278 95.287 81.5871 102.957 80.0345Z" fill="white"/>
<path d="M108.045 54.3704C108.045 54.3704 108.301 54.5474 108.79 54.8848C109.039 55.0481 109.338 55.2621 109.66 55.5567C109.992 55.8397 110.385 56.1575 110.761 56.5842C111.57 57.3816 112.412 58.515 113.161 59.9582C113.901 61.4029 114.499 63.2024 114.67 65.266C114.835 67.318 114.605 69.6508 113.659 71.9241C112.71 74.1749 111.167 76.4293 108.911 78.0822C107.811 78.9355 106.538 79.6241 105.166 80.1241C104.488 80.4012 103.764 80.5609 103.041 80.7474C102.304 80.8635 101.561 81.0028 100.797 81.018C99.2807 81.0811 97.7091 80.9694 96.1926 80.5268C94.6739 80.103 93.2024 79.4362 91.8462 78.5517C90.5126 77.6338 89.3357 76.5266 88.3663 75.2836C87.3802 74.0494 86.6785 72.6388 86.1604 71.2122C85.8847 70.5004 85.7301 69.7603 85.5567 69.034C85.4537 68.2946 85.3267 67.5647 85.3245 66.8318C85.265 65.3734 85.4174 63.9345 85.7875 62.5921C86.4579 59.8769 87.9556 57.592 89.6752 55.8578C91.4174 54.1171 93.4875 53.0178 95.4481 52.3895C97.4217 51.7626 99.3134 51.6312 100.931 51.7655C102.55 51.9091 103.918 52.256 104.964 52.7007C105.501 52.8865 105.945 53.1289 106.333 53.3277C106.728 53.5134 107.04 53.7093 107.286 53.8777C107.783 54.2006 108.045 54.3704 108.045 54.3704C108.045 54.3704 107.772 54.2202 107.252 53.9343C106.997 53.7848 106.675 53.6128 106.271 53.4546C105.875 53.2841 105.424 53.0744 104.883 52.9257C103.831 52.5542 102.474 52.3002 100.905 52.2494C99.3373 52.2066 97.5349 52.4316 95.6955 53.1136C93.8677 53.7979 91.9768 54.9131 90.4233 56.59C88.8894 58.2625 87.5819 60.4103 87.0413 62.9012C86.7351 64.1333 86.6299 65.4445 86.7119 66.7658C86.7249 67.4297 86.8577 68.0885 86.9586 68.7554C87.1298 69.4091 87.2764 70.0752 87.5369 70.7138C88.462 73.3071 90.2956 75.6369 92.6966 77.2797C95.1296 78.8753 97.9819 79.6851 100.732 79.5537C101.421 79.5516 102.093 79.4333 102.763 79.3433C103.419 79.183 104.078 79.0553 104.697 78.8151C105.95 78.3884 107.123 77.7927 108.146 77.0403C110.245 75.5927 111.733 73.5661 112.696 71.5112C113.656 69.436 113.968 67.2635 113.905 65.3124C113.836 63.3518 113.358 61.5995 112.722 60.1657C112.078 58.7341 111.327 57.5761 110.583 56.7445C110.24 56.3012 109.874 55.9638 109.566 55.6619C109.266 55.3492 108.985 55.1163 108.75 54.937C108.288 54.5655 108.045 54.3704 108.045 54.3704Z" fill="#281612"/>
<path d="M102.559 76.1807C109.128 75.5311 113.926 69.6793 113.277 63.1103C112.627 56.5413 106.775 51.7426 100.206 52.3922C93.6372 53.0418 88.8386 58.8936 89.4882 65.4626C90.1377 72.0316 95.9895 76.8302 102.559 76.1807Z" fill="#281612"/>
<path d="M106.799 60.2345C106.951 60.1815 107.094 60.1148 107.229 60.0306C108.466 59.2608 109.645 56.4099 107.361 55.3737C106.479 54.9732 105.531 55.1829 104.864 55.6748C103.417 56.7415 101.394 59.4654 104.841 60.2635C105.513 60.4188 106.211 60.4391 106.799 60.2345Z" fill="white"/>
<path d="M130.23 62.5984C131.651 69.7855 137.755 74.6325 143.866 73.4243C149.976 72.2162 153.777 65.4115 152.357 58.2245C150.936 51.0374 144.832 46.1904 138.721 47.3985C132.611 48.6059 128.81 55.4113 130.23 62.5984Z" fill="#C47D4D"/>
<path d="M147.051 72.2176C153.161 71.0099 156.963 64.2049 155.542 57.0182C154.122 49.8316 148.017 44.9846 141.907 46.1922C135.797 47.3999 131.996 54.2049 133.416 61.3916C134.837 68.5783 140.941 73.4252 147.051 72.2176Z" fill="white"/>
<path d="M155.555 57.0109C155.555 57.0109 155.607 57.2765 155.707 57.7815C155.819 58.2851 155.916 59.0433 155.961 60.0265C156.007 61.0112 155.933 62.2244 155.66 63.6103C155.365 64.9889 154.811 66.5352 153.836 68.0553C152.852 69.558 151.392 71.0135 149.45 71.9859C148.462 72.4205 147.39 72.7993 146.232 72.9183C145.084 73.0329 143.863 73.0307 142.671 72.7245C141.481 72.4365 140.294 71.9786 139.207 71.2987C138.124 70.6188 137.117 69.7764 136.227 68.7932C135.359 67.7933 134.609 66.6679 133.994 65.4497C133.405 64.2183 132.971 62.8999 132.678 61.5336C132.429 60.1586 132.329 58.7741 132.405 57.4115C132.51 56.051 132.776 54.7246 133.199 53.4693C133.647 52.222 134.258 51.0596 135.001 50.0183C135.747 48.9764 136.671 48.1013 137.661 47.3822C138.647 46.6457 139.775 46.1799 140.881 45.849C141.997 45.5189 143.133 45.4608 144.212 45.487C146.378 45.6473 148.281 46.4382 149.764 47.4533C151.244 48.488 152.344 49.707 153.142 50.8702C153.922 52.0478 154.451 53.142 154.785 54.0693C155.116 54.9959 155.316 55.7331 155.403 56.2418C155.502 56.7461 155.555 57.0109 155.555 57.0109C155.555 57.0109 155.48 56.7512 155.338 56.257C155.21 55.7607 154.954 55.0446 154.562 54.1593C154.17 53.2734 153.576 52.2423 152.751 51.1553C151.91 50.0836 150.786 48.9865 149.346 48.094C147.903 47.2182 146.117 46.592 144.17 46.5318C142.229 46.5231 140.146 47.1014 138.422 48.4256C137.57 49.0888 136.774 49.8797 136.133 50.8237C135.496 51.767 134.97 52.8155 134.585 53.9416C134.226 55.0765 134.002 56.2737 133.916 57.5029C133.858 58.735 133.955 59.9873 134.18 61.2368C134.448 62.4769 134.835 63.6727 135.357 64.7901C135.904 65.8944 136.566 66.9161 137.33 67.8289C138.115 68.7236 138.999 69.4934 139.947 70.1232C140.899 70.7523 141.936 71.1812 142.977 71.4707C145.075 72.0396 147.222 71.7812 149.013 71.0353C150.791 70.2386 152.205 68.9797 153.206 67.6207C154.197 66.2471 154.819 64.8053 155.189 63.4942C155.538 62.1757 155.696 60.9959 155.722 60.0273C155.747 59.0593 155.712 58.2996 155.641 57.7924C155.585 57.2801 155.555 57.0109 155.555 57.0109Z" fill="#281612"/>
<path d="M155.555 57.0107C154.357 50.9483 149.207 46.8596 144.053 47.8783C138.899 48.8971 135.692 54.638 136.891 60.7004C138.09 66.7628 143.239 70.8515 148.393 69.8328C153.547 68.814 156.753 63.0738 155.555 57.0107Z" fill="#281612"/>
<path d="M148.706 54.4715C148.841 54.4744 148.975 54.4635 149.104 54.436C150.301 54.1842 152.022 52.2265 150.485 50.6948C149.891 50.1034 149.078 49.9866 148.411 50.1847C146.965 50.6135 144.606 52.2142 147.136 53.9027C147.631 54.2328 148.181 54.4599 148.706 54.4715Z" fill="white"/>
<path d="M88.022 48.8544C89.6481 43.5829 95.0806 40.2081 100.541 41.2269C101.406 41.3887 102.302 40.9874 102.549 40.0862C102.768 39.291 102.28 38.2403 101.409 38.0778C97.7755 37.3993 93.9378 38.0161 90.8177 40.0543C87.9676 41.9162 85.8757 44.7381 84.8736 47.9858C84.2525 49.9987 87.4038 50.8592 88.022 48.8544Z" fill="#281612"/>
<path d="M139.068 36.5375C139.843 36.2023 141.006 36.1566 141.865 36.3365C143.012 36.5767 143.976 37.0121 144.932 37.758C146.781 39.2005 148.017 41.3816 149.067 43.5236C149.455 44.3152 150.579 44.5307 151.3 44.1091C152.108 43.6368 152.275 42.6703 151.886 41.8757C150.537 39.1243 148.833 36.4824 146.271 34.7162C143.662 32.9182 140.336 32.456 137.42 33.7178C136.611 34.0683 136.427 35.2561 136.834 35.9512C137.323 36.7879 138.255 36.8887 139.068 36.5375Z" fill="#281612"/>
<path d="M137.316 75.5533C137.444 78.2583 135.086 80.5679 132.049 80.7123C129.011 80.856 126.445 78.78 126.317 76.0743C126.189 73.3692 128.547 71.0596 131.584 70.9152C134.622 70.7716 137.188 72.8482 137.316 75.5533Z" fill="url(#paint3_radial_942_21149)"/>
<path d="M126.444 78.7599C127.731 79.9782 129.508 80.7074 131.277 80.5899C133.045 80.4724 134.764 79.4594 135.596 77.8943C136.427 76.3292 136.269 74.2525 135.102 72.9189C134.315 72.0206 133.199 71.7717 132.063 72.0373C131.49 72.1708 130.945 72.4109 130.428 72.6867C129.994 72.9181 129.44 73.4674 128.915 73.3578C128.712 73.3158 128.535 73.1627 128.465 72.9675C128.204 72.2491 129.331 71.1564 129.836 70.7711C130.575 70.2088 131.498 69.9562 132.418 69.9671C134.353 69.9911 136.3 71.115 137.227 72.8238C138.217 74.648 138.104 77.0047 136.987 78.7534C135.87 80.5021 133.807 81.5905 131.733 81.5745C129.658 81.56 127.631 80.4622 126.444 78.7599Z" fill="#281612"/>
<path d="M134.847 74.9581C134.875 75.5437 134.423 76.04 133.838 76.0683C133.252 76.0958 132.756 75.6438 132.728 75.0589C132.7 74.4741 133.152 73.9771 133.737 73.9495C134.323 73.9212 134.819 74.3725 134.847 74.9581Z" fill="white"/>
<path d="M136.276 87.7454C135.306 87.3579 134.151 87.1903 132.942 87.1373C130.203 87.0183 127.55 86.419 125.067 85.2457C122.711 84.1319 120.816 81.7896 118.154 81.4508C114.673 81.0082 112.364 85.9415 111.593 87.9319C110.297 91.2783 109.81 94.8207 110.153 98.3116C110.501 101.864 111.352 105.676 114.915 108.143C119.484 111.307 126.438 110.425 130.779 107.182C133.746 104.965 135.518 102.683 137.093 99.3513C138.607 96.1485 140.701 89.5151 136.276 87.7454Z" fill="#C97547"/>
<path d="M131.966 90.7303C129.906 89.7058 125.868 90.6715 123.78 89.5635C122.351 88.8046 121.344 87.0834 119.572 86.8396C115.444 86.2722 114.912 95.8414 115.122 98.3534C115.385 101.487 116.76 104.838 119.957 105.932C126.587 108.202 132.431 99.1371 133.19 93.6791C133.416 92.0502 132.889 91.1896 131.966 90.7303Z" fill="#894027"/>
<path d="M127.87 103.633C125.265 100.014 121.583 97.1612 117.382 95.6563C116.666 95.4002 115.928 95.1847 115.178 95.0156C115.063 96.4247 115.063 97.659 115.121 98.3534C115.384 101.487 116.759 104.838 119.956 105.932C122.867 106.929 125.626 105.741 127.87 103.633Z" fill="url(#paint4_linear_942_21149)"/>
<path d="M132.331 90.1032C130.009 89.0395 127.393 89.7963 124.975 89.2231C122.726 88.6898 121.627 85.9804 119.091 86.0943C115.516 86.2547 114.803 91.6539 114.519 94.3081C114.107 98.1647 114.365 102.774 117.606 105.432C121.492 108.619 126.433 106.452 129.364 103.13C131.056 101.213 132.364 98.9403 133.215 96.5306C133.953 94.4416 134.727 91.397 132.331 90.1032C131.509 89.6599 130.776 90.9123 131.599 91.3563C133.304 92.2771 132.257 94.9459 131.744 96.3463C131.056 98.2198 130.042 100.021 128.787 101.574C126.443 104.475 122.343 107.099 118.773 104.513C115.849 102.394 115.635 98.3054 115.903 95.025C116.033 93.4359 116.281 91.8324 116.793 90.3173C117.136 89.3007 117.749 87.7726 118.961 87.5615C120.052 87.3714 121.007 88.2682 121.751 88.9256C122.576 89.6534 123.396 90.3144 124.482 90.5959C125.627 90.8927 126.841 90.8862 128.014 90.9065C129.186 90.9268 130.509 90.8579 131.599 91.3571C132.442 91.7424 133.18 90.4922 132.331 90.1032Z" fill="#281612"/>
<path d="M70.519 85.1068C67.7131 82.4968 62.6346 82.6985 59.3346 85.1271C56.0353 87.5557 54.5188 91.7366 54.9643 95.5039C55.637 101.199 60.7452 105.948 66.8395 106.476C68.9655 106.659 71.2062 106.36 73.1442 105.378C75.0823 104.397 76.6808 102.689 77.2032 100.707" fill="#EAA16A"/>
<path d="M73.4811 103.762C74.0093 103.131 74.4316 102.395 74.7132 101.55C76.057 97.5161 73.9179 92.7866 70.5736 90.4335C68.9744 89.3081 66.4348 88.2501 64.3668 89.1949C63.3292 89.6687 58.6375 92.4216 60.5633 93.822C61.0356 94.166 61.6531 93.8808 62.087 93.5637C62.7567 93.0732 63.3082 92.7619 64.1448 92.8874C65.9458 93.1588 67.3447 94.6035 68.2212 95.9923C69.1754 97.503 68.7836 99.6718 67.1401 100.833C65.4008 102.063 63.0194 101.372 61.4761 100.357C58.1274 98.1553 58.0832 93.6457 58.0679 90.0743C58.0672 89.853 58.0672 89.6309 58.0665 89.4096C58.0665 89.1528 57.9402 88.2189 58.2145 88.0303C57.1674 88.7515 56.3468 89.7688 55.8998 90.9C55.5552 91.7722 55.4311 92.6952 55.3788 93.608C55.1924 96.8456 55.9325 100.16 57.975 102.652C59.2289 104.181 61.3425 105.311 63.2618 106.008C66.7098 107.261 71.1374 106.56 73.4811 103.762Z" fill="#C47D4D"/>
<path d="M69.8825 101.304C69.8825 101.304 69.9101 101.23 69.9616 101.089C70.0116 100.949 70.0995 100.749 70.1727 100.478C70.3411 99.9479 70.5319 99.1686 70.6066 98.2072C70.6763 97.2494 70.669 96.1066 70.4151 94.9108C70.1836 93.7252 69.6844 92.4489 68.8616 91.4911C68.4248 91.0347 67.927 90.6573 67.3741 90.391C66.8125 90.1523 66.2277 89.976 65.6406 89.9317C64.4674 89.82 63.3659 90.1233 62.5496 90.579C61.7224 91.0397 61.2021 91.6601 60.8698 92.1078C60.5825 92.5933 60.4229 92.8624 60.4229 92.8624C60.4229 92.8624 60.4722 92.5591 60.6253 91.9961C60.8248 91.4591 61.1942 90.6421 62.0417 89.8998C62.8732 89.1699 64.1756 88.5364 65.711 88.4965C66.4773 88.4646 67.282 88.6112 68.0707 88.8949C68.8521 89.2047 69.5828 89.7075 70.1887 90.354C71.3475 91.7138 71.7683 93.2913 71.8757 94.6881C71.9918 96.0935 71.7625 97.3488 71.4643 98.3494C71.1588 99.3537 70.7438 100.103 70.4202 100.585C70.2685 100.832 70.119 101.004 70.0269 101.124C69.9326 101.242 69.8825 101.304 69.8825 101.304Z" fill="#281612"/>
<path d="M77.2038 100.707C77.2038 100.707 77.1806 100.89 77.0921 101.237C77.005 101.583 76.8396 102.096 76.4935 102.715C76.1503 103.333 75.6228 104.06 74.8348 104.763C74.0519 105.466 72.9925 106.142 71.7111 106.607C69.1606 107.56 65.7372 107.701 62.4452 106.479C59.1669 105.289 56.1172 102.709 54.5608 99.1186C53.8207 97.322 53.4818 95.3745 53.6487 93.5097C53.8076 91.6478 54.3591 89.8628 55.2574 88.3209C56.1361 86.7718 57.3587 85.4758 58.7054 84.55C60.0775 83.6219 61.5447 83.0959 62.8827 82.8825C65.5899 82.4356 67.7021 83.1089 68.8899 83.7881C69.4878 84.1422 69.8956 84.4781 70.1467 84.7248C70.3912 84.9752 70.5196 85.1065 70.5196 85.1065C70.5196 85.1065 70.3651 85.0035 70.0705 84.8083C69.7766 84.6175 69.3144 84.3707 68.6904 84.1378C67.446 83.693 65.4187 83.41 63.1192 84.087C61.9801 84.4121 60.806 85.0013 59.7873 85.8466C58.7627 86.7137 57.8703 87.8406 57.2462 89.1604C56.6055 90.4716 56.2449 91.97 56.1789 93.5024C56.1078 95.0392 56.4234 96.5928 57.0293 98.0824C58.315 101.046 60.7502 103.343 63.4436 104.553C66.1254 105.79 69.0655 105.988 71.3715 105.431C73.7057 104.897 75.3144 103.576 76.1481 102.525C76.5762 101.996 76.8331 101.531 76.9854 101.209C77.1393 100.885 77.2038 100.707 77.2038 100.707Z" fill="#281612"/>
<path d="M53.8793 45.3592C57.7765 28.4767 70.3765 13.3218 87.312 7.00979C97.2825 3.29327 108.396 2.64749 118.914 4.56235C126.541 5.95042 134.075 8.76574 139.729 13.8246C141.174 15.1184 142.54 16.6523 142.876 18.512C143.228 20.4573 142.362 22.4709 140.982 23.9467C139.602 25.4226 137.759 26.4341 135.882 27.2809C127.593 31.0213 118.212 31.9806 109.036 32.0256C99.8591 32.0706 90.6796 31.2572 81.5138 31.6903C80.3572 31.7455 79.0954 31.8623 78.2674 32.6322C77.2814 33.5486 77.277 35.0462 77.5063 36.3385C78.3378 41.0281 81.307 45.2068 82.0014 49.916C82.7459 54.9603 80.7309 59.8929 77.8139 64.0252C76.2967 66.1744 74.8455 68.5943 72.311 69.7916C69.3244 71.2029 65.2596 71.4641 61.9625 71.7297C59.1312 71.9575 57.0139 71.8733 55.6034 69.3548C54.4852 67.3586 54.015 65.0454 53.5158 62.8556C52.2061 57.1066 52.5595 51.0755 53.8793 45.3592Z" fill="#663E28"/>
<path d="M54.5288 42.8625C55.7202 38.675 57.445 34.6204 59.6349 30.8066C62.8892 34.7829 67.6963 37.6788 72.8379 39.0901C74.7251 39.6082 76.6509 39.9434 78.5948 40.1306C79.3603 42.1797 80.3123 44.1838 81.0408 46.2394C78.2276 46.92 75.3753 47.4113 72.4722 47.5789C66.142 47.9438 59.4382 46.5543 54.5288 42.8625Z" fill="#8C5835"/>
<path d="M61.9633 71.7289C59.132 71.9568 57.0147 71.8726 55.6041 69.3541C54.486 67.3579 54.0158 65.0447 53.5166 62.8549C52.9571 60.4023 52.7162 57.8983 52.709 55.3892C55.3654 65.1724 62.2731 64.9352 67.4612 63.7604C72.8241 62.5465 78.4148 58.5644 79.1273 53.3705C79.5388 50.3716 78.2392 44.8259 77.3627 41.9184C76.4006 38.7272 74.0307 33.6197 75.7519 30.7311C77.7806 27.3273 82.6153 26.7701 86.7316 26.6808C100.559 26.3826 114.441 26.934 128.187 25.4872C132.677 25.0148 137.344 24.2522 140.954 21.6735C141.686 21.151 142.364 20.5052 142.929 19.7891C142.815 21.3099 142.059 22.7923 140.981 23.946C139.602 25.4219 137.758 26.4334 135.882 27.2802C127.592 31.0206 118.212 31.9799 109.035 32.0249C99.8585 32.0698 90.6789 31.2564 81.5131 31.6896C80.3565 31.7448 79.0947 31.8616 78.2668 32.6315C77.2807 33.5479 77.2763 35.0455 77.5056 36.3378C78.3372 41.0274 81.3063 45.2061 82.0007 49.9152C82.7452 54.9596 80.7302 59.8922 77.8133 64.0245C76.2961 66.1738 74.8449 68.5936 72.3103 69.7909C69.3245 71.2014 65.2597 71.4634 61.9633 71.7289Z" fill="#563220"/>
<path d="M53.0537 63.4487C53.5463 65.8069 54.0187 68.6825 55.7152 70.5712C57.3746 72.4179 59.6327 72.5224 61.9597 72.2662C61.9771 72.2662 61.9894 72.2728 62.0076 72.2713C65.0616 72.0268 68.2114 71.8367 71.124 70.8542C73.8624 69.9305 75.6423 68.094 77.2256 65.8476C77.5601 65.373 77.8873 64.8949 78.2051 64.4109C78.7943 63.5148 79.3508 62.5983 79.8609 61.6587C81.1329 59.3135 82.2496 56.6934 82.5065 54.0457C82.7858 51.1672 82.238 48.2917 81.2185 45.5837C80.1135 42.648 78.7696 39.7173 78.1826 36.6328C78.0411 35.9579 77.9715 35.2933 78.0317 34.6533C78.0941 34.0177 78.3176 33.443 78.7406 33.0715C79.5939 32.2988 81.2657 32.3749 82.8758 32.3191C86.112 32.2414 89.4867 32.306 92.9856 32.4323C99.9811 32.6659 107.5 33.2145 115.484 32.7885C119.466 32.5629 123.564 32.1043 127.662 31.1414C129.71 30.6625 131.757 30.0632 133.772 29.3136C135.776 28.5445 137.786 27.7413 139.705 26.4736C141.599 25.2329 143.35 23.3543 143.94 20.9598C144.243 19.78 144.198 18.4362 143.752 17.2563C143.32 16.0707 142.586 15.0766 141.797 14.2175C141.001 13.3461 140.135 12.6292 139.261 11.9058C138.369 11.2012 137.451 10.5199 136.483 9.9053C134.557 8.66162 132.502 7.58265 130.356 6.68871C126.063 4.89502 121.575 3.77688 117.113 3.11151C112.644 2.46862 108.167 2.24515 103.795 2.5245C99.4216 2.77701 95.1573 3.51784 91.1172 4.67227C89.1044 5.27017 87.1293 5.92538 85.2565 6.75837C84.7841 6.95646 84.3132 7.15381 83.8437 7.35044C83.383 7.56377 82.9346 7.79888 82.4818 8.02164C81.5835 8.47949 80.6678 8.89597 79.8247 9.42131C78.9757 9.93431 78.097 10.3929 77.2894 10.9429C76.4804 11.4893 75.6764 12.0327 74.8782 12.5719C74.1178 13.1574 73.3625 13.7394 72.6122 14.3169C71.8619 14.8931 71.1849 15.541 70.4768 16.1433C67.7231 18.6321 65.2771 21.2718 63.2048 24.024C61.155 26.7893 59.378 29.5923 57.9507 32.4192C56.559 35.2577 55.3545 38.0477 54.5455 40.8122C54.0855 42.2518 53.7103 43.6725 53.4034 45.07C53.3664 45.1237 53.3345 45.1825 53.3178 45.2565C51.9631 51.226 51.7991 57.4495 53.0537 63.4487ZM54.4417 45.4626C54.4475 45.4386 54.4403 45.4205 54.4425 45.3973C54.7857 44.0034 55.1978 42.5877 55.6985 41.1511C56.5612 38.4656 57.81 35.7642 59.2336 33.0244C60.6928 30.2961 62.4872 27.6012 64.5356 24.9521C66.6064 22.3152 69.0306 19.7988 71.7371 17.4363C72.433 16.866 73.0969 16.2492 73.8319 15.705C74.5648 15.1586 75.3035 14.6086 76.0465 14.055C76.8243 13.5471 77.6065 13.0355 78.3945 12.5203C79.1796 12.0015 80.0329 11.5742 80.855 11.0916C81.6713 10.5968 82.558 10.2108 83.4258 9.78194C83.8633 9.57442 84.2958 9.35312 84.7399 9.1543C85.1926 8.97145 85.6462 8.78859 86.1011 8.60501C87.902 7.82789 89.8046 7.22274 91.7405 6.66911C95.6268 5.60393 99.7257 4.92839 103.931 4.71725C108.135 4.47925 112.44 4.7187 116.738 5.35288C121.034 6.00882 125.323 7.09359 129.377 8.78714C131.403 9.63101 133.329 10.6425 135.126 11.7969C136.03 12.3673 136.881 12.9985 137.71 13.6479C138.521 14.314 139.339 14.9917 140 15.7152C140.67 16.435 141.218 17.2026 141.509 18.0001C141.808 18.7932 141.844 19.6145 141.643 20.4541C141.442 21.2863 141.018 22.0983 140.454 22.8057C139.893 23.5103 139.166 24.1379 138.366 24.6807C136.763 25.7669 134.829 26.5788 132.937 27.319C131.032 28.0467 129.086 28.6388 127.127 29.1192C123.208 30.0849 119.24 30.5805 115.351 30.8541C107.559 31.3787 100.065 30.9644 93.0306 30.8621C89.5114 30.8026 86.1011 30.8069 82.8228 30.9571C82.0007 31.0057 81.2091 31.013 80.3435 31.1269C79.5011 31.243 78.544 31.4955 77.8235 32.1674C77.1044 32.8364 76.8258 33.7557 76.7706 34.5546C76.7147 35.3651 76.8294 36.1408 76.9955 36.8504C77.2452 37.9845 77.6036 39.0947 78.0194 40.1831C79.115 43.0478 80.6301 46.3543 81.1786 49.3815C81.7272 52.4087 81.5059 54.9962 80.4276 57.8594C79.4488 60.4571 77.9657 62.8559 76.3548 65.1408C74.81 67.3329 73.1441 69.0714 70.4441 69.9254C68.0235 70.6909 65.4491 70.9101 62.9117 71.1089C62.8362 71.0835 62.7506 71.0712 62.6504 71.0849C60.0767 71.4376 57.5821 71.537 56.0758 69.1926C55.4264 68.1818 55.126 66.9737 54.806 65.8418C54.4214 64.4805 54.1152 63.0997 53.8859 61.7066C52.9956 56.3074 53.2314 50.7994 54.4417 45.4626Z" fill="#281612"/>
<path d="M111.782 26.4134C111.782 26.4134 112.609 25.2328 113.042 23.704C113.471 22.1737 113.376 20.7588 113.376 20.7588C113.376 20.7588 112.325 21.808 111.875 23.4072C111.423 25.005 111.782 26.4134 111.782 26.4134Z" fill="#281612"/>
<path d="M104.807 27.2282C104.807 27.2282 105.406 26.1289 105.316 24.7706C105.229 23.4123 104.493 22.3906 104.493 22.3906C104.493 22.3906 104.026 23.5262 104.11 24.841C104.197 26.155 104.807 27.2282 104.807 27.2282Z" fill="#281612"/>
<path d="M100.935 26.154C100.935 26.154 101.363 25.1534 101.158 24.0411C100.953 22.9287 100.191 22.127 100.191 22.127C100.191 22.127 99.7619 23.1275 99.9673 24.2399C100.173 25.3515 100.935 26.154 100.935 26.154Z" fill="#281612"/>
<path d="M82.7965 22.5496C82.7965 22.5496 83.4793 21.2275 83.5773 19.5572C83.6752 17.8869 83.1514 16.501 83.1514 16.501C83.1514 16.501 82.4686 17.823 82.3706 19.4933C82.2726 21.1637 82.7965 22.5496 82.7965 22.5496Z" fill="#281612"/>
<path d="M79.6475 24.8272C79.6475 24.8272 79.9305 23.6321 79.5481 22.3014C79.1657 20.9706 78.2826 20.0781 78.2826 20.0781C78.2826 20.0781 78.0105 21.3116 78.382 22.6039C78.7535 23.8955 79.6475 24.8272 79.6475 24.8272Z" fill="#281612"/>
<path d="M75.6068 29.3097C75.6068 29.3097 75.4087 27.9455 74.5365 26.6424C73.6636 25.3392 72.4468 24.5918 72.4468 24.5918C72.4468 24.5918 72.6441 25.9559 73.517 27.2591C74.3892 28.5623 75.6068 29.3097 75.6068 29.3097Z" fill="#281612"/>
<path d="M69.0681 33.2024C69.0681 33.2024 69.243 32.3658 68.8207 31.6997C68.3984 31.0336 67.5378 30.7891 67.5378 30.7891C67.5378 30.7891 67.363 31.6257 67.7853 32.2918C68.2083 32.9586 69.0681 33.2024 69.0681 33.2024Z" fill="#281612"/>
<path d="M130.86 20.99C130.86 20.99 131.915 20.3188 132.636 19.2174C133.354 18.1145 133.515 16.918 133.515 16.918C133.515 16.918 132.357 17.4636 131.608 18.613C130.859 19.7609 130.86 20.99 130.86 20.99Z" fill="#281612"/>
<path d="M124.378 18.1822C124.378 18.1822 124.909 16.7477 124.677 15.0135C124.449 13.2794 123.56 12.0146 123.56 12.0146C123.56 12.0146 123.258 13.4811 123.478 15.1572C123.702 16.8326 124.378 18.1822 124.378 18.1822Z" fill="#281612"/>
<path d="M95.1611 18.581C95.1611 18.581 96.2271 17.7066 96.8605 16.3418C97.494 14.9777 97.454 13.6396 97.454 13.6396C97.454 13.6396 96.3881 14.514 95.7547 15.8781C95.1212 17.2437 95.1611 18.581 95.1611 18.581Z" fill="#281612"/>
<path d="M90.8736 18.5586C90.8736 18.5586 91.3742 17.6182 91.2501 16.5341C91.1261 15.4508 90.4251 14.6338 90.4251 14.6338C90.4251 14.6338 89.9245 15.5742 90.0486 16.6582C90.1727 17.7415 90.8736 18.5586 90.8736 18.5586Z" fill="#281612"/>
<path d="M60.3721 49.5783C60.3721 49.5783 61.0142 50.4606 62.0975 50.8974C63.1809 51.3342 64.2947 51.1594 64.2947 51.1594C64.2947 51.1594 63.6525 50.277 62.5692 49.8402C61.4859 49.4041 60.3721 49.5783 60.3721 49.5783Z" fill="#281612"/>
<path d="M58.6431 55.4158C58.6431 55.4158 59.9426 55.9223 61.5433 55.8381C63.144 55.7539 64.3768 55.1139 64.3768 55.1139C64.3768 55.1139 63.0424 54.6096 61.4765 54.6916C59.9107 54.7744 58.6431 55.4158 58.6431 55.4158Z" fill="#281612"/>
<path d="M73.6563 73.3775C69.0292 74.0835 64.4296 74.9383 59.8634 75.9403C58.9063 76.1508 58.7068 74.7112 59.658 74.5022C64.2242 73.4994 68.8238 72.6454 73.451 71.9394C74.4226 71.7914 74.6272 73.2295 73.6563 73.3775Z" fill="#281612"/>
<path d="M73.0103 76.0382C68.4137 76.8791 63.9788 78.3202 59.779 80.2807C58.8945 80.6936 58.2995 79.3563 59.179 78.9456C63.4992 76.9285 68.0784 75.4642 72.805 74.6C73.7715 74.423 73.9732 75.8618 73.0103 76.0382Z" fill="#281612"/>
<path d="M72.8027 78.6961C68.8656 79.8534 64.9749 81.1457 61.1365 82.5708C60.2215 82.9104 59.6193 81.576 60.5365 81.2357C64.3749 79.8106 68.2655 78.5183 72.2019 77.361C73.1336 77.0875 73.7409 78.4204 72.8027 78.6961Z" fill="#281612"/>
<path d="M34.1289 41.1155C38.9672 39.8551 43.1887 36.7786 45.8691 32.5578C45.9453 32.4388 44.0711 30.6066 43.9042 30.4289C43.746 30.2613 41.8428 28.4247 41.8965 28.3398C39.2161 32.5599 34.9938 35.6372 30.1562 36.8976C30.1737 36.8932 30.8049 37.6181 30.7229 37.5288C31.1859 38.031 31.6532 38.5287 32.1212 39.0258C32.5899 39.5228 33.0587 40.0191 33.5317 40.5111C33.6094 40.5923 34.0484 41.1365 34.1289 41.1155Z" fill="#A7AF5D"/>
<path d="M185.607 74.8449C188.922 71.1023 190.712 66.1951 190.586 61.1964C190.582 61.0549 188.005 60.5782 187.767 60.5245C187.542 60.4737 184.939 60.0086 184.936 59.9092C185.062 64.9071 183.272 69.8151 179.957 73.557C179.969 73.5432 180.897 73.7935 180.78 73.766C181.444 73.9249 182.109 74.078 182.775 74.2296C183.441 74.3813 184.107 74.5322 184.774 74.6766C184.884 74.7005 185.551 74.9073 185.607 74.8449Z" fill="#F9B65D"/>
<path d="M54.4604 6.5504C59.5919 6.94367 65.774 7.63879 68.9086 12.2884C68.8825 12.25 69.1364 11.3807 69.1161 11.4656C69.2743 10.8017 69.4267 10.1356 69.5776 9.46949C69.7285 8.80339 69.8787 8.13728 70.0224 7.46973C70.0536 7.32679 70.2626 6.74485 70.19 6.63746C67.0554 1.98782 60.8733 1.2927 55.7419 0.899429C55.6461 0.892173 55.1229 3.49634 55.0729 3.71837C55.0257 3.92952 54.504 6.55402 54.4604 6.5504Z" fill="#F9B65D"/>
<path d="M37.264 63.2943C39.1201 58.4937 41.5683 52.7745 46.9239 51.1144C46.8797 51.1282 46.1207 50.6348 46.1962 50.6783C45.6055 50.3351 45.012 49.9969 44.4184 49.661C43.8242 49.3243 43.2299 48.9884 42.632 48.6582C42.5036 48.5871 42.0066 48.2192 41.8839 48.2577C36.5283 49.9186 34.0801 55.6378 32.224 60.4376C32.1892 60.5276 34.5322 61.7792 34.7302 61.891C34.9175 61.9976 37.2793 63.2537 37.264 63.2943Z" fill="#E07C38"/>
<path d="M156.892 5.60839C155.659 8.33084 155.841 11.6171 157.483 14.1378C159.124 16.6578 162.056 18.1533 165.045 18.1257C165.202 18.1243 165.735 17.7665 165.797 17.7332C166.398 17.4088 166.997 17.0801 167.594 16.7493C168.191 16.4184 168.788 16.0875 169.383 15.7508C169.548 15.6572 169.943 15.3242 170.115 15.322C167.127 15.3496 164.195 13.8541 162.553 11.3341C160.912 8.81408 160.729 5.52714 161.963 2.80469C161.931 2.87507 161.172 3.21754 161.21 3.19723C160.609 3.52157 160.011 3.85026 159.414 4.18113C158.816 4.512 158.219 4.84288 157.625 5.17956C157.468 5.26808 156.962 5.45457 156.892 5.60839Z" fill="#A7AF5D"/>
<path d="M40.7331 88.9483C39.3777 86.2846 36.6966 84.3748 33.7028 84.0831C30.7097 83.7914 27.71 85.1476 25.8656 87.4985C25.7683 87.6219 25.7154 88.2611 25.7023 88.3315C25.5804 89.0034 25.4636 89.676 25.3482 90.3494C25.2336 91.0228 25.1189 91.6954 25.0108 92.3702C24.981 92.5574 24.9941 93.074 24.8882 93.2097C26.7327 90.8581 29.7323 89.5019 32.7254 89.7943C35.7185 90.086 38.3996 91.9958 39.7557 94.6595C39.7209 94.5905 39.927 93.7844 39.919 93.8265C40.0416 93.1546 40.1577 92.482 40.2731 91.8086C40.3877 91.1352 40.5024 90.4626 40.6097 89.7878C40.6388 89.6108 40.8093 89.0985 40.7331 88.9483Z" fill="#F9B65D"/>
<g filter="url(#filter0_d_942_21149)">
<path d="M13.7539 162.675C13.7539 162.675 52.0687 148.266 110.032 148.266C167.996 148.266 205.983 162.675 205.983 162.675L200.416 192.803C200.416 192.803 145.58 181.838 110.032 181.996C75.7536 182.148 22.9233 192.803 22.9233 192.803L13.7539 162.675Z" fill="#FFC300"/>
<path d="M70.4847 174.765L68.6657 161.224L74.3728 160.458C75.2694 160.337 76.054 160.392 76.7264 160.623C77.4093 160.839 77.9586 161.21 78.3744 161.734C78.8006 162.244 79.0675 162.899 79.1749 163.698C79.2579 164.316 79.1664 164.921 78.9004 165.512C78.6449 166.089 78.1772 166.602 77.4974 167.051L77.3436 165.906C78.0442 166.071 78.6136 166.315 79.0518 166.639C79.49 166.962 79.8188 167.343 80.0382 167.783C80.2575 168.222 80.4014 168.696 80.4698 169.205C80.6439 170.502 80.3505 171.577 79.5895 172.432C78.839 173.273 77.7064 173.795 76.1918 173.999L70.4847 174.765ZM72.6635 172.252L76.1532 171.783C76.7954 171.697 77.2807 171.453 77.6092 171.051C77.9481 170.635 78.0777 170.131 77.9979 169.537C77.9181 168.943 77.66 168.491 77.2234 168.179C76.7989 167.866 76.2656 167.753 75.6234 167.839L72.1337 168.308L72.6635 172.252ZM71.8432 166.145L75.2056 165.693C75.7145 165.625 76.1009 165.425 76.3648 165.094C76.627 164.75 76.7264 164.342 76.6629 163.869C76.5994 163.397 76.3975 163.042 76.0571 162.804C75.7168 162.566 75.2921 162.481 74.7832 162.549L71.4208 163.001L71.8432 166.145ZM87.053 172.645L86.3146 159.003L95.379 158.512L95.4979 160.71L88.9239 161.065L89.1132 164.563L95.321 164.227L95.4399 166.424L89.2322 166.76L89.4245 170.313L95.9984 169.957L96.1174 172.155L87.053 172.645ZM101.971 171.929L102.171 158.268L104.115 158.296L111.485 168.528L110.473 168.715L110.625 158.392L113.118 158.428L112.918 172.089L110.956 172.06L103.697 161.757L104.617 161.568L104.465 171.965L101.971 171.929ZM118.473 172.186L124.367 158.99L127.582 159.273L131.078 173.296L128.374 173.058L127.664 170.05L122.402 169.586L121.158 172.422L118.473 172.186ZM123.308 167.457L127.144 167.795L125.476 160.818L126.171 160.879L123.308 167.457ZM136.598 173.865L138.641 160.356L143.664 161.116C144.582 161.255 145.367 161.546 146.017 161.991C146.68 162.425 147.163 162.993 147.465 163.694C147.769 164.383 147.853 165.181 147.716 166.087C147.575 167.018 147.231 167.776 146.685 168.361C146.151 168.948 145.486 169.342 144.689 169.543L146.97 175.434L144.177 175.011L141.756 168.58L143.209 169.764L139.818 169.252L139.064 174.238L136.598 173.865ZM140.147 167.076L142.74 167.468C143.187 167.535 143.587 167.509 143.939 167.389C144.293 167.257 144.584 167.048 144.813 166.761C145.042 166.474 145.187 166.125 145.249 165.714C145.313 165.291 145.278 164.915 145.142 164.585C145.008 164.243 144.791 163.963 144.49 163.745C144.191 163.514 143.818 163.365 143.371 163.297L140.778 162.905L140.147 167.076Z" fill="white"/>
</g>
<defs>
<filter id="filter0_d_942_21149" x="10.4791" y="148.266" width="195.504" height="49.1218" filterUnits="userSpaceOnUse" color-interpolation-filters="sRGB">
<feFlood flood-opacity="0" result="BackgroundImageFix"/>
<feColorMatrix in="SourceAlpha" type="matrix" values="0 0 0 0 0 0 0 0 0 0 0 0 0 0 0 0 0 0 127 0" result="hardAlpha"/>
<feOffset dx="-1.96486" dy="3.27477"/>
<feGaussianBlur stdDeviation="0.654954"/>
<feComposite in2="hardAlpha" operator="out"/>
<feColorMatrix type="matrix" values="0 0 0 0 0.956863 0 0 0 0 0.6 0 0 0 0 0.14902 0 0 0 1 0"/>
<feBlend mode="normal" in2="BackgroundImageFix" result="effect1_dropShadow_942_21149"/>
<feBlend mode="normal" in="SourceGraphic" in2="effect1_dropShadow_942_21149" result="shape"/>
</filter>
<linearGradient id="paint0_linear_942_21149" x1="11.4937" y1="127.211" x2="207.916" y2="127.211" gradientUnits="userSpaceOnUse">
<stop offset="1" stop-color="#4981A8"/>
<stop stop-color="#1C6EA4"/>
</linearGradient>
<radialGradient id="paint1_radial_942_21149" cx="0" cy="0" r="1" gradientTransform="matrix(-14.4881 6.68705 5.89979 12.7813 154.372 85.5549)" gradientUnits="userSpaceOnUse">
<stop stop-color="#C36936" stop-opacity="0.7"/>
<stop offset="0.2745" stop-color="#C87340" stop-opacity="0.5078"/>
<stop offset="0.7363" stop-color="#D48D5A" stop-opacity="0.1846"/>
<stop offset="1" stop-color="#DD9F6C" stop-opacity="0"/>
</radialGradient>
<radialGradient id="paint2_radial_942_21149" cx="0" cy="0" r="1" gradientTransform="matrix(-20.0492 -5.26824 -3.57699 13.6156 91.6967 90.6107)" gradientUnits="userSpaceOnUse">
<stop stop-color="#C36936" stop-opacity="0.7"/>
<stop offset="0.2745" stop-color="#C87340" stop-opacity="0.5078"/>
<stop offset="0.7363" stop-color="#D48D5A" stop-opacity="0.1846"/>
<stop offset="1" stop-color="#DD9F6C" stop-opacity="0"/>
</radialGradient>
<radialGradient id="paint3_radial_942_21149" cx="0" cy="0" r="1" gradientTransform="matrix(5.49951 -0.260413 0.232335 4.8983 132.834 74.2905)" gradientUnits="userSpaceOnUse">
<stop offset="0.2645" stop-color="#C36936" stop-opacity="0.9"/>
<stop offset="0.4576" stop-color="#C56D3A" stop-opacity="0.6637"/>
<stop offset="0.6665" stop-color="#CB7A47" stop-opacity="0.4081"/>
<stop offset="0.8819" stop-color="#D6905D" stop-opacity="0.1446"/>
<stop offset="1" stop-color="#DD9F6C" stop-opacity="0"/>
</radialGradient>
<linearGradient id="paint4_linear_942_21149" x1="121.085" y1="93.3518" x2="121.676" y2="104.396" gradientUnits="userSpaceOnUse">
<stop offset="0.1438" stop-color="#DF5F37"/>
<stop offset="1" stop-color="#894027"/>
</linearGradient>
</defs>
</svg>
