<svg width="23" height="22" viewBox="0 0 23 22" fill="none" xmlns="http://www.w3.org/2000/svg">
<g clip-path="url(#clip0_65_16148)">
<path d="M8.16388 0.727512C5.96574 1.49007 4.07007 2.93742 2.7553 4.85698C1.44054 6.77655 0.775992 9.06713 0.859267 11.3923C0.942542 13.7175 1.76925 15.9546 3.21797 17.7752C4.66668 19.5958 6.66104 20.9038 8.9081 21.5072C10.7298 21.9773 12.6385 21.9979 14.47 21.5674C16.1291 21.1947 17.663 20.3975 18.9215 19.2539C20.2314 18.0273 21.1821 16.4669 21.6715 14.7405C22.2033 12.863 22.298 10.8887 21.9483 8.96892H11.7183V13.2125H17.6428C17.5244 13.8893 17.2706 14.5353 16.8968 15.1118C16.5229 15.6883 16.0365 16.1834 15.4669 16.5675C14.7435 17.0462 13.9279 17.3683 13.0726 17.5128C12.2149 17.6724 11.3351 17.6724 10.4773 17.5128C9.60789 17.3333 8.78545 16.9744 8.06247 16.4592C6.90086 15.637 6.02864 14.4688 5.57029 13.1214C5.10432 11.7488 5.10432 10.2608 5.57029 8.88814C5.89655 7.92601 6.43591 7.04999 7.1481 6.32548C7.96312 5.48114 8.99495 4.8776 10.1304 4.58108C11.2658 4.28456 12.461 4.30652 13.5848 4.64454C14.4628 4.91391 15.2656 5.38477 15.9292 6.01954C16.5972 5.35496 17.2641 4.68866 17.9298 4.02064C18.2736 3.66142 18.6483 3.31939 18.9869 2.95157C17.9737 2.00887 16.7845 1.27529 15.4875 0.792825C13.1254 -0.0648492 10.5409 -0.0878984 8.16388 0.727512Z" fill="white"/>
<path d="M8.1639 0.727615C10.5407 -0.0883497 13.1252 -0.0659073 15.4875 0.791209C16.7848 1.27695 17.9734 2.01407 18.9851 2.96027C18.6414 3.32808 18.2787 3.67183 17.9281 4.02933C17.2612 4.69506 16.5949 5.3585 15.9292 6.01965C15.2656 5.38487 14.4628 4.91401 13.5848 4.64465C12.4614 4.30544 11.2663 4.28221 10.1305 4.57752C8.99478 4.87282 7.96231 5.47525 7.1464 6.31871C6.4342 7.04322 5.89485 7.91924 5.56858 8.88136L2.00562 6.12277C3.28094 3.59374 5.48909 1.65922 8.1639 0.727615Z" fill="#E33629"/>
<path d="M1.06029 8.85537C1.25165 7.90623 1.5696 6.98708 2.0056 6.12256L5.56857 8.88803C5.1026 10.2607 5.1026 11.7487 5.56857 13.1213C4.38149 14.038 3.19383 14.9592 2.0056 15.8851C0.914453 13.7131 0.581672 11.2384 1.06029 8.85537Z" fill="#F8BD00"/>
<path d="M11.7183 8.96729H21.9483C22.298 10.887 22.2034 12.8614 21.6716 14.7388C21.1821 16.4653 20.2314 18.0257 18.9216 19.2523C17.7717 18.3551 16.6167 17.4648 15.4669 16.5676C16.037 16.1831 16.5235 15.6874 16.8974 15.1103C17.2713 14.5332 17.5249 13.8866 17.6428 13.2092H11.7183C11.7166 11.7963 11.7183 10.3818 11.7183 8.96729Z" fill="#587DBD"/>
<path d="M2.00391 15.8853C3.19214 14.9687 4.37979 14.0474 5.56687 13.1216C6.02614 14.4694 6.8996 15.6376 8.0625 16.4594C8.78773 16.9722 9.61194 17.3281 10.4825 17.5044C11.3402 17.6639 12.2201 17.6639 13.0778 17.5044C13.9331 17.3598 14.7487 17.0378 15.472 16.5591C16.6219 17.4563 17.7769 18.3466 18.9267 19.2438C17.6684 20.388 16.1345 21.1858 14.4752 21.5589C12.6437 21.9895 10.735 21.9688 8.91328 21.4988C7.47246 21.1141 6.12663 20.4359 4.96016 19.5067C3.72563 18.5264 2.71725 17.2911 2.00391 15.8853Z" fill="#319F43"/>
</g>
<defs>
<clipPath id="clip0_65_16148">
<rect width="22" height="22" fill="white" transform="translate(0.5 0.00390625)"/>
</clipPath>
</defs>
</svg>
