<svg width="412" height="316" viewBox="0 0 412 316" fill="none" xmlns="http://www.w3.org/2000/svg">
<path d="M375.953 217.972C361.821 201.13 348.345 185.069 325.643 174.566C291.608 158.818 266.338 157.292 243.316 155.903C219.461 154.462 198.018 153.168 171.735 136.347C142.685 117.755 130.955 100.143 118.899 82.0398C109.522 67.9598 99.9474 53.5829 81.8704 38.2179C48.4345 9.79697 13.6976 0 -27.6203 0H-165V338.801H1276.97V0H1139.59C1098.27 0 1063.54 9.79697 1030.1 38.2179C1012.02 53.5829 1002.45 67.9598 993.073 82.0398C981.013 100.142 969.283 117.755 940.233 136.347C913.953 153.168 892.513 154.462 868.653 155.903C845.634 157.292 820.365 158.818 786.33 174.566C763.628 185.069 750.152 201.13 736.02 217.972C707.07 252.474 675.371 290.253 555.986 290.253C436.602 290.253 404.903 252.474 375.953 217.972Z" fill="url(#paint0_linear_74_5024)" fill-opacity="0.5"/>
<defs>
<linearGradient id="paint0_linear_74_5024" x1="544.782" y1="-59.1421" x2="548.08" y2="143.366" gradientUnits="userSpaceOnUse">
<stop stop-color="#ECF2FF"/>
<stop offset="1" stop-color="#ECF2FF" stop-opacity="0"/>
</linearGradient>
</defs>
</svg>
