<svg width="128" height="129" viewBox="0 0 128 129" fill="none" xmlns="http://www.w3.org/2000/svg">
<path d="M64.0306 30.8164C61.361 27.5721 57.5782 25.0784 53.9778 22.9849C45.9331 18.3072 36.5471 14.9493 27.2936 13.7977C24.7427 13.4803 22.2151 13.2168 19.66 12.9748C18.2378 12.8402 16.487 12.5792 15.1685 13.2872C12.4617 14.7405 13.1169 18.2329 13.1169 20.7972C13.1168 21.4487 13.436 23.3374 12.874 23.7804C12.332 24.2076 10.8028 23.5304 10.1861 23.4282C7.67311 23.0116 4.15577 21.9331 2.60974 24.7574C2.08388 25.7181 2.17911 26.9613 2.18488 28.0219C2.19524 29.93 2.21163 31.8384 2.21163 33.7472V55.4895V78.0496C2.21163 80.5665 1.39469 84.7056 3.21464 86.7189C4.8787 88.5597 8.66649 88.6374 11.004 88.6903C15.6649 88.7958 20.7875 90.1516 25.2489 91.4613C26.6368 91.8688 28.0422 92.2366 29.4065 92.72C30.2289 93.0114 31.0947 93.4883 31.9963 93.3993C33.4524 93.2554 35.0497 91.0355 36.0036 90.0521C36.3486 89.6964 36.9324 89.2372 37.0733 88.7437C37.2331 88.1838 36.2549 87.7881 35.8883 87.567C34.4535 86.7018 32.9376 86.1313 31.3831 85.5305C26.3827 83.5979 21.066 82.8472 15.8432 81.8107C14.5003 81.5442 13.1108 81.3821 11.7537 81.2176C11.2582 81.1576 10.4678 81.3386 10.0796 80.9505C9.53496 80.4058 9.84529 78.6993 9.84529 77.9815V69.5981V41.7898V34.2243C9.84529 33.399 9.56516 31.8923 9.98426 31.1576C10.3604 30.4982 12.817 31.059 13.0151 31.7188C13.7032 34.0102 13.1169 37.2879 13.1169 39.6769V66.3947C13.1169 69.1144 12.0429 73.997 14.5318 75.8858C16.3184 77.2418 19.6882 77.1795 21.841 77.6061C25.1921 78.2701 28.5235 79.1413 31.792 80.1337C33.2732 80.5835 34.9762 80.9348 36.3563 81.6391C37.5027 82.2241 38.4671 83.1641 39.5078 83.9105C40.69 84.7584 42.884 85.7348 43.6162 87.019C43.9698 87.6391 42.932 88.3791 42.5609 88.7504C41.1246 90.1874 39.6187 91.5711 38.262 93.0854C35.6257 96.0278 34.7851 99.9126 35.3631 103.745C35.5544 105.013 36.1641 106.173 36.3586 107.426C37.1821 108.428 37.6694 109.667 38.5374 110.652C41.2948 113.778 45.0491 115.823 49.2404 116.19C53.0907 116.527 56.7486 115.463 59.9411 113.321C60.5896 112.885 62.7206 111.539 62.6549 110.638C62.6133 110.067 61.743 109.435 61.3713 109.061C60.1824 107.864 59.0104 106.652 57.8283 105.449H57.7601C55.3769 107.305 53.2828 108.87 50.1264 108.775C45.7752 108.643 41.5337 104.065 43.2395 99.6579C44.1899 97.2029 47.2876 95.0398 49.1363 93.2444C53.5918 88.9176 57.8969 84.2879 62.5993 80.2307C62.159 79.3667 61.2924 78.6639 60.617 77.9797C59.8736 77.2265 59.1077 76.4983 58.378 75.7311C58.1227 75.4627 57.7865 74.9249 57.3872 74.8721C56.708 74.7821 55.8305 76.0346 55.411 76.4549L51.6259 80.2307C51.1963 80.6603 50.5802 81.5548 49.9584 81.689C49.3742 81.8152 48.6952 80.8518 48.2758 80.5373C46.9302 79.5282 45.55 78.5596 44.2395 77.5054C43.7733 77.1303 42.9803 76.7229 43.1084 76.0109C43.3881 74.4554 44.5618 72.9396 45.6529 71.8676C48.6135 68.9586 52.9012 68.5333 56.4674 70.5873C58.1699 71.568 59.5613 73.2065 60.9484 74.5774C63.2012 76.804 65.47 79.014 67.7111 81.2532C69.189 82.7297 70.6613 84.208 72.1411 85.6826C72.5652 86.1051 73.268 87.0999 73.9428 86.6381C75.3098 85.7025 76.4664 84.1838 77.6615 83.0367C78.0225 82.6903 78.8068 82.1578 78.8016 81.5942C78.7954 80.8946 77.1787 79.7482 76.7077 79.2765C74.5893 77.1548 72.4449 75.0579 70.31 72.9527C64.9345 67.652 59.9257 61.4809 51.6941 61.5585C49.1456 61.5825 47.089 62.6784 44.6738 63.1231L39.9749 66.7402L36.6312 71.711C36.5937 72.2258 36.4442 73.3302 35.8416 73.4937C35.1215 73.689 33.5529 72.7699 32.8144 72.557C30.1878 71.8 27.5218 71.0544 24.84 70.5217C23.9131 70.3376 21.0715 70.312 20.7017 69.3016C20.4196 68.5305 20.6406 67.48 20.5957 66.6673C20.4525 64.074 20.6535 61.4677 20.5984 58.8698C20.4112 50.0483 20.6698 41.2116 20.552 32.384C20.5142 29.545 20.546 26.7036 20.546 23.8643C20.546 23.1078 20.2499 21.4081 20.8592 20.8367C21.2245 20.4942 21.9472 20.7626 22.3863 20.7861C23.8615 20.865 25.2872 21.2161 26.7484 21.3527C31.5628 21.8028 36.6619 23.5355 41.1296 25.3254C42.8028 25.9957 44.8959 26.5316 46.3096 27.6812C47.6594 28.0433 48.9367 28.9297 50.1225 29.6472C52.6458 31.1741 55.0253 32.8626 57.2746 34.7746C58.2808 35.63 60.054 36.9427 60.3045 38.3137C60.6181 40.0299 60.35 42.0222 60.35 43.7664V54.8079C60.35 55.9946 60.0938 57.5562 60.5039 58.687C60.8891 59.7487 62.9693 60.6162 64.0306 60.6286C65.4383 60.6451 67.2805 59.4307 67.7035 58.0784C68.0523 56.9639 67.8474 55.6228 67.8474 54.4671V47.3787C67.8474 45.3488 67.827 43.3187 67.8171 41.29C67.8117 40.1856 67.626 38.9033 68.0134 37.84C68.4578 36.6203 70.0418 35.4489 70.9803 34.5959C73.2337 32.5476 75.7558 30.7579 78.3847 29.2214C79.5118 28.5627 80.7521 27.7406 82.0241 27.4085C83.7449 26.0695 86.4475 25.3079 88.4991 24.6254C92.6719 23.2373 96.9878 21.7976 101.381 21.3341C102.843 21.1799 104.268 20.8584 105.743 20.7884C106.118 20.7706 106.852 20.4716 107.164 20.7575C107.726 21.2733 107.447 22.9721 107.447 23.6599V31.8388V59.1018L107.447 66.4628C107.447 67.2948 107.73 68.6907 107.283 69.4285C106.791 70.2402 104.95 70.1798 104.107 70.3598C101.156 70.9901 98.2726 71.7516 95.384 72.6221C94.6942 72.83 92.5919 73.9106 91.9783 73.5377C91.4171 73.1965 91.2723 71.7538 91.03 71.1657C90.3547 69.5267 89.359 68.0503 88.2089 66.7094C83.7029 61.4562 74.6096 59.9215 68.7108 63.6326C68.3482 63.8607 67.4832 64.2424 67.4342 64.7295C67.3791 65.2774 68.2082 65.8729 68.5476 66.2156C69.4582 67.1348 70.3693 68.0584 71.2643 68.9925C71.6725 69.4186 72.0903 70.0909 72.6487 70.329C73.3208 70.6156 74.5136 69.8057 75.2084 69.6635C76.9443 69.3081 78.6747 69.3419 80.3079 70.1198C83.8836 71.8231 86.0569 76.1551 84.0574 79.8217C83.0543 81.6611 81.1977 83.1119 79.7217 84.5657C77.1052 87.1426 74.5253 89.7601 71.935 92.3632C70.7898 93.5141 68.628 94.9419 67.9387 96.4103C67.6673 96.9883 68.4518 97.5822 68.7943 97.9477C69.7627 98.9814 70.7377 100.013 71.7349 101.019C72.0613 101.348 72.5164 101.96 73.0246 101.98C73.7878 102.01 74.8505 100.553 75.3458 100.062C77.3705 98.0545 79.3418 95.9907 81.3826 94C83.952 91.4938 86.9124 88.9618 89.1162 86.1288C89.8344 85.2056 90.4666 84.2628 91.0032 83.2229C91.3054 82.6372 91.4644 81.8663 92.0625 81.5025C93.3268 80.7335 95.1958 80.4325 96.6099 79.9874C100.549 78.7478 104.616 77.7857 108.674 77.0303C111.154 76.5686 114.416 76.5062 114.72 73.2785C115.035 69.9282 114.74 66.4217 114.74 63.055C114.74 55.8286 114.672 48.6042 114.672 41.3808L114.672 33.7472C114.672 32.9881 114.483 31.5951 115.365 31.2568C115.897 31.0524 117.54 30.5881 118.018 31.0247C118.475 31.442 118.216 32.9059 118.216 33.4746V40.6311V70.7568V78.2541C118.216 78.9262 118.494 80.4364 117.981 80.9507C117.41 81.5246 115.583 81.3958 114.808 81.4814C112.208 81.7688 109.615 82.4167 107.038 82.8666C99.599 84.1651 91.7637 86.8364 86.5632 92.5151C85.6703 93.4901 84.1313 94.5316 83.5491 95.7104C83.2436 96.3291 84.045 97.1617 84.3288 97.6825C85.011 98.9339 85.5274 100.32 85.412 101.768C85.1513 105.042 82.089 108.133 78.8207 108.424C75.1699 108.749 73.01 106.32 70.6951 103.881C67.8963 100.933 65.059 98.0186 62.2881 95.0434C61.0997 93.7675 59.8254 92.5758 58.6333 91.3041C58.2641 90.9103 57.684 90.0196 57.0762 90.0317C56.4617 90.0439 55.7576 90.9389 55.3529 91.34C54.0721 92.6092 52.793 93.9172 51.4213 95.089V95.2935C53.1036 96.5873 54.5426 98.2818 56.0291 99.7902C58.57 102.369 61.1567 104.902 63.6849 107.494C65.6622 109.521 67.4688 111.756 69.7865 113.416C73.3356 115.956 78.0693 116.698 82.2286 115.43C83.573 115.02 84.8244 114.47 85.9864 113.671C87.6009 112.562 89.0301 111.284 90.1623 109.676C92.0369 107.013 93.0964 103.87 93.0222 100.61C92.9954 99.427 92.9069 98.2157 92.6038 97.0666C92.4996 96.6718 92.1289 95.9782 92.4797 95.6262C92.9149 95.1894 93.7991 95.0349 94.3595 94.7981C95.9055 94.1448 97.4528 93.4605 99.0635 92.9821C104.495 91.369 109.985 89.7026 115.626 88.9925C118.376 88.6463 123.773 88.9546 125.245 86.0992C126.462 83.7374 125.781 79.9596 125.781 77.3681C125.781 70.7337 125.713 64.098 125.713 57.466V34.5651V28.3627C125.713 27.1314 125.847 25.8669 125.294 24.7255C123.91 21.8698 120.091 22.985 117.671 23.4436C117.023 23.5662 115.621 24.2139 115.03 23.7788C114.443 23.3471 114.815 21.5268 114.777 20.8654C114.621 18.1726 115.45 14.8619 112.627 13.2397C111.227 12.4353 109.692 12.8288 108.197 12.9658C105.458 13.2167 102.746 13.3868 100.018 13.8134C90.395 15.3181 80.9215 18.4035 72.7223 23.7676C69.5502 25.8428 67.0426 28.6016 64.0306 30.8164Z" fill="#F5F5F5"/>
</svg>
