<svg width="148" height="149" viewBox="0 0 148 149" fill="none" xmlns="http://www.w3.org/2000/svg">
<rect y="0.5" width="148" height="148" rx="35" fill="#F5F5F5"/>
<path d="M74.0306 40.8164C71.361 37.5721 67.5782 35.0784 63.9778 32.9849C55.9331 28.3072 46.5471 24.9493 37.2936 23.7977C34.7427 23.4803 32.2151 23.2168 29.66 22.9748C28.2378 22.8402 26.487 22.5792 25.1685 23.2872C22.4617 24.7405 23.1169 28.2329 23.1169 30.7972C23.1168 31.4487 23.436 33.3374 22.874 33.7804C22.332 34.2076 20.8028 33.5304 20.1861 33.4282C17.6731 33.0116 14.1558 31.9331 12.6097 34.7574C12.0839 35.7181 12.1791 36.9613 12.1849 38.0219C12.1952 39.93 12.2116 41.8384 12.2116 43.7472V65.4895V88.0496C12.2116 90.5665 11.3947 94.7056 13.2146 96.7189C14.8787 98.5597 18.6665 98.6374 21.004 98.6903C25.6649 98.7958 30.7875 100.152 35.2489 101.461C36.6368 101.869 38.0422 102.237 39.4065 102.72C40.2289 103.011 41.0947 103.488 41.9963 103.399C43.4524 103.255 45.0497 101.035 46.0036 100.052C46.3486 99.6964 46.9324 99.2372 47.0733 98.7437C47.2331 98.1838 46.2549 97.7881 45.8883 97.567C44.4535 96.7018 42.9376 96.1313 41.3831 95.5305C36.3827 93.5979 31.066 92.8472 25.8432 91.8107C24.5003 91.5442 23.1108 91.3821 21.7537 91.2176C21.2582 91.1576 20.4678 91.3386 20.0796 90.9505C19.535 90.4058 19.8453 88.6993 19.8453 87.9815V79.5981V51.7898V44.2243C19.8453 43.399 19.5652 41.8923 19.9843 41.1576C20.3604 40.4982 22.817 41.059 23.0151 41.7188C23.7032 44.0102 23.1169 47.2879 23.1169 49.6769V76.3947C23.1169 79.1144 22.0429 83.997 24.5318 85.8858C26.3184 87.2418 29.6882 87.1795 31.841 87.6061C35.1921 88.2701 38.5235 89.1413 41.792 90.1337C43.2732 90.5835 44.9762 90.9348 46.3563 91.6391C47.5027 92.2241 48.4671 93.1641 49.5078 93.9105C50.69 94.7584 52.884 95.7348 53.6162 97.019C53.9698 97.6391 52.932 98.3791 52.5609 98.7504C51.1246 100.187 49.6187 101.571 48.262 103.085C45.6257 106.028 44.7851 109.913 45.3631 113.745C45.5544 115.013 46.1641 116.173 46.3586 117.426C47.1821 118.428 47.6694 119.667 48.5374 120.652C51.2948 123.778 55.0491 125.823 59.2404 126.19C63.0907 126.527 66.7486 125.463 69.9411 123.321C70.5896 122.885 72.7206 121.539 72.6549 120.638C72.6133 120.067 71.743 119.435 71.3713 119.061C70.1824 117.864 69.0104 116.652 67.8283 115.449H67.7601C65.3769 117.305 63.2828 118.87 60.1264 118.775C55.7752 118.643 51.5337 114.065 53.2395 109.658C54.1899 107.203 57.2876 105.04 59.1363 103.244C63.5918 98.9176 67.8969 94.2879 72.5993 90.2307C72.159 89.3667 71.2924 88.6639 70.617 87.9797C69.8736 87.2265 69.1077 86.4983 68.378 85.7311C68.1227 85.4627 67.7865 84.9249 67.3872 84.8721C66.708 84.7821 65.8305 86.0346 65.411 86.4549L61.6259 90.2307C61.1963 90.6603 60.5802 91.5548 59.9584 91.689C59.3742 91.8152 58.6952 90.8518 58.2758 90.5373C56.9302 89.5282 55.55 88.5596 54.2395 87.5054C53.7733 87.1303 52.9803 86.7229 53.1084 86.0109C53.3881 84.4554 54.5618 82.9396 55.6529 81.8676C58.6135 78.9586 62.9012 78.5333 66.4674 80.5873C68.1699 81.568 69.5613 83.2065 70.9484 84.5774C73.2012 86.804 75.47 89.014 77.7111 91.2532C79.189 92.7297 80.6613 94.208 82.1411 95.6826C82.5652 96.1051 83.268 97.0999 83.9428 96.6381C85.3098 95.7025 86.4664 94.1838 87.6615 93.0367C88.0225 92.6903 88.8068 92.1578 88.8016 91.5942C88.7954 90.8946 87.1787 89.7482 86.7077 89.2765C84.5893 87.1548 82.4449 85.0579 80.31 82.9527C74.9345 77.652 69.9257 71.4809 61.6941 71.5585C59.1456 71.5825 57.089 72.6784 54.6738 73.1231L49.9749 76.7402L46.6312 81.711C46.5937 82.2258 46.4442 83.3302 45.8416 83.4937C45.1215 83.689 43.5529 82.7699 42.8144 82.557C40.1878 81.8 37.5218 81.0544 34.84 80.5217C33.9131 80.3376 31.0715 80.312 30.7017 79.3016C30.4196 78.5305 30.6406 77.48 30.5957 76.6673C30.4525 74.074 30.6535 71.4677 30.5984 68.8698C30.4112 60.0483 30.6698 51.2116 30.552 42.384C30.5142 39.545 30.546 36.7036 30.546 33.8643C30.546 33.1078 30.2499 31.4081 30.8592 30.8367C31.2245 30.4942 31.9472 30.7626 32.3863 30.7861C33.8615 30.865 35.2872 31.2161 36.7484 31.3527C41.5628 31.8028 46.6619 33.5355 51.1296 35.3254C52.8028 35.9957 54.8959 36.5316 56.3096 37.6812C57.6594 38.0433 58.9367 38.9297 60.1225 39.6472C62.6458 41.1741 65.0253 42.8626 67.2746 44.7746C68.2808 45.63 70.054 46.9427 70.3045 48.3137C70.6181 50.0299 70.35 52.0222 70.35 53.7664V64.8079C70.35 65.9946 70.0938 67.5562 70.5039 68.687C70.8891 69.7487 72.9693 70.6162 74.0306 70.6286C75.4383 70.6451 77.2805 69.4307 77.7035 68.0784C78.0523 66.9639 77.8474 65.6228 77.8474 64.4671V57.3787C77.8474 55.3488 77.827 53.3187 77.8171 51.29C77.8117 50.1856 77.626 48.9033 78.0134 47.84C78.4578 46.6203 80.0418 45.4489 80.9803 44.5959C83.2337 42.5476 85.7558 40.7579 88.3847 39.2214C89.5118 38.5627 90.7521 37.7406 92.0241 37.4085C93.7449 36.0695 96.4475 35.3079 98.4991 34.6254C102.672 33.2373 106.988 31.7976 111.381 31.3341C112.843 31.1799 114.268 30.8584 115.743 30.7884C116.118 30.7706 116.852 30.4716 117.164 30.7575C117.726 31.2733 117.447 32.9721 117.447 33.6599V41.8388V69.1018L117.447 76.4628C117.447 77.2948 117.73 78.6907 117.283 79.4285C116.791 80.2402 114.95 80.1798 114.107 80.3598C111.156 80.9901 108.273 81.7516 105.384 82.6221C104.694 82.83 102.592 83.9106 101.978 83.5377C101.417 83.1965 101.272 81.7538 101.03 81.1657C100.355 79.5267 99.359 78.0503 98.2089 76.7094C93.7029 71.4562 84.6096 69.9215 78.7108 73.6326C78.3482 73.8607 77.4832 74.2424 77.4342 74.7295C77.3791 75.2774 78.2082 75.8729 78.5476 76.2156C79.4582 77.1348 80.3693 78.0584 81.2643 78.9925C81.6725 79.4186 82.0903 80.0909 82.6487 80.329C83.3208 80.6156 84.5136 79.8057 85.2084 79.6635C86.9443 79.3081 88.6747 79.3419 90.3079 80.1198C93.8836 81.8231 96.0569 86.1551 94.0574 89.8217C93.0543 91.6611 91.1977 93.1119 89.7217 94.5657C87.1052 97.1426 84.5253 99.7601 81.935 102.363C80.7898 103.514 78.628 104.942 77.9387 106.41C77.6673 106.988 78.4518 107.582 78.7943 107.948C79.7627 108.981 80.7377 110.013 81.7349 111.019C82.0613 111.348 82.5164 111.96 83.0246 111.98C83.7878 112.01 84.8505 110.553 85.3458 110.062C87.3705 108.054 89.3418 105.991 91.3826 104C93.952 101.494 96.9124 98.9618 99.1162 96.1288C99.8344 95.2056 100.467 94.2628 101.003 93.2229C101.305 92.6372 101.464 91.8663 102.063 91.5025C103.327 90.7335 105.196 90.4325 106.61 89.9874C110.549 88.7478 114.616 87.7857 118.674 87.0303C121.154 86.5686 124.416 86.5062 124.72 83.2785C125.035 79.9282 124.74 76.4217 124.74 73.055C124.74 65.8286 124.672 58.6042 124.672 51.3808L124.672 43.7472C124.672 42.9881 124.483 41.5951 125.365 41.2568C125.897 41.0524 127.54 40.5881 128.018 41.0247C128.475 41.442 128.216 42.9059 128.216 43.4746V50.6311V80.7568V88.2541C128.216 88.9262 128.494 90.4364 127.981 90.9507C127.41 91.5246 125.583 91.3958 124.808 91.4814C122.208 91.7688 119.615 92.4167 117.038 92.8666C109.599 94.1651 101.764 96.8364 96.5632 102.515C95.6703 103.49 94.1313 104.532 93.5491 105.71C93.2436 106.329 94.045 107.162 94.3288 107.682C95.011 108.934 95.5274 110.32 95.412 111.768C95.1513 115.042 92.089 118.133 88.8207 118.424C85.1699 118.749 83.01 116.32 80.6951 113.881C77.8963 110.933 75.059 108.019 72.2881 105.043C71.0997 103.768 69.8254 102.576 68.6333 101.304C68.2641 100.91 67.684 100.02 67.0762 100.032C66.4617 100.044 65.7576 100.939 65.3529 101.34C64.0721 102.609 62.793 103.917 61.4213 105.089V105.294C63.1036 106.587 64.5426 108.282 66.0291 109.79C68.57 112.369 71.1567 114.902 73.6849 117.494C75.6622 119.521 77.4688 121.756 79.7865 123.416C83.3356 125.956 88.0693 126.698 92.2286 125.43C93.573 125.02 94.8244 124.47 95.9864 123.671C97.6009 122.562 99.0301 121.284 100.162 119.676C102.037 117.013 103.096 113.87 103.022 110.61C102.995 109.427 102.907 108.216 102.604 107.067C102.5 106.672 102.129 105.978 102.48 105.626C102.915 105.189 103.799 105.035 104.359 104.798C105.905 104.145 107.453 103.46 109.064 102.982C114.495 101.369 119.985 99.7026 125.626 98.9925C128.376 98.6463 133.773 98.9546 135.245 96.0992C136.462 93.7374 135.781 89.9596 135.781 87.3681C135.781 80.7337 135.713 74.098 135.713 67.466V44.5651V38.3627C135.713 37.1314 135.847 35.8669 135.294 34.7255C133.91 31.8698 130.091 32.985 127.671 33.4436C127.023 33.5662 125.621 34.2139 125.03 33.7788C124.443 33.3471 124.815 31.5268 124.777 30.8654C124.621 28.1726 125.45 24.8619 122.627 23.2397C121.227 22.4353 119.692 22.8288 118.197 22.9658C115.458 23.2167 112.746 23.3868 110.018 23.8134C100.395 25.3181 90.9215 28.4035 82.7223 33.7676C79.5502 35.8428 77.0426 38.6016 74.0306 40.8164Z" fill="#1C6EA4"/>
</svg>
