<svg width="372" height="129" viewBox="0 0 372 129" fill="none" xmlns="http://www.w3.org/2000/svg">
<g clip-path="url(#clip0_683_10607)">
<rect width="372" height="129" rx="12" fill="url(#paint0_linear_683_10607)"/>
<ellipse cx="313.5" cy="221.5" rx="192.5" ry="155.5" fill="url(#paint1_linear_683_10607)"/>
<path d="M185.07 -42.4276C191.491 -35.5178 197.614 -28.9281 207.929 -24.619C223.393 -18.1581 234.874 -17.532 245.334 -16.9622C256.173 -16.371 265.915 -15.8401 277.857 -8.93897C291.056 -1.31124 296.386 5.91442 301.863 13.3415C306.124 19.1181 310.474 25.0165 318.688 31.3203C333.879 42.9806 349.662 47 368.435 47H430.854V-92H-224.31V47H-161.892C-143.118 47 -127.338 42.9806 -112.145 31.3203C-103.93 25.0165 -99.5818 19.1181 -95.32 13.3415C-89.8405 5.91483 -84.511 -1.31124 -71.3121 -8.93897C-59.3717 -15.8401 -49.6304 -16.371 -38.7895 -16.9622C-28.3303 -17.532 -16.8493 -18.1581 -1.3855 -24.619C8.92919 -28.9281 15.052 -35.5178 21.4729 -42.4276C34.6264 -56.5827 49.0289 -72.0823 103.272 -72.0823C157.514 -72.0823 171.917 -56.5827 185.07 -42.4276Z" fill="url(#paint2_linear_683_10607)"/>
<path d="M355.07 -12.4276C361.491 -5.51784 367.614 1.07191 377.929 5.38097C393.393 11.8419 404.874 12.468 415.334 13.0378C426.173 13.629 435.915 14.1599 447.857 21.061C461.056 28.6888 466.386 35.9144 471.863 43.3415C476.124 49.1181 480.474 55.0165 488.688 61.3203C503.879 72.9806 519.662 77 538.435 77H600.854V-62H-54.3104V77H8.10846C26.8823 77 42.6619 72.9806 57.8554 61.3203C66.0701 55.0165 70.4182 49.1181 74.68 43.3415C80.1595 35.9148 85.489 28.6888 98.6879 21.061C110.628 14.1599 120.37 13.629 131.21 13.0378C141.67 12.468 153.151 11.8419 168.615 5.38097C178.929 1.07191 185.052 -5.51784 191.473 -12.4276C204.626 -26.5827 219.029 -42.0823 273.272 -42.0823C327.514 -42.0823 341.917 -26.5827 355.07 -12.4276Z" fill="url(#paint3_linear_683_10607)"/>
</g>
<defs>
<linearGradient id="paint0_linear_683_10607" x1="0" y1="64.5" x2="372" y2="64.5" gradientUnits="userSpaceOnUse">
<stop offset="1" stop-color="#4981A8"/>
<stop stop-color="#1C6EA4"/>
</linearGradient>
<linearGradient id="paint1_linear_683_10607" x1="121" y1="221.5" x2="506" y2="221.5" gradientUnits="userSpaceOnUse">
<stop offset="1" stop-color="#0F4A73"/>
<stop stop-color="#1C6EA4"/>
</linearGradient>
<linearGradient id="paint2_linear_683_10607" x1="430.854" y1="-22.5" x2="-224.31" y2="-22.5" gradientUnits="userSpaceOnUse">
<stop offset="1" stop-color="#0F4A73"/>
<stop stop-color="#1C6EA4"/>
</linearGradient>
<linearGradient id="paint3_linear_683_10607" x1="600.854" y1="7.5" x2="-54.3104" y2="7.5" gradientUnits="userSpaceOnUse">
<stop stop-color="#1C6EA4"/>
<stop offset="1" stop-color="#0F4A73" stop-opacity="0.4"/>
</linearGradient>
<clipPath id="clip0_683_10607">
<rect width="372" height="129" rx="12" fill="white"/>
</clipPath>
</defs>
</svg>
