<svg width="372" height="129" viewBox="0 0 372 129" fill="none" xmlns="http://www.w3.org/2000/svg">
<g clip-path="url(#clip0_676_10463)">
<rect width="372" height="129" rx="12" fill="url(#paint0_linear_676_10463)"/>
<ellipse cx="353.5" cy="71.5" rx="192.5" ry="155.5" fill="url(#paint1_linear_676_10463)"/>
<path d="M185.07 -42.4276C191.491 -35.5178 197.614 -28.9281 207.929 -24.619C223.393 -18.1581 234.874 -17.532 245.334 -16.9622C256.173 -16.371 265.915 -15.8401 277.857 -8.93897C291.056 -1.31124 296.386 5.91442 301.863 13.3415C306.124 19.1181 310.474 25.0165 318.688 31.3203C333.879 42.9806 349.662 47 368.435 47H430.854V-92H-224.31V47H-161.892C-143.118 47 -127.338 42.9806 -112.145 31.3203C-103.93 25.0165 -99.5818 19.1181 -95.32 13.3415C-89.8405 5.91483 -84.511 -1.31124 -71.3121 -8.93897C-59.3717 -15.8401 -49.6304 -16.371 -38.7895 -16.9622C-28.3303 -17.532 -16.8493 -18.1581 -1.3855 -24.619C8.92919 -28.9281 15.052 -35.5178 21.4729 -42.4276C34.6264 -56.5827 49.0289 -72.0823 103.272 -72.0823C157.514 -72.0823 171.917 -56.5827 185.07 -42.4276Z" fill="url(#paint2_linear_676_10463)"/>
<path d="M171.941 178.428C165.521 171.518 159.398 164.928 149.083 160.619C133.619 154.158 122.138 153.532 111.678 152.962C100.839 152.371 91.0965 151.84 79.1548 144.939C65.9558 137.311 60.6263 130.086 55.1486 122.658C50.8882 116.882 46.5377 110.983 38.3244 104.68C23.1328 93.0194 7.34993 89 -11.423 89L-73.8418 89L-73.8418 228L581.322 228L581.322 89.0001L518.903 89.0001C500.13 89.0001 484.35 93.0195 469.157 104.68C460.942 110.984 456.594 116.882 452.332 122.659C446.852 130.085 441.523 137.311 428.324 144.939C416.384 151.84 406.642 152.371 395.801 152.962C385.342 153.532 373.861 154.158 358.397 160.619C348.083 164.928 341.96 171.518 335.539 178.428C322.386 192.583 307.983 208.082 253.74 208.082C199.497 208.082 185.095 192.583 171.941 178.428Z" fill="url(#paint3_linear_676_10463)"/>
</g>
<defs>
<linearGradient id="paint0_linear_676_10463" x1="0" y1="64.5" x2="372" y2="64.5" gradientUnits="userSpaceOnUse">
<stop offset="1" stop-color="#4981A8"/>
<stop stop-color="#1C6EA4"/>
</linearGradient>
<linearGradient id="paint1_linear_676_10463" x1="161" y1="71.5" x2="546" y2="71.5" gradientUnits="userSpaceOnUse">
<stop offset="1" stop-color="#0F4A73"/>
<stop stop-color="#1C6EA4"/>
</linearGradient>
<linearGradient id="paint2_linear_676_10463" x1="430.854" y1="-22.5" x2="-224.31" y2="-22.5" gradientUnits="userSpaceOnUse">
<stop offset="1" stop-color="#0F4A73"/>
<stop stop-color="#1C6EA4"/>
</linearGradient>
<linearGradient id="paint3_linear_676_10463" x1="-73.8418" y1="158.5" x2="581.322" y2="158.5" gradientUnits="userSpaceOnUse">
<stop offset="1" stop-color="#0F4A73"/>
<stop stop-color="#1C6EA4"/>
</linearGradient>
<clipPath id="clip0_676_10463">
<rect width="372" height="129" rx="12" fill="white"/>
</clipPath>
</defs>
</svg>
