<svg width="372" height="111" viewBox="0 0 372 111" fill="none" xmlns="http://www.w3.org/2000/svg">
<rect width="372" height="111" rx="20" fill="url(#paint0_linear_693_11233)"/>
<mask id="mask0_693_11233" style="mask-type:alpha" maskUnits="userSpaceOnUse" x="0" y="0" width="372" height="111">
<rect width="372" height="111" rx="20" fill="#FA8F47"/>
</mask>
<g mask="url(#mask0_693_11233)">
<path d="M323.141 15.7822C343.591 15.7823 362.085 21.8317 375.454 31.5879C388.824 41.3445 397.04 54.7821 397.04 69.5762C397.04 84.3701 388.824 97.8069 375.454 107.563C362.085 117.32 343.591 123.369 323.141 123.369C302.691 123.369 284.196 117.32 270.826 107.563C257.457 97.8069 249.241 84.3701 249.24 69.5762C249.24 54.7821 257.457 41.3445 270.826 31.5879C284.196 21.8316 302.691 15.7822 323.141 15.7822Z" fill="#F69B3A" stroke="#F69B3A"/>
<path d="M318.144 10.1523C339.976 10.1524 359.72 16.5183 373.993 26.7852C388.268 37.0526 397.04 51.1926 397.04 66.7607C397.04 82.329 388.268 96.4698 373.993 106.737C359.72 117.004 339.975 123.37 318.144 123.37C296.312 123.37 276.567 117.004 262.293 106.737C248.019 96.4698 239.246 82.329 239.246 66.7607C239.246 51.1926 248.019 37.0526 262.293 26.7852C276.567 16.5182 296.312 10.1523 318.144 10.1523Z" stroke="#F69B3A"/>
<ellipse cx="325.361" cy="80.0326" rx="64.406" ry="43.0326" fill="#F68D1D"/>
<path fill-rule="evenodd" clip-rule="evenodd" d="M368.669 7.73497L351.318 6.32214C333.967 4.90931 299.266 2.08365 264.564 4.90931C229.863 7.73498 195.161 10.0079 160.46 14.2464C125.758 18.4849 88.4757 19.1914 53.7742 14.2465C19.0727 9.3016 -13.0477 4.90933 -30.3984 -0.0355821L-47.7492 -4.9805L-47.7492 -17.696L-30.3984 -17.696C-13.0477 -17.696 21.6538 -17.696 56.3552 -17.696C91.0567 -17.696 125.758 -17.696 160.46 -17.696C195.161 -17.696 229.863 -17.696 264.564 -17.696C299.266 -17.696 333.967 -17.696 351.318 -17.696L368.669 -17.696L368.669 7.73497Z" fill="#FFF9CD"/>
</g>
<defs>
<linearGradient id="paint0_linear_693_11233" x1="0" y1="126.685" x2="0" y2="0.0516429" gradientUnits="userSpaceOnUse">
<stop stop-color="#F89047"/>
<stop offset="0.99" stop-color="#FFF07B"/>
</linearGradient>
</defs>
</svg>
