<svg width="48" height="53" viewBox="0 0 48 53" fill="none" xmlns="http://www.w3.org/2000/svg">
<rect x="2" width="43" height="43" rx="21.5" fill="#FDEFB6"/>
<g filter="url(#filter0_d_498_5699)">
<path d="M6.61871 18.4191L7.67929 15.2354L10.2658 17.3733L13.6213 17.3982L12.3874 20.5187L13.4007 23.7177L10.0515 23.5084L7.32221 25.4607L6.4863 22.2108L3.78621 20.2183L6.61871 18.4191Z" fill="white"/>
<path d="M7.55699 14.8072C7.69773 14.767 7.84939 14.799 7.96231 14.8922L10.4257 16.9288L13.6248 16.9532C13.7713 16.9543 13.9078 17.0278 13.9898 17.1492C14.0719 17.2709 14.089 17.4255 14.035 17.5619L12.8589 20.5355L13.8244 23.5837C13.8686 23.7236 13.8417 23.8762 13.7514 23.9917C13.6611 24.1074 13.5188 24.1705 13.3723 24.1614L10.1811 23.962L7.58131 25.8219C7.46197 25.9073 7.30782 25.9291 7.16995 25.8789C7.03217 25.8288 6.92845 25.7136 6.89185 25.5716L6.09438 22.4752L3.52216 20.5765C3.4041 20.4893 3.33666 20.3491 3.34178 20.2025C3.34699 20.0561 3.4238 19.9214 3.54748 19.8428L6.24651 18.1271L7.25733 15.0943L7.30351 14.9967C7.36119 14.9059 7.45123 14.8376 7.55699 14.8072Z" stroke="white" stroke-width="0.889695" stroke-linejoin="round"/>
</g>
<path d="M6.61871 18.4191L7.67929 15.2354L10.2658 17.3733L13.6213 17.3982L12.3874 20.5187L13.4007 23.7177L10.0515 23.5084L7.32221 25.4607L6.4863 22.2108L3.78621 20.2183L6.61871 18.4191Z" fill="url(#paint0_linear_498_5699)"/>
<path opacity="0.4" d="M9.16198 20.4064L7.67932 15.2358L6.58401 18.3898L9.16198 20.4064Z" fill="url(#paint1_linear_498_5699)"/>
<path opacity="0.8" d="M9.16168 20.4059L6.5837 18.3893L3.78594 20.2182L9.16168 20.4059Z" fill="url(#paint2_linear_498_5699)"/>
<path opacity="0.5" d="M9.16203 20.4059L6.44924 22.2371L7.3223 25.4605L9.16203 20.4059Z" fill="url(#paint3_linear_498_5699)"/>
<path opacity="0.4" d="M13.4006 23.7179L12.4329 20.5217L9.16187 20.4062L13.4006 23.7179Z" fill="url(#paint4_linear_498_5699)"/>
<path d="M12.4328 20.5209L13.6212 17.3975L9.16178 20.4054L12.4328 20.5209Z" fill="#FEBA1B"/>
<path opacity="0.6" d="M13.621 17.398L10.2792 17.3295L9.16159 20.4059L13.621 17.398Z" fill="url(#paint5_linear_498_5699)"/>
<g filter="url(#filter1_d_498_5699)">
<path d="M40.3813 18.4191L39.3207 15.2354L36.7342 17.3733L33.3787 17.3982L34.6126 20.5187L33.5993 23.7177L36.9485 23.5084L39.6778 25.4607L40.5137 22.2108L43.2138 20.2183L40.3813 18.4191Z" fill="white"/>
<path d="M39.443 14.8072C39.3023 14.767 39.1506 14.799 39.0377 14.8922L36.5743 16.9288L33.3752 16.9532C33.2287 16.9543 33.0922 17.0278 33.0102 17.1492C32.9281 17.2709 32.911 17.4255 32.965 17.5619L34.1411 20.5355L33.1756 23.5837C33.1314 23.7236 33.1583 23.8762 33.2486 23.9917C33.3389 24.1074 33.4812 24.1705 33.6277 24.1614L36.8189 23.962L39.4187 25.8219C39.538 25.9073 39.6922 25.9291 39.8301 25.8789C39.9678 25.8288 40.0715 25.7136 40.1082 25.5716L40.9056 22.4752L43.4778 20.5765C43.5959 20.4893 43.6633 20.3491 43.6582 20.2025C43.653 20.0561 43.5762 19.9214 43.4525 19.8428L40.7535 18.1271L39.7427 15.0943L39.6965 14.9967C39.6388 14.9059 39.5488 14.8376 39.443 14.8072Z" stroke="white" stroke-width="0.889695" stroke-linejoin="round"/>
</g>
<path d="M40.3813 18.4191L39.3207 15.2354L36.7342 17.3733L33.3787 17.3982L34.6126 20.5187L33.5993 23.7177L36.9485 23.5084L39.6778 25.4607L40.5137 22.2108L43.2138 20.2183L40.3813 18.4191Z" fill="url(#paint6_linear_498_5699)"/>
<path opacity="0.4" d="M37.8383 20.4064L39.3209 15.2358L40.4162 18.3898L37.8383 20.4064Z" fill="url(#paint7_linear_498_5699)"/>
<path opacity="0.8" d="M37.8383 20.4059L40.4163 18.3893L43.2141 20.2182L37.8383 20.4059Z" fill="url(#paint8_linear_498_5699)"/>
<path opacity="0.5" d="M37.8382 20.4059L40.551 22.2371L39.6779 25.4605L37.8382 20.4059Z" fill="url(#paint9_linear_498_5699)"/>
<path opacity="0.4" d="M33.5997 23.7179L34.5674 20.5217L37.8384 20.4062L33.5997 23.7179Z" fill="url(#paint10_linear_498_5699)"/>
<path d="M34.5672 20.5209L33.3788 17.3975L37.8382 20.4054L34.5672 20.5209Z" fill="#FEBA1B"/>
<path opacity="0.6" d="M33.379 17.398L36.7208 17.3295L37.8384 20.4059L33.379 17.398Z" fill="url(#paint11_linear_498_5699)"/>
<g filter="url(#filter2_d_498_5699)">
<path d="M16.8882 17.357L23.5983 11L30.3085 17.357H26.0705V23.7139H21.1262V17.357H16.8882Z" fill="white"/>
<path d="M23.2212 10.4023C23.4891 10.233 23.8461 10.2615 24.0845 10.4873L30.7944 16.8438C31.0043 17.0426 31.0713 17.3496 30.9644 17.6182C30.8573 17.8868 30.5973 18.0635 30.3081 18.0635H26.7769V23.7139C26.7769 24.1039 26.4607 24.4197 26.0708 24.4199H21.1265C20.7364 24.4199 20.4194 24.104 20.4194 23.7139V18.0635H16.8882C16.599 18.0635 16.339 17.8868 16.2319 17.6182C16.125 17.3496 16.193 17.0426 16.4028 16.8438L23.1128 10.4873L23.2212 10.4023Z" stroke="white" stroke-width="1.41266" stroke-linecap="round" stroke-linejoin="round"/>
</g>
<path d="M16.8882 17.357L23.5983 11L30.3085 17.357H26.0705V23.7139H21.1262V17.357H16.8882Z" fill="url(#paint12_linear_498_5699)"/>
<path d="M26.0705 17.357H30.3085L23.5984 11L26.0705 17.357Z" fill="#FDAC13"/>
<path opacity="0.8" d="M21.1262 17.357L23.5983 11L16.8882 17.357H21.1262Z" fill="url(#paint13_linear_498_5699)"/>
<path opacity="0.4" d="M21.1262 17.357H26.0705L23.5984 11L21.1262 17.357Z" fill="url(#paint14_linear_498_5699)"/>
<rect y="32" width="47.193" height="16.4912" rx="8.24561" fill="#E8F1F6"/>
<path d="M7.23135 43.7461V37.6031H8.20433V42.8803H10.8594V43.7461H7.23135ZM13.6799 43.845C13.2347 43.845 12.8389 43.7433 12.4926 43.54C12.1517 43.3311 11.8851 43.0507 11.6927 42.6989C11.5003 42.3416 11.4041 41.9431 11.4041 41.5033C11.4041 41.0525 11.5003 40.654 11.6927 40.3077C11.8906 39.9614 12.1545 39.6893 12.4843 39.4914C12.8141 39.288 13.1879 39.1863 13.6057 39.1863C13.941 39.1863 14.2406 39.244 14.5045 39.3594C14.7684 39.4749 14.991 39.6343 15.1724 39.8377C15.3538 40.0356 15.4912 40.2637 15.5847 40.5221C15.6836 40.7804 15.7331 41.0553 15.7331 41.3466C15.7331 41.4181 15.7303 41.4923 15.7248 41.5693C15.7193 41.6462 15.7084 41.7177 15.6919 41.7836H12.138V41.0415H15.1641L14.7189 41.3796C14.7739 41.1102 14.7546 40.8711 14.6612 40.6622C14.5732 40.4478 14.4358 40.2802 14.2489 40.1593C14.0675 40.0328 13.8531 39.9696 13.6057 39.9696C13.3584 39.9696 13.1385 40.0328 12.9461 40.1593C12.7537 40.2802 12.6053 40.4561 12.5008 40.687C12.3964 40.9124 12.3551 41.1872 12.3771 41.5115C12.3496 41.8139 12.3909 42.0777 12.5008 42.3031C12.6162 42.5285 12.7757 42.7044 12.9791 42.8308C13.1879 42.9573 13.4243 43.0205 13.6882 43.0205C13.9575 43.0205 14.1857 42.96 14.3726 42.8391C14.565 42.7181 14.7161 42.5615 14.8261 42.3691L15.5847 42.7401C15.4967 42.949 15.3593 43.1387 15.1724 43.3091C14.991 43.474 14.7711 43.6059 14.5127 43.7049C14.2599 43.7983 13.9823 43.845 13.6799 43.845ZM17.8565 43.7461L16.1084 39.2852H17.1226L18.4666 42.9215H18.0956L19.4396 39.2852H20.4621L18.7058 43.7461H17.8565ZM23.1092 43.845C22.664 43.845 22.2682 43.7433 21.9219 43.54C21.5811 43.3311 21.3144 43.0507 21.122 42.6989C20.9297 42.3416 20.8335 41.9431 20.8335 41.5033C20.8335 41.0525 20.9297 40.654 21.122 40.3077C21.3199 39.9614 21.5838 39.6893 21.9136 39.4914C22.2435 39.288 22.6173 39.1863 23.035 39.1863C23.3704 39.1863 23.6699 39.244 23.9338 39.3594C24.1977 39.4749 24.4203 39.6343 24.6017 39.8377C24.7831 40.0356 24.9205 40.2637 25.014 40.5221C25.1129 40.7804 25.1624 41.0553 25.1624 41.3466C25.1624 41.4181 25.1597 41.4923 25.1542 41.5693C25.1487 41.6462 25.1377 41.7177 25.1212 41.7836H21.5673V41.0415H24.5935L24.1482 41.3796C24.2032 41.1102 24.1839 40.8711 24.0905 40.6622C24.0025 40.4478 23.8651 40.2802 23.6782 40.1593C23.4968 40.0328 23.2824 39.9696 23.035 39.9696C22.7877 39.9696 22.5678 40.0328 22.3754 40.1593C22.183 40.2802 22.0346 40.4561 21.9301 40.687C21.8257 40.9124 21.7844 41.1872 21.8064 41.5115C21.7789 41.8139 21.8202 42.0777 21.9301 42.3031C22.0456 42.5285 22.205 42.7044 22.4084 42.8308C22.6173 42.9573 22.8536 43.0205 23.1175 43.0205C23.3868 43.0205 23.615 42.96 23.8019 42.8391C23.9943 42.7181 24.1454 42.5615 24.2554 42.3691L25.014 42.7401C24.926 42.949 24.7886 43.1387 24.6017 43.3091C24.4203 43.474 24.2004 43.6059 23.942 43.7049C23.6892 43.7983 23.4116 43.845 23.1092 43.845ZM26.0717 43.7461V37.5042H27.0035V43.7461H26.0717ZM31.9255 43.845C31.4692 43.845 31.0624 43.7488 30.7051 43.5564C30.3533 43.364 30.0757 43.1002 29.8723 42.7649C29.6744 42.4295 29.5755 42.0475 29.5755 41.6187V37.6031H30.5485V41.5775C30.5485 41.8469 30.6062 42.086 30.7216 42.2949C30.8426 42.5038 31.0047 42.6659 31.2081 42.7814C31.417 42.8968 31.6561 42.9545 31.9255 42.9545C32.2003 42.9545 32.4395 42.8968 32.6428 42.7814C32.8517 42.6659 33.0139 42.5038 33.1293 42.2949C33.2503 42.086 33.3107 41.8469 33.3107 41.5775V37.6031H34.2755V41.6187C34.2755 42.0475 34.1765 42.4295 33.9786 42.7649C33.7807 43.1002 33.5031 43.364 33.1458 43.5564C32.794 43.7488 32.3872 43.845 31.9255 43.845ZM35.4044 45.3952V39.2852H36.2949V40.2087L36.1878 39.9943C36.3527 39.7415 36.5725 39.5436 36.8474 39.4007C37.1223 39.2577 37.4356 39.1863 37.7874 39.1863C38.2107 39.1863 38.59 39.288 38.9253 39.4914C39.2661 39.6947 39.5327 39.9724 39.7251 40.3242C39.923 40.676 40.022 41.0718 40.022 41.5115C40.022 41.9513 39.923 42.3471 39.7251 42.6989C39.5327 43.0507 39.2689 43.3311 38.9335 43.54C38.5982 43.7433 38.2162 43.845 37.7874 43.845C37.4411 43.845 37.125 43.7736 36.8392 43.6307C36.5588 43.4877 36.3417 43.2816 36.1878 43.0122L36.3362 42.8391V45.3952H35.4044ZM37.6967 42.9793C37.9606 42.9793 38.1942 42.916 38.3976 42.7896C38.601 42.6632 38.7604 42.49 38.8758 42.2701C38.9968 42.0447 39.0572 41.7919 39.0572 41.5115C39.0572 41.2312 38.9968 40.9811 38.8758 40.7612C38.7604 40.5413 38.601 40.3681 38.3976 40.2417C38.1942 40.1153 37.9606 40.0521 37.6967 40.0521C37.4383 40.0521 37.2047 40.1153 36.9958 40.2417C36.7924 40.3681 36.6303 40.5413 36.5093 40.7612C36.3939 40.9811 36.3362 41.2312 36.3362 41.5115C36.3362 41.7919 36.3939 42.0447 36.5093 42.2701C36.6303 42.49 36.7924 42.6632 36.9958 42.7896C37.2047 42.916 37.4383 42.9793 37.6967 42.9793Z" fill="#1C6EA4"/>
<defs>
<filter id="filter0_d_498_5699" x="1.49625" y="13.6456" width="14.415" height="14.8053" filterUnits="userSpaceOnUse" color-interpolation-filters="sRGB">
<feFlood flood-opacity="0" result="BackgroundImageFix"/>
<feColorMatrix in="SourceAlpha" type="matrix" values="0 0 0 0 0 0 0 0 0 0 0 0 0 0 0 0 0 0 127 0" result="hardAlpha"/>
<feOffset dy="0.700115"/>
<feGaussianBlur stdDeviation="0.700115"/>
<feColorMatrix type="matrix" values="0 0 0 0 0.996078 0 0 0 0 0.733333 0 0 0 0 0.105882 0 0 0 1 0"/>
<feBlend mode="normal" in2="BackgroundImageFix" result="effect1_dropShadow_498_5699"/>
<feBlend mode="normal" in="SourceGraphic" in2="effect1_dropShadow_498_5699" result="shape"/>
</filter>
<filter id="filter1_d_498_5699" x="31.0888" y="13.6456" width="14.415" height="14.8053" filterUnits="userSpaceOnUse" color-interpolation-filters="sRGB">
<feFlood flood-opacity="0" result="BackgroundImageFix"/>
<feColorMatrix in="SourceAlpha" type="matrix" values="0 0 0 0 0 0 0 0 0 0 0 0 0 0 0 0 0 0 127 0" result="hardAlpha"/>
<feOffset dy="0.700115"/>
<feGaussianBlur stdDeviation="0.700115"/>
<feColorMatrix type="matrix" values="0 0 0 0 0.996078 0 0 0 0 0.733333 0 0 0 0 0.105882 0 0 0 1 0"/>
<feBlend mode="normal" in2="BackgroundImageFix" result="effect1_dropShadow_498_5699"/>
<feBlend mode="normal" in="SourceGraphic" in2="effect1_dropShadow_498_5699" result="shape"/>
</filter>
<filter id="filter2_d_498_5699" x="13.3566" y="8.17425" width="20.4836" height="19.778" filterUnits="userSpaceOnUse" color-interpolation-filters="sRGB">
<feFlood flood-opacity="0" result="BackgroundImageFix"/>
<feColorMatrix in="SourceAlpha" type="matrix" values="0 0 0 0 0 0 0 0 0 0 0 0 0 0 0 0 0 0 127 0" result="hardAlpha"/>
<feOffset dy="0.70633"/>
<feGaussianBlur stdDeviation="1.05949"/>
<feComposite in2="hardAlpha" operator="out"/>
<feColorMatrix type="matrix" values="0 0 0 0 0.996078 0 0 0 0 0.733333 0 0 0 0 0.105882 0 0 0 1 0"/>
<feBlend mode="normal" in2="BackgroundImageFix" result="effect1_dropShadow_498_5699"/>
<feBlend mode="normal" in="SourceGraphic" in2="effect1_dropShadow_498_5699" result="shape"/>
</filter>
<linearGradient id="paint0_linear_498_5699" x1="2.50862" y1="16.7181" x2="5.47393" y2="27.0594" gradientUnits="userSpaceOnUse">
<stop stop-color="#FCA50E"/>
<stop offset="1" stop-color="#FFC823"/>
</linearGradient>
<linearGradient id="paint1_linear_498_5699" x1="5.46088" y1="14.473" x2="3.02994" y2="17.535" gradientUnits="userSpaceOnUse">
<stop stop-color="#FFEC36" stop-opacity="0.467505"/>
<stop offset="1" stop-color="#FFF7AB"/>
</linearGradient>
<linearGradient id="paint2_linear_498_5699" x1="3.72525" y1="19.8892" x2="7.6237" y2="22.6098" gradientUnits="userSpaceOnUse">
<stop stop-color="#FFED08" stop-opacity="0.8"/>
<stop offset="1" stop-color="white"/>
</linearGradient>
<linearGradient id="paint3_linear_498_5699" x1="9.14178" y1="26.0705" x2="10.5663" y2="21.8219" gradientUnits="userSpaceOnUse">
<stop stop-color="#FFED08" stop-opacity="0.01"/>
<stop offset="1" stop-color="#FFEF63"/>
</linearGradient>
<linearGradient id="paint4_linear_498_5699" x1="8.86199" y1="19.3605" x2="7.43751" y2="23.6091" gradientUnits="userSpaceOnUse">
<stop stop-color="#FFEC36" stop-opacity="0.467505"/>
<stop offset="1" stop-color="#FFE94A"/>
</linearGradient>
<linearGradient id="paint5_linear_498_5699" x1="8.24885" y1="17.2228" x2="8.33186" y2="20.4274" gradientUnits="userSpaceOnUse">
<stop stop-color="#FFEC36" stop-opacity="0.467505"/>
<stop offset="1" stop-color="#FFF7AB"/>
</linearGradient>
<linearGradient id="paint6_linear_498_5699" x1="44.4914" y1="16.7181" x2="41.5261" y2="27.0594" gradientUnits="userSpaceOnUse">
<stop stop-color="#FCA50E"/>
<stop offset="1" stop-color="#FFC823"/>
</linearGradient>
<linearGradient id="paint7_linear_498_5699" x1="41.5394" y1="14.473" x2="43.9703" y2="17.535" gradientUnits="userSpaceOnUse">
<stop stop-color="#FFEC36" stop-opacity="0.467505"/>
<stop offset="1" stop-color="#FFF7AB"/>
</linearGradient>
<linearGradient id="paint8_linear_498_5699" x1="43.2748" y1="19.8892" x2="39.3763" y2="22.6098" gradientUnits="userSpaceOnUse">
<stop stop-color="#FFED08" stop-opacity="0.8"/>
<stop offset="1" stop-color="white"/>
</linearGradient>
<linearGradient id="paint9_linear_498_5699" x1="37.8585" y1="26.0705" x2="36.434" y2="21.8219" gradientUnits="userSpaceOnUse">
<stop stop-color="#FFED08" stop-opacity="0.01"/>
<stop offset="1" stop-color="#FFEF63"/>
</linearGradient>
<linearGradient id="paint10_linear_498_5699" x1="38.1383" y1="19.3605" x2="39.5627" y2="23.6091" gradientUnits="userSpaceOnUse">
<stop stop-color="#FFEC36" stop-opacity="0.467505"/>
<stop offset="1" stop-color="#FFE94A"/>
</linearGradient>
<linearGradient id="paint11_linear_498_5699" x1="38.7512" y1="17.2228" x2="38.6681" y2="20.4274" gradientUnits="userSpaceOnUse">
<stop stop-color="#FFEC36" stop-opacity="0.467505"/>
<stop offset="1" stop-color="#FFF7AB"/>
</linearGradient>
<linearGradient id="paint12_linear_498_5699" x1="23.5983" y1="11" x2="23.5983" y2="23.7139" gradientUnits="userSpaceOnUse">
<stop stop-color="#FCA50E"/>
<stop offset="1" stop-color="#FFC823"/>
</linearGradient>
<linearGradient id="paint13_linear_498_5699" x1="16.9395" y1="16.2762" x2="21.699" y2="22.1348" gradientUnits="userSpaceOnUse">
<stop stop-color="#FFED08" stop-opacity="0.8"/>
<stop offset="1" stop-color="white"/>
</linearGradient>
<linearGradient id="paint14_linear_498_5699" x1="21.8326" y1="11.6901" x2="16.7821" y2="15.2998" gradientUnits="userSpaceOnUse">
<stop stop-color="#FFEC36" stop-opacity="0.467505"/>
<stop offset="1" stop-color="#FFF7AB"/>
</linearGradient>
</defs>
</svg>
