<svg width="52" height="62" viewBox="0 0 52 62" fill="none" xmlns="http://www.w3.org/2000/svg">
<g filter="url(#filter0_dddd_106_2216)">
<rect x="6" y="1" width="40" height="40" rx="8" fill="white"/>
<rect x="6.5" y="1.5" width="39" height="39" rx="7.5" stroke="#D9D9D9"/>
<path d="M26.0067 13.6318C25.4228 12.9221 24.5953 12.3766 23.8077 11.9187C22.0479 10.8954 19.9947 10.1609 17.9705 9.909C17.4125 9.83955 16.8596 9.78191 16.3007 9.72899C15.9896 9.69953 15.6066 9.64245 15.3182 9.79731C14.726 10.1152 14.8694 10.8792 14.8694 11.4401C14.8694 11.5826 14.9392 11.9958 14.8162 12.0927C14.6977 12.1862 14.3632 12.038 14.2282 12.0157C13.6785 11.9245 12.9091 11.6886 12.5709 12.3064C12.4559 12.5166 12.4767 12.7885 12.478 13.0205C12.4803 13.4379 12.4838 13.8554 12.4838 14.2729V19.0291V23.9641C12.4838 24.5147 12.3051 25.4201 12.7032 25.8605C13.0673 26.2632 13.8958 26.2802 14.4072 26.2917C15.4267 26.3148 16.5473 26.6114 17.5232 26.8979C17.8268 26.987 18.1343 27.0675 18.4327 27.1732C18.6126 27.237 18.802 27.3413 18.9992 27.3218C19.3178 27.2904 19.6672 26.8048 19.8758 26.5896C19.9513 26.5118 20.079 26.4114 20.1098 26.3034C20.1448 26.181 19.9308 26.0944 19.8506 26.046C19.5367 25.8568 19.2051 25.732 18.8651 25.6005C17.7713 25.1778 16.6082 25.0136 15.4657 24.7868C15.172 24.7285 14.868 24.6931 14.5712 24.6571C14.4628 24.644 14.2899 24.6836 14.205 24.5987C14.0858 24.4795 14.1537 24.1062 14.1537 23.9492V22.1153V16.0323V14.3773C14.1537 14.1968 14.0924 13.8672 14.1841 13.7065C14.2664 13.5622 14.8038 13.6849 14.8471 13.8292C14.9976 14.3305 14.8694 15.0475 14.8694 15.5701V21.4146C14.8694 22.0095 14.6344 23.0776 15.1789 23.4908C15.5697 23.7874 16.3068 23.7738 16.7778 23.8671C17.5108 24.0123 18.2396 24.2029 18.9546 24.42C19.2786 24.5184 19.6511 24.5952 19.953 24.7493C20.2038 24.8773 20.4147 25.0829 20.6424 25.2462C20.901 25.4316 21.3809 25.6452 21.5411 25.9261C21.6184 26.0618 21.3914 26.2237 21.3102 26.3049C20.996 26.6192 20.6666 26.9219 20.3698 27.2532C19.7932 27.8968 19.6093 28.7466 19.7357 29.585C19.7776 29.8624 19.911 30.116 19.9535 30.3901C20.1336 30.6093 20.2402 30.8805 20.4301 31.0958C21.0333 31.7797 21.8545 32.2271 22.7714 32.3074C23.6136 32.3811 24.4138 32.1484 25.1122 31.6796C25.254 31.5844 25.7202 31.2899 25.7058 31.0927C25.6967 30.968 25.5063 30.8297 25.425 30.7479C25.1649 30.4861 24.9086 30.2209 24.65 29.9577H24.6351C24.1137 30.3637 23.6557 30.706 22.9652 30.6852C22.0134 30.6565 21.0855 29.6549 21.4587 28.6909C21.6666 28.1539 22.3442 27.6807 22.7486 27.288C23.7233 26.3415 24.665 25.3287 25.6936 24.4412C25.5973 24.2522 25.4078 24.0985 25.26 23.9488C25.0974 23.784 24.9299 23.6247 24.7702 23.4569C24.7144 23.3982 24.6408 23.2806 24.5535 23.269C24.4049 23.2493 24.213 23.5233 24.1212 23.6153L23.2932 24.4412C23.1992 24.5352 23.0645 24.7308 22.9285 24.7602C22.8006 24.7878 22.6521 24.5771 22.5604 24.5083C22.266 24.2875 21.9641 24.0757 21.6774 23.845C21.5755 23.763 21.402 23.6739 21.43 23.5181C21.4912 23.1779 21.7479 22.8463 21.9866 22.6118C22.6342 21.9754 23.5722 21.8824 24.3523 22.3317C24.7247 22.5462 25.0291 22.9047 25.3325 23.2045C25.8253 23.6916 26.3216 24.175 26.8119 24.6649C27.1351 24.9879 27.4572 25.3112 27.7809 25.6338C27.8737 25.7262 28.0274 25.9439 28.175 25.8428C28.4741 25.6382 28.7271 25.3059 28.9885 25.055C29.0675 24.9792 29.239 24.8628 29.2379 24.7395C29.2365 24.5864 28.8829 24.3357 28.7799 24.2325C28.3165 23.7684 27.8474 23.3097 27.3804 22.8492C26.2045 21.6896 25.1088 20.3397 23.3081 20.3567C22.7507 20.3619 22.3008 20.6016 21.7724 20.6989L20.7445 21.4902L20.0131 22.5775C20.0049 22.6901 19.9722 22.9317 19.8404 22.9675C19.6829 23.0102 19.3397 22.8092 19.1782 22.7626C18.6036 22.597 18.0204 22.4339 17.4338 22.3174C17.231 22.2771 16.6094 22.2715 16.5286 22.0505C16.4668 21.8818 16.5152 21.652 16.5054 21.4742C16.474 20.9069 16.518 20.3368 16.5059 19.7685C16.465 17.8388 16.5216 15.9058 16.4958 13.9747C16.4875 13.3537 16.4945 12.7322 16.4945 12.1111C16.4945 11.9456 16.4297 11.5738 16.563 11.4488C16.6429 11.3739 16.801 11.4326 16.897 11.4377C17.2198 11.455 17.5316 11.5318 17.8513 11.5616C18.9044 11.6601 20.0198 12.0391 20.9972 12.4307C21.3632 12.5773 21.821 12.6945 22.1303 12.946C22.4255 13.0252 22.7049 13.2191 22.9643 13.3761C23.5163 13.7101 24.0368 14.0794 24.5289 14.4977C24.749 14.6848 25.1368 14.972 25.1917 15.2719C25.2603 15.6473 25.2016 16.0831 25.2016 16.4646V18.88C25.2016 19.1396 25.1456 19.4812 25.2353 19.7285C25.3195 19.9608 25.7746 20.1505 26.0067 20.1533C26.3147 20.1569 26.7176 19.8912 26.8102 19.5954C26.8865 19.3516 26.8417 19.0582 26.8417 18.8054V17.2548C26.8417 16.8108 26.8372 16.3667 26.835 15.9229C26.8338 15.6813 26.7932 15.4008 26.878 15.1682C26.9752 14.9014 27.3217 14.6452 27.527 14.4586C28.0199 14.0105 28.5716 13.619 29.1467 13.2829C29.3933 13.1388 29.6646 12.959 29.9428 12.8864C30.3192 12.5934 30.9104 12.4268 31.3592 12.2775C32.272 11.9739 33.2161 11.659 34.1771 11.5576C34.497 11.5238 34.8086 11.4535 35.1313 11.4382C35.2134 11.4343 35.374 11.3689 35.4422 11.4314C35.5651 11.5443 35.5041 11.9159 35.5041 12.0663V13.8555V19.8193L35.5041 21.4295C35.5041 21.6115 35.566 21.9168 35.4682 22.0782C35.3606 22.2558 34.9579 22.2426 34.7735 22.282C34.1278 22.4198 33.4972 22.5864 32.8653 22.7768C32.7144 22.8223 32.2545 23.0587 32.1203 22.9771C31.9975 22.9025 31.9659 22.5869 31.9129 22.4582C31.7651 22.0997 31.5473 21.7767 31.2957 21.4834C30.3101 20.3343 28.3209 19.9986 27.0305 20.8104C26.9512 20.8603 26.762 20.9438 26.7513 21.0503C26.7392 21.1702 26.9206 21.3004 26.9948 21.3754C27.194 21.5765 27.3933 21.7785 27.5891 21.9829C27.6784 22.0761 27.7698 22.2231 27.892 22.2752C28.039 22.3379 28.2999 22.1607 28.4519 22.1296C28.8316 22.0519 29.2101 22.0593 29.5674 22.2295C30.3496 22.602 30.825 23.5497 30.3876 24.3517C30.1682 24.7541 29.762 25.0715 29.4392 25.3895C28.8668 25.9532 28.3024 26.5258 27.7358 27.0952C27.4853 27.347 27.0124 27.6593 26.8616 27.9805C26.8023 28.1069 26.9739 28.2369 27.0488 28.3168C27.2606 28.5429 27.4739 28.7686 27.6921 28.9887C27.7635 29.0607 27.863 29.1946 27.9742 29.1989C28.1411 29.2054 28.3736 28.8867 28.4819 28.7793C28.9248 28.3402 29.3561 27.8887 29.8025 27.4532C30.3645 26.905 31.0121 26.3511 31.4942 25.7314C31.6513 25.5295 31.7896 25.3232 31.907 25.0957C31.9731 24.9676 32.0079 24.799 32.1387 24.7194C32.4153 24.5512 32.8241 24.4853 33.1335 24.388C33.9951 24.1168 34.8847 23.9064 35.7724 23.7411C36.315 23.6401 37.0286 23.6265 37.0949 22.9204C37.1638 22.1875 37.0994 21.4205 37.0994 20.684C37.0994 19.1032 37.0845 17.5229 37.0845 15.9428L37.0845 14.2729C37.0845 14.1069 37.0432 13.8022 37.2361 13.7282C37.3526 13.6835 37.7119 13.5819 37.8165 13.6774C37.9164 13.7687 37.8598 14.0889 37.8598 14.2133V15.7788V22.3688V24.0088C37.8598 24.1559 37.9206 24.4862 37.8085 24.5987C37.6834 24.7242 37.2838 24.6961 37.1143 24.7148C36.5455 24.7777 35.9784 24.9194 35.4146 25.0178C33.7873 25.3019 32.0734 25.8862 30.9357 27.1284C30.7404 27.3417 30.4038 27.5695 30.2764 27.8274C30.2096 27.9627 30.3849 28.1449 30.447 28.2588C30.5962 28.5325 30.7092 28.8358 30.6839 29.1526C30.6269 29.8686 29.957 30.5448 29.2421 30.6085C28.4435 30.6797 27.971 30.1483 27.4646 29.6148C26.8524 28.9698 26.2317 28.3323 25.6256 27.6815C25.3656 27.4024 25.0868 27.1417 24.8261 26.8635C24.7453 26.7774 24.6184 26.5825 24.4855 26.5852C24.351 26.5878 24.197 26.7836 24.1085 26.8714C23.8283 27.149 23.5485 27.4351 23.2485 27.6915V27.7362C23.6165 28.0192 23.9312 28.3899 24.2564 28.7199C24.8122 29.2839 25.3781 29.8381 25.9311 30.405C26.3637 30.8484 26.7588 31.3375 27.2658 31.7004C28.0422 32.2562 29.0777 32.4184 29.9875 32.141C30.2816 32.0513 30.5554 31.931 30.8096 31.7563C31.1627 31.5136 31.4754 31.2341 31.7231 30.8823C32.1331 30.2998 32.3649 29.6122 32.3487 28.8991C32.3428 28.6404 32.3234 28.3754 32.2571 28.1241C32.2343 28.0377 32.1532 27.886 32.23 27.809C32.3252 27.7134 32.5186 27.6796 32.6412 27.6278C32.9794 27.4849 33.3178 27.3352 33.6702 27.2306C34.8583 26.8777 36.0593 26.5132 37.2932 26.3579C37.8949 26.2821 39.0753 26.3496 39.3973 25.7249C39.6636 25.2083 39.5147 24.3819 39.5147 23.815C39.5147 22.3637 39.4998 20.9122 39.4998 19.4614V14.4519V13.0951C39.4998 12.8257 39.529 12.5491 39.4081 12.2994C39.1054 11.6748 38.2699 11.9187 37.7405 12.019C37.5989 12.0459 37.2921 12.1875 37.1628 12.0924C37.0346 11.9979 37.1159 11.5997 37.1075 11.455C37.0733 10.866 37.2548 10.1418 36.6372 9.78692C36.3309 9.61097 35.9952 9.69704 35.6681 9.72701C35.069 9.78189 34.4757 9.8191 33.8789 9.91241C31.7739 10.2416 29.7016 10.9165 27.908 12.0899C27.2142 12.5439 26.6656 13.1473 26.0067 13.6318Z" fill="#1C6EA4"/>
</g>
<defs>
<filter id="filter0_dddd_106_2216" x="0" y="0" width="52" height="62" filterUnits="userSpaceOnUse" color-interpolation-filters="sRGB">
<feFlood flood-opacity="0" result="BackgroundImageFix"/>
<feColorMatrix in="SourceAlpha" type="matrix" values="0 0 0 0 0 0 0 0 0 0 0 0 0 0 0 0 0 0 127 0" result="hardAlpha"/>
<feOffset dy="1"/>
<feGaussianBlur stdDeviation="1"/>
<feColorMatrix type="matrix" values="0 0 0 0 0 0 0 0 0 0 0 0 0 0 0 0 0 0 0.1 0"/>
<feBlend mode="normal" in2="BackgroundImageFix" result="effect1_dropShadow_106_2216"/>
<feColorMatrix in="SourceAlpha" type="matrix" values="0 0 0 0 0 0 0 0 0 0 0 0 0 0 0 0 0 0 127 0" result="hardAlpha"/>
<feOffset dy="4"/>
<feGaussianBlur stdDeviation="2"/>
<feColorMatrix type="matrix" values="0 0 0 0 0 0 0 0 0 0 0 0 0 0 0 0 0 0 0.09 0"/>
<feBlend mode="normal" in2="effect1_dropShadow_106_2216" result="effect2_dropShadow_106_2216"/>
<feColorMatrix in="SourceAlpha" type="matrix" values="0 0 0 0 0 0 0 0 0 0 0 0 0 0 0 0 0 0 127 0" result="hardAlpha"/>
<feOffset dy="8"/>
<feGaussianBlur stdDeviation="2.5"/>
<feColorMatrix type="matrix" values="0 0 0 0 0 0 0 0 0 0 0 0 0 0 0 0 0 0 0.05 0"/>
<feBlend mode="normal" in2="effect2_dropShadow_106_2216" result="effect3_dropShadow_106_2216"/>
<feColorMatrix in="SourceAlpha" type="matrix" values="0 0 0 0 0 0 0 0 0 0 0 0 0 0 0 0 0 0 127 0" result="hardAlpha"/>
<feOffset dy="15"/>
<feGaussianBlur stdDeviation="3"/>
<feColorMatrix type="matrix" values="0 0 0 0 0 0 0 0 0 0 0 0 0 0 0 0 0 0 0.01 0"/>
<feBlend mode="normal" in2="effect3_dropShadow_106_2216" result="effect4_dropShadow_106_2216"/>
<feBlend mode="normal" in="SourceGraphic" in2="effect4_dropShadow_106_2216" result="shape"/>
</filter>
</defs>
</svg>
