<svg width="268" height="300" viewBox="0 0 268 300" fill="none" xmlns="http://www.w3.org/2000/svg">
<g opacity="0.5">
<mask id="mask0_589_10509" style="mask-type:alpha" maskUnits="userSpaceOnUse" x="6" y="-17" width="335" height="312">
<path d="M226.975 108.917C335.558 239.911 288.47 319.562 121.56 286.678C-45.3497 253.795 -27.5087 220.199 161.241 211.708C349.99 203.217 397.206 123.563 266.655 33.9474C136.104 -55.6683 118.391 -22.0763 226.975 108.917Z" stroke="#404040" stroke-width="1.01692" stroke-miterlimit="10"/>
<path d="M224.163 113.469C311.331 228.069 268.263 300.706 128.023 275.635C-12.2172 250.565 3.91874 219.956 164.183 207.281C324.448 194.606 367.516 121.968 260.324 45.114C153.132 -31.7403 136.992 -1.25914 224.163 113.469Z" stroke="#404040" stroke-width="1.01692" stroke-miterlimit="10"/>
<path d="M221.221 117.896C289.3 217.059 250.379 282.68 134.354 264.469C18.3294 246.258 32.8843 218.505 167.119 202.599C301.353 186.693 340.146 121.076 253.986 56.0258C167.825 -9.02407 153.142 18.7328 221.221 117.896Z" stroke="#404040" stroke-width="1.01692" stroke-miterlimit="10"/>
<path d="M218.41 122.447C269.598 207.134 234.829 265.867 140.689 253.43C46.5525 241.122 59.6576 216.348 169.934 198.175C280.21 180.003 314.982 121.399 247.654 67.1927C180.326 12.9868 167.093 37.764 218.41 122.447Z" stroke="#404040" stroke-width="1.01692" stroke-miterlimit="10"/>
<path d="M215.467 126.874C252.093 198.042 221.471 249.758 147.02 242.263C72.5693 234.769 84.1006 213.106 172.745 193.624C261.389 174.142 292.139 122.423 241.192 78.235C190.245 34.0473 178.845 55.8342 215.467 126.874Z" stroke="#404040" stroke-width="1.01692" stroke-miterlimit="10"/>
<path d="M212.656 131.425C237.042 189.903 210.568 234.602 153.483 231.221C96.3978 227.839 106.348 209.032 175.812 189.066C245.279 169.227 271.753 124.528 234.985 89.2705C198.217 54.0128 188.27 72.9478 212.656 131.425Z" stroke="#404040" stroke-width="1.01692" stroke-miterlimit="10"/>
<path d="M209.717 135.98C224.194 182.852 201.74 220.538 159.69 220.185C117.64 219.831 126.141 204.004 178.626 184.642C231.112 165.28 253.439 127.597 228.654 100.437C203.869 73.2763 195.368 89.1039 209.717 135.98Z" stroke="#404040" stroke-width="1.01692" stroke-miterlimit="10"/>
<path d="M206.902 140.403C213.665 176.503 195.362 207.3 166.152 209.142C136.942 210.984 143.862 198.012 181.441 180.218C219.148 162.421 237.323 131.627 222.191 111.479C207.058 91.3314 200.139 104.303 206.902 140.403Z" stroke="#404040" stroke-width="1.01692" stroke-miterlimit="10"/>
<path d="M203.963 144.958C205.212 171.246 191.185 195.023 172.487 198.104C153.786 201.056 159.128 191.067 184.38 175.664C209.632 160.261 223.659 136.483 215.856 122.519C208.053 108.554 202.714 118.671 203.963 144.958Z" stroke="#404040" stroke-width="1.01692" stroke-miterlimit="10"/>
<path d="M201.148 149.381C199.337 166.81 189.333 183.702 178.946 186.933C168.559 190.163 172.195 183.161 187.319 171.109C202.442 159.056 212.322 142.295 209.521 133.557C206.72 124.819 202.959 131.953 201.148 149.381Z" stroke="#404040" stroke-width="1.01692" stroke-miterlimit="10"/>
<path d="M198.209 153.936C195.538 163.467 189.682 173.343 185.153 175.898C180.625 178.452 182.808 174.302 190.006 166.689C197.204 159.076 203.06 149.2 203.062 144.728C203.065 140.256 200.881 144.406 198.209 153.936Z" stroke="#404040" stroke-width="1.01692" stroke-miterlimit="10"/>
</mask>
<g mask="url(#mask0_589_10509)">
<rect x="34.2367" y="-97.8223" width="502.865" height="502.865" fill="url(#paint0_linear_589_10509)"/>
</g>
</g>
<defs>
<linearGradient id="paint0_linear_589_10509" x1="231.773" y1="87.2563" x2="302.957" y2="252.759" gradientUnits="userSpaceOnUse">
<stop stop-color="#689EB9"/>
<stop offset="1" stop-color="#19F0FB"/>
</linearGradient>
</defs>
</svg>
