<svg width="93" height="108" viewBox="0 0 93 108" fill="none" xmlns="http://www.w3.org/2000/svg">
<g clip-path="url(#clip0_683_10681)">
<rect x="0.333252" width="92.6667" height="108" rx="8" fill="url(#paint0_linear_683_10681)"/>
<path d="M-188.934 104.428C-195.545 97.5178 -201.85 90.9281 -212.47 86.619C-228.392 80.1581 -240.214 79.532 -250.984 78.9622C-262.143 78.371 -272.175 77.8401 -284.47 70.939C-298.06 63.3112 -303.548 56.0856 -309.188 48.6585C-313.574 42.8819 -318.054 36.9835 -326.51 30.6797C-342.152 19.0194 -358.403 15 -377.732 15L-442 15V154L232.576 154V15L168.308 15C148.978 15 132.731 19.0194 117.087 30.6797C108.629 36.9835 104.152 42.8819 99.764 48.6585C94.1222 56.0852 88.6347 63.3112 75.0447 70.939C62.7506 77.8401 52.7206 78.371 41.5586 78.9622C30.7895 79.532 18.9683 80.1581 3.04628 86.619C-7.57403 90.9281 -13.8783 97.5178 -20.4894 104.428C-34.0327 118.583 -48.8619 134.082 -104.712 134.082C-160.562 134.082 -175.391 118.583 -188.934 104.428Z" fill="url(#paint1_linear_683_10681)"/>
<g style="mix-blend-mode:luminosity" opacity="0.4">
<g filter="url(#filter0_d_683_10681)">
<path fill-rule="evenodd" clip-rule="evenodd" d="M61.7964 69.4814H88.1911V120.64C88.1911 121.721 87.0502 122.422 86.0858 121.933L74.9938 116.311L63.9017 121.933C62.9373 122.422 61.7964 121.721 61.7964 120.64V69.4814Z" fill="#F56123"/>
</g>
<g filter="url(#filter1_d_683_10681)">
<ellipse cx="74.9934" cy="69.4818" rx="32.9934" ry="31.4818" fill="url(#paint2_linear_683_10681)"/>
</g>
<g filter="url(#filter2_d_683_10681)">
<ellipse cx="74.9934" cy="69.4815" rx="24.7451" ry="23.6113" fill="url(#paint3_linear_683_10681)"/>
<path d="M74.9934 45.1455C89.0276 45.1455 100.463 56.0093 100.463 69.4814C100.463 82.9536 89.0276 93.8174 74.9934 93.8174C60.9591 93.8174 49.5237 82.9537 49.5237 69.4814C49.5237 56.0092 60.9591 45.1455 74.9934 45.1455Z" stroke="#D78834" stroke-opacity="0.06" stroke-width="1.44982"/>
</g>
<g filter="url(#filter3_i_683_10681)">
<path d="M75.4589 59.4786C74.7827 58.6569 73.8246 58.0253 72.9127 57.495C70.8752 56.3103 68.4979 55.4598 66.1542 55.1681C65.5081 55.0877 64.8679 55.021 64.2207 54.9597C63.8605 54.9256 63.4171 54.8595 63.0831 55.0388C62.3976 55.4069 62.5635 56.2915 62.5635 56.941C62.5635 57.106 62.6443 57.5843 62.502 57.6965C62.3647 57.8047 61.9774 57.6332 61.8212 57.6073C61.1847 57.5018 60.2938 57.2286 59.9023 57.944C59.7691 58.1873 59.7932 58.5022 59.7947 58.7708C59.7973 59.2541 59.8014 59.7375 59.8014 60.2209V65.7278V71.4418C59.8014 72.0793 59.5945 73.1276 60.0555 73.6376C60.4769 74.1038 61.4363 74.1235 62.0283 74.1369C63.2089 74.1636 64.5063 74.507 65.6363 74.8387C65.9878 74.9419 66.3438 75.0351 66.6893 75.1575C66.8976 75.2313 67.1169 75.3521 67.3453 75.3296C67.7141 75.2931 68.1186 74.7309 68.3602 74.4818C68.4476 74.3917 68.5955 74.2754 68.6312 74.1504C68.6716 74.0086 68.4239 73.9084 68.331 73.8524C67.9676 73.6332 67.5837 73.4887 67.19 73.3366C65.9235 72.8471 64.5769 72.6569 63.254 72.3944C62.9139 72.3269 62.562 72.2859 62.2182 72.2442C62.0927 72.229 61.8925 72.2749 61.7942 72.1766C61.6563 72.0386 61.7349 71.6064 61.7349 71.4246V69.3012V62.2579V60.3418C61.7349 60.1327 61.6639 59.7511 61.7701 59.565C61.8653 59.398 62.4875 59.5401 62.5377 59.7072C62.712 60.2875 62.5635 61.1177 62.5635 61.7228V68.4899C62.5635 69.1787 62.2915 70.4154 62.9219 70.8938C63.3744 71.2372 64.2279 71.2214 64.7732 71.3295C65.6219 71.4977 66.4657 71.7183 67.2935 71.9697C67.6687 72.0836 68.1 72.1726 68.4496 72.351C68.7399 72.4991 68.9842 72.7372 69.2478 72.9263C69.5472 73.141 70.1029 73.3883 70.2883 73.7136C70.3779 73.8706 70.1151 74.0581 70.0211 74.1521C69.6573 74.5161 69.2759 74.8665 68.9322 75.2501C68.2645 75.9953 68.0516 76.9792 68.198 77.9499C68.2465 78.2712 68.4009 78.5648 68.4502 78.8821C68.6587 79.136 68.7821 79.45 69.002 79.6992C69.7004 80.4911 70.6513 81.0091 71.7128 81.1021C72.688 81.1874 73.6145 80.918 74.4231 80.3752C74.5874 80.265 75.1271 79.924 75.1105 79.6957C75.0999 79.5513 74.8795 79.3911 74.7854 79.2964C74.4842 78.9933 74.1874 78.6863 73.888 78.3815H73.8707C73.2671 78.8516 72.7367 79.248 71.9373 79.2238C70.8352 79.1906 69.7609 78.0309 70.1929 76.9148C70.4337 76.2929 71.2182 75.7451 71.6865 75.2903C72.815 74.1945 73.9054 73.0218 75.0964 71.9942C74.9849 71.7754 74.7654 71.5974 74.5943 71.4241C74.406 71.2333 74.212 71.0489 74.0272 70.8546C73.9625 70.7866 73.8774 70.6504 73.7763 70.637C73.6042 70.6142 73.382 70.9315 73.2757 71.0379L72.3171 71.9942C72.2082 72.103 72.0522 72.3296 71.8947 72.3636C71.7467 72.3956 71.5748 72.1516 71.4685 72.0719C71.1277 71.8163 70.7781 71.571 70.4462 71.304C70.3281 71.209 70.1273 71.1058 70.1597 70.9254C70.2306 70.5315 70.5279 70.1476 70.8042 69.876C71.5541 69.1392 72.64 69.0315 73.5433 69.5518C73.9745 69.8001 74.3269 70.2151 74.6782 70.5624C75.2488 71.1263 75.8235 71.6861 76.3911 72.2532C76.7654 72.6272 77.1383 73.0016 77.5131 73.3751C77.6205 73.4821 77.7985 73.7341 77.9695 73.6171C78.3157 73.3801 78.6086 72.9955 78.9113 72.7049C79.0028 72.6172 79.2014 72.4823 79.2001 72.3396C79.1985 72.1624 78.789 71.872 78.6697 71.7525C78.1332 71.2152 77.5901 70.6841 77.0493 70.1509C75.6878 68.8083 74.4192 67.2453 72.3343 67.2649C71.6888 67.271 71.168 67.5486 70.5562 67.6612L69.3661 68.5774L68.5192 69.8364C68.5097 69.9668 68.4718 70.2465 68.3192 70.2879C68.1368 70.3373 67.7395 70.1046 67.5525 70.0507C66.8872 69.8589 66.212 69.6701 65.5327 69.5351C65.298 69.4885 64.5782 69.482 64.4846 69.2261C64.4131 69.0308 64.4691 68.7648 64.4577 68.5589C64.4215 67.9021 64.4724 67.242 64.4584 66.584C64.411 64.3497 64.4765 62.1115 64.4467 59.8757C64.4371 59.1566 64.4452 58.4369 64.4452 57.7178C64.4452 57.5262 64.3702 57.0957 64.5245 56.951C64.617 56.8642 64.8001 56.9322 64.9113 56.9381C65.2849 56.9581 65.646 57.0471 66.0161 57.0817C67.2355 57.1956 68.527 57.6345 69.6586 58.0878C70.0823 58.2576 70.6125 58.3934 70.9705 58.6845C71.3124 58.7762 71.6359 59.0007 71.9363 59.1825C72.5754 59.5692 73.1781 59.9969 73.7477 60.4811C74.0026 60.6978 74.4517 61.0303 74.5152 61.3775C74.5946 61.8122 74.5267 62.3168 74.5267 62.7586V65.5552C74.5267 65.8557 74.4618 66.2513 74.5657 66.5376C74.6632 66.8066 75.1901 67.0263 75.4589 67.0294C75.8154 67.0336 76.282 66.726 76.3892 66.3835C76.4775 66.1012 76.4256 65.7616 76.4256 65.4688V63.6735C76.4256 63.1594 76.4204 62.6452 76.4179 62.1314C76.4166 61.8516 76.3695 61.5269 76.4677 61.2576C76.5802 60.9486 76.9814 60.6519 77.2191 60.4359C77.7899 59.9171 78.4287 59.4638 79.0945 59.0746C79.38 58.9078 79.6941 58.6996 80.0163 58.6155C80.4521 58.2763 81.1366 58.0834 81.6563 57.9106C82.7131 57.559 83.8063 57.1943 84.919 57.0769C85.2893 57.0379 85.6502 56.9565 86.0238 56.9387C86.1188 56.9342 86.3048 56.8585 86.3837 56.9309C86.526 57.0615 86.4554 57.4918 86.4554 57.666V59.7376V66.6427L86.4554 68.5071C86.4555 68.7178 86.5271 69.0714 86.4139 69.2583C86.2893 69.4639 85.823 69.4486 85.6095 69.4941C84.8619 69.6538 84.1317 69.8467 83.4001 70.0671C83.2253 70.1198 82.6929 70.3935 82.5375 70.299C82.3953 70.2126 82.3587 69.8472 82.2973 69.6983C82.1263 69.2831 81.8741 68.9092 81.5828 68.5696C80.4415 67.239 78.1383 66.8503 76.6443 67.7903C76.5524 67.8481 76.3334 67.9447 76.321 68.0681C76.307 68.2069 76.517 68.3577 76.603 68.4445C76.8336 68.6773 77.0644 68.9112 77.291 69.1478C77.3944 69.2558 77.5003 69.426 77.6417 69.4863C77.8119 69.5589 78.114 69.3538 78.29 69.3178C78.7297 69.2278 79.1679 69.2363 79.5816 69.4334C80.4873 69.8648 81.0377 70.962 80.5313 71.8907C80.2772 72.3565 79.807 72.724 79.4331 73.0922C78.7704 73.7449 78.117 74.4078 77.4609 75.0671C77.1709 75.3587 76.6233 75.7203 76.4487 76.0922C76.38 76.2386 76.5787 76.389 76.6654 76.4816C76.9107 76.7434 77.1577 77.0047 77.4102 77.2595C77.4929 77.3429 77.6082 77.4979 77.7369 77.5029C77.9302 77.5105 78.1994 77.1415 78.3248 77.0171C78.8376 76.5086 79.3369 75.9859 79.8538 75.4817C80.5046 74.8469 81.2544 74.2056 81.8126 73.4881C81.9945 73.2543 82.1546 73.0155 82.2905 72.7521C82.367 72.6038 82.4073 72.4085 82.5588 72.3164C82.879 72.1216 83.3524 72.0453 83.7106 71.9326C84.7083 71.6186 85.7382 71.375 86.7661 71.1836C87.3943 71.0667 88.2205 71.0509 88.2974 70.2334C88.3771 69.3848 88.3025 68.4967 88.3025 67.644C88.3025 65.8137 88.2852 63.9839 88.2852 62.1544L88.2852 60.2209C88.2853 60.0286 88.2374 59.6758 88.4608 59.5901C88.5957 59.5384 89.0117 59.4208 89.1328 59.5314C89.2485 59.6371 89.1829 60.0078 89.1829 60.1519V61.9645V69.5947V71.4936C89.1829 71.6638 89.2534 72.0463 89.1235 72.1766C88.9787 72.3219 88.516 72.2893 88.3198 72.311C87.6611 72.3838 87.0046 72.5479 86.3518 72.6619C84.4676 72.9907 82.4831 73.6673 81.1659 75.1056C80.9398 75.3526 80.55 75.6163 80.4025 75.9149C80.3252 76.0716 80.5281 76.2825 80.6 76.4144C80.7728 76.7314 80.9036 77.0826 80.8744 77.4493C80.8083 78.2783 80.0327 79.0612 79.2049 79.135C78.2803 79.2174 77.7332 78.6021 77.1469 77.9845C76.438 77.2377 75.7194 76.4995 75.0176 75.746C74.7166 75.4228 74.3938 75.121 74.0919 74.7989C73.9984 74.6991 73.8514 74.4736 73.6975 74.4766C73.5418 74.4797 73.3635 74.7064 73.261 74.808C72.9366 75.1295 72.6127 75.4608 72.2652 75.7575V75.8093C72.6913 76.137 73.0558 76.5662 73.4323 76.9483C74.0758 77.6013 74.731 78.243 75.3713 78.8994C75.8722 79.4127 76.3297 79.979 76.9167 80.3993C77.8157 81.0428 79.0146 81.2307 80.0681 80.9094C80.4086 80.8056 80.7255 80.6663 81.0199 80.464C81.4288 80.183 81.7908 79.8593 82.0775 79.452C82.5523 78.7776 82.8207 77.9815 82.8019 77.1558C82.7951 76.8563 82.7727 76.5495 82.6959 76.2584C82.6695 76.1584 82.5756 75.9828 82.6645 75.8936C82.7747 75.783 82.9986 75.7438 83.1406 75.6839C83.5321 75.5184 83.924 75.3451 84.332 75.2239C85.7077 74.8153 87.0983 74.3933 88.5269 74.2134C89.2236 74.1257 90.5903 74.2038 90.9631 73.4806C91.2715 72.8824 91.0991 71.9256 91.0991 71.2692C91.0991 69.5888 91.0818 67.9081 91.0818 66.2284V60.4281V58.8571C91.0818 58.5453 91.1157 58.225 90.9756 57.9359C90.6251 57.2126 89.6578 57.4951 89.0448 57.6112C88.8809 57.6423 88.5256 57.8063 88.376 57.6961C88.2274 57.5868 88.3216 57.1257 88.3119 56.9582C88.2723 56.2762 88.4825 55.4377 87.7673 55.0268C87.4127 54.8231 87.024 54.9227 86.6452 54.9574C85.9517 55.021 85.2646 55.064 84.5737 55.1721C82.1365 55.5532 79.737 56.3347 77.6603 57.6933C76.8569 58.2189 76.2218 58.9176 75.4589 59.4786Z" fill="#FFECD0"/>
</g>
</g>
<ellipse cx="-114.833" cy="184.5" rx="192.5" ry="155.5" fill="url(#paint4_linear_683_10681)"/>
</g>
<defs>
<filter id="filter0_d_683_10681" x="58.8967" y="69.4814" width="32.1941" height="58.4096" filterUnits="userSpaceOnUse" color-interpolation-filters="sRGB">
<feFlood flood-opacity="0" result="BackgroundImageFix"/>
<feColorMatrix in="SourceAlpha" type="matrix" values="0 0 0 0 0 0 0 0 0 0 0 0 0 0 0 0 0 0 127 0" result="hardAlpha"/>
<feOffset dy="2.89964"/>
<feGaussianBlur stdDeviation="1.44982"/>
<feColorMatrix type="matrix" values="0 0 0 0 0.937255 0 0 0 0 0.67451 0 0 0 0 0.235294 0 0 0 0.2 0"/>
<feBlend mode="darken" in2="BackgroundImageFix" result="effect1_dropShadow_683_10681"/>
<feBlend mode="normal" in="SourceGraphic" in2="effect1_dropShadow_683_10681" result="shape"/>
</filter>
<filter id="filter1_d_683_10681" x="36.2007" y="35.1004" width="77.5854" height="74.5624" filterUnits="userSpaceOnUse" color-interpolation-filters="sRGB">
<feFlood flood-opacity="0" result="BackgroundImageFix"/>
<feColorMatrix in="SourceAlpha" type="matrix" values="0 0 0 0 0 0 0 0 0 0 0 0 0 0 0 0 0 0 127 0" result="hardAlpha"/>
<feOffset dy="2.89964"/>
<feGaussianBlur stdDeviation="2.89964"/>
<feColorMatrix type="matrix" values="0 0 0 0 0.752941 0 0 0 0 0.266667 0 0 0 0 0.266667 0 0 0 0.2 0"/>
<feBlend mode="normal" in2="BackgroundImageFix" result="effect1_dropShadow_683_10681"/>
<feBlend mode="normal" in="SourceGraphic" in2="effect1_dropShadow_683_10681" result="shape"/>
</filter>
<filter id="filter2_d_683_10681" x="45.8989" y="42.9701" width="58.1889" height="55.9223" filterUnits="userSpaceOnUse" color-interpolation-filters="sRGB">
<feFlood flood-opacity="0" result="BackgroundImageFix"/>
<feColorMatrix in="SourceAlpha" type="matrix" values="0 0 0 0 0 0 0 0 0 0 0 0 0 0 0 0 0 0 127 0" result="hardAlpha"/>
<feOffset dy="1.44982"/>
<feGaussianBlur stdDeviation="1.44982"/>
<feColorMatrix type="matrix" values="0 0 0 0 0.643137 0 0 0 0 0.301509 0 0 0 0 0.0196078 0 0 0 0.2 0"/>
<feBlend mode="normal" in2="BackgroundImageFix" result="effect1_dropShadow_683_10681"/>
<feBlend mode="normal" in="SourceGraphic" in2="effect1_dropShadow_683_10681" result="shape"/>
</filter>
<filter id="filter3_i_683_10681" x="59.7551" y="54.9023" width="31.3921" height="27.6637" filterUnits="userSpaceOnUse" color-interpolation-filters="sRGB">
<feFlood flood-opacity="0" result="BackgroundImageFix"/>
<feBlend mode="normal" in="SourceGraphic" in2="BackgroundImageFix" result="shape"/>
<feColorMatrix in="SourceAlpha" type="matrix" values="0 0 0 0 0 0 0 0 0 0 0 0 0 0 0 0 0 0 127 0" result="hardAlpha"/>
<feOffset dy="1.44886"/>
<feGaussianBlur stdDeviation="0.724431"/>
<feComposite in2="hardAlpha" operator="arithmetic" k2="-1" k3="1"/>
<feColorMatrix type="matrix" values="0 0 0 0 0.8 0 0 0 0 0.623529 0 0 0 0 0.411765 0 0 0 0.4 0"/>
<feBlend mode="normal" in2="shape" result="effect1_innerShadow_683_10681"/>
</filter>
<linearGradient id="paint0_linear_683_10681" x1="0.333252" y1="54" x2="92.9999" y2="54" gradientUnits="userSpaceOnUse">
<stop offset="1" stop-color="#4981A8"/>
<stop stop-color="#1C6EA4"/>
</linearGradient>
<linearGradient id="paint1_linear_683_10681" x1="-442" y1="84.5" x2="232.576" y2="84.5" gradientUnits="userSpaceOnUse">
<stop offset="1" stop-color="#0F4A73"/>
<stop stop-color="#1C6EA4"/>
</linearGradient>
<linearGradient id="paint2_linear_683_10681" x1="42" y1="38" x2="42" y2="100.964" gradientUnits="userSpaceOnUse">
<stop stop-color="#F9C685"/>
<stop offset="1" stop-color="#DB963B"/>
</linearGradient>
<linearGradient id="paint3_linear_683_10681" x1="50.2483" y1="45.8701" x2="50.2483" y2="93.0928" gradientUnits="userSpaceOnUse">
<stop stop-color="#FDDA9D"/>
<stop offset="1" stop-color="#EFB35E"/>
</linearGradient>
<linearGradient id="paint4_linear_683_10681" x1="-307.333" y1="184.5" x2="77.6667" y2="184.5" gradientUnits="userSpaceOnUse">
<stop offset="1" stop-color="#4981A8"/>
<stop stop-color="#1C6EA4"/>
</linearGradient>
<clipPath id="clip0_683_10681">
<rect x="0.333252" width="92.6667" height="108" rx="8" fill="white"/>
</clipPath>
</defs>
</svg>
