<svg width="30" height="37" viewBox="0 0 30 37" fill="none" xmlns="http://www.w3.org/2000/svg">
<g filter="url(#filter0_d_686_11066)">
<path fill-rule="evenodd" clip-rule="evenodd" d="M9.87134 13.7969H19.4777V33.2115C19.4777 33.6644 18.9955 33.9542 18.5956 33.7418L14.6745 31.6587L10.7534 33.7418C10.3535 33.9542 9.87134 33.6644 9.87134 33.2115V13.7969Z" fill="#F56123"/>
</g>
<g filter="url(#filter1_d_686_11066)">
<circle cx="14.6744" cy="13.797" r="12.0079" fill="url(#paint0_linear_686_11066)"/>
</g>
<g filter="url(#filter2_d_686_11066)">
<circle cx="14.6744" cy="13.797" r="9.00595" fill="url(#paint1_linear_686_11066)"/>
<circle cx="14.6744" cy="13.797" r="9.30615" stroke="#D78834" stroke-opacity="0.06" stroke-width="0.600397"/>
</g>
<g filter="url(#filter3_i_686_11066)">
<path d="M14.6697 10.6842C14.3897 10.3439 13.9929 10.0823 13.6153 9.86275C12.7715 9.37212 11.787 9.01992 10.8165 8.89913C10.5489 8.86583 10.2838 8.83819 10.0158 8.81282C9.86663 8.79869 9.68299 8.77132 9.5447 8.84558C9.26079 8.99802 9.32951 9.36433 9.3295 9.63329C9.3295 9.70162 9.36298 9.89973 9.30403 9.94619C9.24718 9.991 9.08679 9.91997 9.0221 9.90924C8.75852 9.86555 8.3896 9.75242 8.22744 10.0487C8.17228 10.1494 8.18227 10.2798 8.18287 10.3911C8.18396 10.5912 8.18568 10.7914 8.18568 10.9916V13.2721V15.6384C8.18568 15.9023 8.09999 16.3365 8.29088 16.5477C8.46542 16.7407 8.86271 16.7489 9.10789 16.7544C9.59676 16.7655 10.1341 16.9077 10.602 17.0451C10.7476 17.0878 10.895 17.1264 11.0381 17.1771C11.1243 17.2077 11.2152 17.2577 11.3097 17.2483C11.4625 17.2333 11.63 17.0004 11.73 16.8973C11.7662 16.86 11.8275 16.8118 11.8422 16.76C11.859 16.7013 11.7564 16.6598 11.7179 16.6366C11.5674 16.5459 11.4085 16.486 11.2454 16.423C10.7209 16.2203 10.1633 16.1416 9.61546 16.0328C9.47461 16.0049 9.32887 15.9879 9.18652 15.9706C9.13456 15.9643 9.05165 15.9833 9.01094 15.9426C8.95381 15.8855 8.98636 15.7065 8.98636 15.6312V14.7519V11.8351V11.0416C8.98636 10.9551 8.95697 10.797 9.00093 10.72C9.04038 10.6508 9.29805 10.7096 9.31883 10.7788C9.391 11.0192 9.3295 11.363 9.3295 11.6135V14.4159C9.3295 14.7012 9.21686 15.2133 9.47791 15.4114C9.66531 15.5536 10.0188 15.5471 10.2446 15.5918C10.596 15.6615 10.9455 15.7529 11.2883 15.857C11.4437 15.9041 11.6223 15.941 11.767 16.0148C11.8873 16.0762 11.9884 16.1748 12.0976 16.2531C12.2216 16.342 12.4517 16.4444 12.5285 16.5791C12.5656 16.6442 12.4567 16.7218 12.4178 16.7607C12.2672 16.9115 12.1092 17.0566 11.9669 17.2154C11.6904 17.524 11.6022 17.9315 11.6629 18.3335C11.6829 18.4665 11.7469 18.5881 11.7673 18.7195C11.8536 18.8246 11.9048 18.9547 11.9958 19.0579C12.285 19.3858 12.6788 19.6004 13.1184 19.6388C13.5223 19.6742 13.9059 19.5626 14.2408 19.3379C14.3088 19.2922 14.5323 19.151 14.5254 19.0564C14.5211 18.9966 14.4298 18.9303 14.3908 18.8911C14.2661 18.7656 14.1432 18.6384 14.0192 18.5122H14.012C13.7621 18.7069 13.5424 18.871 13.2114 18.861C12.755 18.8473 12.3101 18.367 12.489 17.9048C12.5887 17.6473 12.9136 17.4204 13.1075 17.2321C13.5748 16.7783 14.0264 16.2927 14.5196 15.8671C14.4734 15.7765 14.3825 15.7028 14.3117 15.631C14.2337 15.552 14.1534 15.4756 14.0768 15.3952C14.0501 15.367 14.0148 15.3106 13.9729 15.3051C13.9017 15.2956 13.8096 15.427 13.7656 15.4711L13.3686 15.8671C13.3236 15.9122 13.2589 16.006 13.1937 16.0201C13.1324 16.0333 13.0612 15.9323 13.0172 15.8993C12.8761 15.7934 12.7313 15.6918 12.5939 15.5813C12.545 15.5419 12.4618 15.4992 12.4752 15.4245C12.5046 15.2614 12.6277 15.1024 12.7421 14.9899C13.0527 14.6848 13.5024 14.6402 13.8764 14.8557C14.055 14.9585 14.201 15.1304 14.3464 15.2742C14.5827 15.5077 14.8207 15.7395 15.0558 15.9744C15.2108 16.1292 15.3652 16.2843 15.5204 16.439C15.5649 16.4833 15.6386 16.5876 15.7094 16.5392C15.8528 16.4411 15.9741 16.2818 16.0994 16.1614C16.1373 16.1251 16.2196 16.0693 16.219 16.0101C16.2184 15.9368 16.0488 15.8165 15.9994 15.767C15.7772 15.5445 15.5523 15.3246 15.3284 15.1038C14.7645 14.5478 14.2392 13.9005 13.3758 13.9086C13.1085 13.9112 12.8928 14.0261 12.6394 14.0728L12.1466 14.4521L11.7959 14.9735C11.7919 15.0275 11.7763 15.1433 11.713 15.1605C11.6375 15.181 11.473 15.0846 11.3955 15.0623C11.12 14.9828 10.8404 14.9046 10.5591 14.8488C10.4619 14.8295 10.1638 14.8268 10.1251 14.7208C10.0955 14.6399 10.1186 14.5297 10.1139 14.4445C10.0989 14.1725 10.12 13.8991 10.1142 13.6266C10.0946 12.7014 10.1217 11.7745 10.1094 10.8486C10.1054 10.5508 10.1087 10.2528 10.1087 9.95499C10.1087 9.87564 10.0777 9.69736 10.1416 9.63743C10.1799 9.60151 10.2557 9.62966 10.3018 9.63212C10.4565 9.6404 10.606 9.67723 10.7593 9.69155C11.2643 9.73876 11.7991 9.9205 12.2677 10.1082C12.4432 10.1785 12.6627 10.2348 12.811 10.3553C12.9526 10.3933 13.0866 10.4863 13.2109 10.5615C13.4756 10.7217 13.7252 10.8988 13.9611 11.0993C14.0666 11.1891 14.2526 11.3268 14.2789 11.4706C14.3118 11.6506 14.2837 11.8595 14.2837 12.0425V13.2006C14.2837 13.3251 14.2568 13.4889 14.2998 13.6075C14.3402 13.7188 14.5584 13.8098 14.6697 13.8111C14.8174 13.8128 15.0106 13.6855 15.055 13.5436C15.0915 13.4267 15.0701 13.2861 15.0701 13.1648V12.4214C15.0701 12.2084 15.0679 11.9955 15.0669 11.7827C15.0663 11.6669 15.0468 11.5324 15.0875 11.4209C15.1341 11.2929 15.3002 11.1701 15.3987 11.0806C15.635 10.8658 15.8996 10.678 16.1753 10.5169C16.2935 10.4478 16.4236 10.3616 16.557 10.3267C16.7375 10.1863 17.021 10.1064 17.2362 10.0348C17.6738 9.88922 18.1265 9.73821 18.5873 9.68961C18.7407 9.67343 18.8901 9.63971 19.0448 9.63237C19.0842 9.6305 19.1612 9.59913 19.1939 9.62912C19.2528 9.68322 19.2236 9.86141 19.2236 9.93354V10.7914V13.651L19.2236 14.423C19.2236 14.5103 19.2533 14.6567 19.2064 14.7341C19.1548 14.8192 18.9617 14.8129 18.8733 14.8318C18.5637 14.8979 18.2613 14.9778 17.9583 15.0691C17.886 15.0909 17.6655 15.2042 17.6011 15.1651C17.5422 15.1293 17.527 14.978 17.5016 14.9163C17.4308 14.7444 17.3264 14.5896 17.2057 14.4489C16.7331 13.8979 15.7793 13.7369 15.1606 14.1262C15.1226 14.1501 15.0319 14.1902 15.0267 14.2412C15.0209 14.2987 15.1079 14.3612 15.1435 14.3971C15.239 14.4935 15.3346 14.5904 15.4284 14.6884C15.4713 14.7331 15.5151 14.8036 15.5737 14.8286C15.6442 14.8586 15.7693 14.7737 15.8421 14.7588C16.0242 14.7215 16.2057 14.725 16.377 14.8066C16.7521 14.9853 16.98 15.4396 16.7703 15.8242C16.6651 16.0172 16.4703 16.1693 16.3155 16.3218C16.0411 16.5921 15.7705 16.8666 15.4988 17.1397C15.3787 17.2604 15.1519 17.4101 15.0796 17.5642C15.0512 17.6248 15.1335 17.6871 15.1694 17.7254C15.271 17.8338 15.3732 17.9421 15.4778 18.0476C15.512 18.0821 15.5598 18.1463 15.6131 18.1484C15.6931 18.1515 15.8046 17.9987 15.8565 17.9472C16.0689 17.7366 16.2757 17.5202 16.4897 17.3114C16.7592 17.0485 17.0697 16.7829 17.3009 16.4858C17.3762 16.3889 17.4425 16.29 17.4988 16.181C17.5305 16.1195 17.5472 16.0387 17.6099 16.0005C17.7425 15.9199 17.9386 15.8883 18.0869 15.8416C18.5001 15.7116 18.9266 15.6107 19.3522 15.5314C19.6124 15.483 19.9545 15.4765 19.9864 15.1379C20.0194 14.7865 19.9885 14.4187 19.9885 14.0656C19.9885 13.3076 19.9813 12.5499 19.9813 11.7923L19.9813 10.9916C19.9814 10.912 19.9615 10.7658 20.054 10.7304C20.1099 10.7089 20.2822 10.6602 20.3323 10.706C20.3803 10.7498 20.3531 10.9033 20.3531 10.963V11.7136V14.8734V15.6598C20.3531 15.7303 20.3823 15.8887 20.3285 15.9426C20.2685 16.0028 20.0769 15.9893 19.9956 15.9983C19.7229 16.0285 19.451 16.0964 19.1807 16.1436C18.4004 16.2798 17.5786 16.56 17.0331 17.1556C16.9395 17.2579 16.778 17.3671 16.717 17.4907C16.6849 17.5556 16.769 17.643 16.7988 17.6976C16.8703 17.8289 16.9245 17.9743 16.9124 18.1262C16.885 18.4695 16.5638 18.7937 16.221 18.8243C15.8381 18.8584 15.6116 18.6036 15.3687 18.3478C15.0752 18.0385 14.7776 17.7329 14.487 17.4208C14.3623 17.287 14.2286 17.162 14.1036 17.0286C14.0649 16.9873 14.004 16.8939 13.9403 16.8951C13.8758 16.8964 13.802 16.9903 13.7595 17.0324C13.6252 17.1655 13.491 17.3027 13.3472 17.4256V17.447C13.5236 17.5827 13.6745 17.7605 13.8305 17.9187C14.097 18.1891 14.3683 18.4549 14.6335 18.7267C14.8409 18.9393 15.0303 19.1738 15.2734 19.3478C15.6457 19.6143 16.1422 19.6921 16.5785 19.5591C16.7195 19.5161 16.8507 19.4584 16.9726 19.3746C17.142 19.2582 17.2919 19.1242 17.4106 18.9555C17.6072 18.6762 17.7184 18.3466 17.7106 18.0046C17.7078 17.8806 17.6985 17.7535 17.6667 17.633C17.6558 17.5916 17.6169 17.5188 17.6537 17.4819C17.6993 17.4361 17.7921 17.4199 17.8508 17.3951C18.013 17.3265 18.1753 17.2548 18.3442 17.2046C18.9139 17.0354 19.4898 16.8606 20.0814 16.7861C20.3699 16.7498 20.9359 16.7822 21.0903 16.4827C21.218 16.2349 21.1466 15.8387 21.1466 15.5669C21.1466 14.871 21.1395 14.175 21.1395 13.4794V11.0774V10.4268C21.1395 10.2977 21.1535 10.165 21.0955 10.0453C20.9503 9.74579 20.5497 9.86276 20.2959 9.91086C20.228 9.92372 20.0809 9.99166 20.0189 9.94602C19.9574 9.90074 19.9964 9.70981 19.9924 9.64044C19.976 9.358 20.063 9.01074 19.7669 8.84059C19.62 8.75623 19.459 8.7975 19.3022 8.81187C19.015 8.83818 18.7305 8.85603 18.4443 8.90077C17.435 9.0586 16.4414 9.38221 15.5814 9.94484C15.2487 10.1625 14.9856 10.4519 14.6697 10.6842Z" fill="#FFECD0"/>
</g>
<defs>
<filter id="filter0_d_686_11066" x="8.67054" y="13.7969" width="12.008" height="22.4172" filterUnits="userSpaceOnUse" color-interpolation-filters="sRGB">
<feFlood flood-opacity="0" result="BackgroundImageFix"/>
<feColorMatrix in="SourceAlpha" type="matrix" values="0 0 0 0 0 0 0 0 0 0 0 0 0 0 0 0 0 0 127 0" result="hardAlpha"/>
<feOffset dy="1.20079"/>
<feGaussianBlur stdDeviation="0.600397"/>
<feColorMatrix type="matrix" values="0 0 0 0 0.937255 0 0 0 0 0.67451 0 0 0 0 0.235294 0 0 0 0.2 0"/>
<feBlend mode="darken" in2="BackgroundImageFix" result="effect1_dropShadow_686_11066"/>
<feBlend mode="normal" in="SourceGraphic" in2="effect1_dropShadow_686_11066" result="shape"/>
</filter>
<filter id="filter1_d_686_11066" x="0.264917" y="0.588269" width="28.819" height="28.8188" filterUnits="userSpaceOnUse" color-interpolation-filters="sRGB">
<feFlood flood-opacity="0" result="BackgroundImageFix"/>
<feColorMatrix in="SourceAlpha" type="matrix" values="0 0 0 0 0 0 0 0 0 0 0 0 0 0 0 0 0 0 127 0" result="hardAlpha"/>
<feOffset dy="1.20079"/>
<feGaussianBlur stdDeviation="1.20079"/>
<feColorMatrix type="matrix" values="0 0 0 0 0.752941 0 0 0 0 0.266667 0 0 0 0 0.266667 0 0 0 0.2 0"/>
<feBlend mode="normal" in2="BackgroundImageFix" result="effect1_dropShadow_686_11066"/>
<feBlend mode="normal" in="SourceGraphic" in2="effect1_dropShadow_686_11066" result="shape"/>
</filter>
<filter id="filter2_d_686_11066" x="3.86732" y="3.59003" width="21.6142" height="21.6145" filterUnits="userSpaceOnUse" color-interpolation-filters="sRGB">
<feFlood flood-opacity="0" result="BackgroundImageFix"/>
<feColorMatrix in="SourceAlpha" type="matrix" values="0 0 0 0 0 0 0 0 0 0 0 0 0 0 0 0 0 0 127 0" result="hardAlpha"/>
<feOffset dy="0.600397"/>
<feGaussianBlur stdDeviation="0.600397"/>
<feColorMatrix type="matrix" values="0 0 0 0 0.643137 0 0 0 0 0.301509 0 0 0 0 0.0196078 0 0 0 0.2 0"/>
<feBlend mode="normal" in2="BackgroundImageFix" result="effect1_dropShadow_686_11066"/>
<feBlend mode="normal" in="SourceGraphic" in2="effect1_dropShadow_686_11066" result="shape"/>
</filter>
<filter id="filter3_i_686_11066" x="8.1665" y="8.78906" width="13" height="11.4564" filterUnits="userSpaceOnUse" color-interpolation-filters="sRGB">
<feFlood flood-opacity="0" result="BackgroundImageFix"/>
<feBlend mode="normal" in="SourceGraphic" in2="BackgroundImageFix" result="shape"/>
<feColorMatrix in="SourceAlpha" type="matrix" values="0 0 0 0 0 0 0 0 0 0 0 0 0 0 0 0 0 0 127 0" result="hardAlpha"/>
<feOffset dy="0.6"/>
<feGaussianBlur stdDeviation="0.3"/>
<feComposite in2="hardAlpha" operator="arithmetic" k2="-1" k3="1"/>
<feColorMatrix type="matrix" values="0 0 0 0 0.8 0 0 0 0 0.623529 0 0 0 0 0.411765 0 0 0 0.4 0"/>
<feBlend mode="normal" in2="shape" result="effect1_innerShadow_686_11066"/>
</filter>
<linearGradient id="paint0_linear_686_11066" x1="2.6665" y1="1.78906" x2="2.6665" y2="25.8049" gradientUnits="userSpaceOnUse">
<stop stop-color="#F9C685"/>
<stop offset="1" stop-color="#DB963B"/>
</linearGradient>
<linearGradient id="paint1_linear_686_11066" x1="5.66846" y1="4.79102" x2="5.66846" y2="22.8029" gradientUnits="userSpaceOnUse">
<stop stop-color="#FDDA9D"/>
<stop offset="1" stop-color="#EFB35E"/>
</linearGradient>
</defs>
</svg>
