<svg width="94" height="108" viewBox="0 0 94 108" fill="none" xmlns="http://www.w3.org/2000/svg">
<g clip-path="url(#clip0_683_10668)">
<rect x="0.666748" width="92.6667" height="108" rx="8" fill="url(#paint0_linear_683_10668)"/>
<path d="M-30.4893 -15.4276C-23.8782 -8.51784 -17.5739 -1.92809 -6.95364 2.38097C8.9684 8.84188 20.7901 9.46795 31.5601 10.0378C42.7198 10.629 52.7511 11.1599 65.0467 18.061C78.6367 25.6888 84.1241 32.9144 89.7641 40.3415C94.1508 46.1181 98.6301 52.0165 107.087 58.3203C122.729 69.9806 138.979 74 158.308 74H222.576V-65H-452V74H-387.732C-368.402 74 -352.154 69.9806 -336.511 58.3203C-328.053 52.0165 -323.576 46.1181 -319.188 40.3415C-313.546 32.9148 -308.058 25.6888 -294.468 18.061C-282.174 11.1599 -272.144 10.629 -260.982 10.0378C-250.213 9.46795 -238.392 8.84188 -222.47 2.38097C-211.85 -1.92809 -205.545 -8.51784 -198.934 -15.4276C-185.391 -29.5827 -170.562 -45.0823 -114.712 -45.0823C-58.8618 -45.0823 -44.0325 -29.5827 -30.4893 -15.4276Z" fill="url(#paint1_linear_683_10668)"/>
<ellipse cx="-4.83325" cy="234.5" rx="192.5" ry="155.5" fill="url(#paint2_linear_683_10668)"/>
<g opacity="0.5">
<path d="M64.7383 39.2626C68.8335 36.152 74.4999 36.152 78.5952 39.2626L105.219 59.485C109.056 62.3997 110.659 67.4044 109.229 72.0061L98.8571 105.377C97.3683 110.168 92.9353 113.432 87.9187 113.432H55.4148C50.3981 113.432 45.9652 110.168 44.4763 105.377L34.1048 72.0061C32.6746 67.4044 34.2774 62.3997 38.1148 59.485L64.7383 39.2626Z" fill="white" fill-opacity="0.6"/>
<path d="M65.8933 40.7832C69.306 38.191 74.0275 38.191 77.4402 40.7832L104.064 61.0049C107.262 63.4338 108.598 67.6048 107.406 71.4395L97.0339 104.811C95.7932 108.803 92.0992 111.523 87.9187 111.523H55.4148C51.2343 111.523 47.5403 108.803 46.2996 104.811L35.9275 71.4395C34.7358 67.6047 36.0715 63.4338 39.2693 61.0049L65.8933 40.7832Z" stroke="white" stroke-opacity="0.1" stroke-width="3.81818"/>
<path d="M71.6662 48.6357L44.939 66.9312L62.1208 74.2494L71.6662 66.9312V48.6357Z" fill="white" fill-opacity="0.1"/>
</g>
</g>
<defs>
<linearGradient id="paint0_linear_683_10668" x1="0.666748" y1="54" x2="93.3334" y2="54" gradientUnits="userSpaceOnUse">
<stop offset="1" stop-color="#4981A8"/>
<stop stop-color="#1C6EA4"/>
</linearGradient>
<linearGradient id="paint1_linear_683_10668" x1="222.576" y1="4.5" x2="-452" y2="4.5" gradientUnits="userSpaceOnUse">
<stop offset="1" stop-color="#0F4A73"/>
<stop stop-color="#1C6EA4"/>
</linearGradient>
<linearGradient id="paint2_linear_683_10668" x1="-197.333" y1="234.5" x2="187.667" y2="234.5" gradientUnits="userSpaceOnUse">
<stop offset="1" stop-color="#4981A8"/>
<stop stop-color="#1C6EA4"/>
</linearGradient>
<clipPath id="clip0_683_10668">
<rect x="0.666748" width="92.6667" height="108" rx="8" fill="white"/>
</clipPath>
</defs>
</svg>
