<svg width="372" height="138" viewBox="0 0 372 138" fill="none" xmlns="http://www.w3.org/2000/svg">
<g clip-path="url(#clip0_791_12439)">
<rect width="372" height="138" rx="20" fill="#498BB6"/>
<mask id="mask0_791_12439" style="mask-type:alpha" maskUnits="userSpaceOnUse" x="0" y="0" width="372" height="138">
<rect width="372" height="138" rx="20" fill="#EAEAFA"/>
</mask>
<g mask="url(#mask0_791_12439)">
<path fill-rule="evenodd" clip-rule="evenodd" d="M0 111.11L12.2149 115.603C24.4299 120.095 49.9701 128.439 74.4 127.797C98.8299 126.514 116.042 105.033 139.361 91.4658C159.904 78.6523 182.669 74.2607 212.651 78.6528C241.745 82.9149 273.17 102.766 297.6 104.692C322.03 107.259 347.57 102.766 359.785 100.841L372 98.2737V150.261H359.785C347.57 150.261 322.03 150.261 297.6 150.261C273.17 150.261 247.63 150.261 223.2 150.261C198.77 150.261 173.23 150.261 148.8 150.261C124.37 150.261 98.8299 150.261 74.4 150.261C49.9701 150.261 24.4299 150.261 12.2149 150.261H0V111.11Z" fill="#1C6EA4"/>
<path fill-rule="evenodd" clip-rule="evenodd" d="M0 102.11L12.2149 106.603C24.4299 111.095 49.9701 119.439 74.4 118.797C98.8299 117.514 116.042 96.0333 139.361 82.4658C159.904 69.6523 182.669 65.2607 212.651 69.6529C241.745 73.9149 273.17 93.7664 297.6 95.6919C322.03 98.2591 347.57 93.7664 359.785 91.841L372 89.2738V141.261H359.785C347.57 141.261 322.03 141.261 297.6 141.261C273.17 141.261 247.63 141.261 223.2 141.261C198.77 141.261 173.23 141.261 148.8 141.261C124.37 141.261 98.8299 141.261 74.4 141.261C49.9701 141.261 24.4299 141.261 12.2149 141.261H0V102.11Z" stroke="#1C6EA4"/>
<ellipse cx="74.0681" cy="78.5821" rx="74.0681" ry="78.5821" transform="matrix(-0.539721 -0.841844 0.887244 -0.461301 283.164 46.208)" fill="#1C6EA4"/>
<path d="M243.631 -6.37665C221.717 -40.5581 234.917 -84.4231 273.203 -104.329C311.489 -124.235 360.273 -112.597 382.187 -78.4153C404.101 -44.2338 390.902 -0.368857 352.616 19.5371C314.329 39.443 265.546 27.8048 243.631 -6.37665Z" stroke="#1C6EA4"/>
<ellipse cx="64.2953" cy="62.3238" rx="64.2953" ry="62.3238" transform="matrix(-0.539721 -0.841844 0.887244 -0.461301 304.818 11.7529)" fill="#6666CB"/>
</g>
<path d="M299.433 71.2134L322.809 76.6773C325.822 77.3815 327.457 80.2145 326.787 83.0812L321.972 103.681C321.302 106.548 318.58 108.363 315.567 107.658L292.191 102.194C289.324 101.524 287.543 98.6571 288.213 95.7905L293.028 75.1905C293.698 72.3239 296.566 70.5432 299.433 71.2134Z" fill="white"/>
<path opacity="0.4" d="M318.775 83.1148L315.792 94.8414C315.324 96.6828 314.108 97.4054 312.267 96.9371L300.443 93.9297C298.602 93.4614 297.879 92.2457 298.348 90.4044L301.33 78.6777L318.775 83.1148Z" fill="url(#paint0_linear_791_12439)"/>
<path d="M319.559 84.0882L300.176 79.1581C299.779 79.0571 299.533 78.6437 299.634 78.2464C299.736 77.849 300.149 77.6033 300.546 77.7044L319.929 82.6345C320.326 82.7356 320.572 83.1489 320.471 83.5462C320.37 83.9436 319.957 84.1893 319.559 84.0882Z" fill="#1C6EA4"/>
<path d="M309.565 101.76C309.375 101.979 309.076 102.058 308.814 101.992C308.708 101.965 308.599 101.906 308.514 101.833L305.409 99.1547L301.401 100.024C301.291 100.047 301.168 100.047 301.061 100.02C300.799 99.9532 300.575 99.7412 300.513 99.4572C300.422 99.0421 300.679 98.6429 301.091 98.5622L305.002 97.7099L305.628 95.2483L307.082 95.618L306.456 98.0797L309.484 100.697C309.808 100.965 309.842 101.438 309.565 101.76Z" fill="#1C6EA4"/>
<path d="M303.288 89.2364C303.085 89.1847 302.894 89.0432 302.793 88.8318C302.61 88.4551 302.774 88.0119 303.151 87.8292L306.852 86.0568C307.192 85.8957 307.575 85.89 307.9 86.0344C308.234 86.1813 308.48 86.4709 308.585 86.8279L309.171 88.7827L312.612 87.1403C312.989 86.9575 313.432 87.1218 313.615 87.4985C313.798 87.8751 313.634 88.3183 313.257 88.5011L309.556 90.2735C309.216 90.4346 308.832 90.4403 308.508 90.2958C308.174 90.149 307.928 89.8594 307.822 89.5024L307.236 87.5476L303.795 89.19C303.632 89.2621 303.453 89.2783 303.288 89.2364Z" fill="url(#paint1_linear_791_12439)"/>
<path d="M85.3273 78.5491L116.284 83.6957C120.274 84.3591 122.647 87.9161 122.016 91.7123L117.48 118.992C116.849 122.788 113.453 125.386 109.463 124.723L78.5065 119.576C74.7098 118.945 72.1436 115.356 72.7748 111.56L77.3101 84.2799C77.9412 80.4837 81.5307 77.9179 85.3273 78.5491Z" fill="white"/>
<path d="M90.7246 96.9865L87.1657 96.3451C85.8608 96.1099 84.9856 94.8499 85.2208 93.545L85.6483 91.1724C85.8835 89.8675 87.1436 88.9922 88.4485 89.2274L92.0074 89.8688C93.3123 90.1039 94.1875 91.364 93.9523 92.6689L93.5248 95.0415C93.2896 96.3464 92.0295 97.2217 90.7246 96.9865Z" fill="#1C6EA4"/>
<path d="M107.309 98.7508L103.038 97.9812C102.255 97.8401 101.73 97.084 101.871 96.3011L102.213 94.4031C102.355 93.6201 103.111 93.0949 103.894 93.236L108.164 94.0057C108.947 94.1468 109.472 94.9029 109.331 95.6858L108.989 97.5838C108.848 98.3668 108.092 98.892 107.309 98.7508Z" fill="#1C6EA4"/>
<path d="M105.706 107.648L101.435 106.879C100.652 106.738 100.127 105.981 100.268 105.199L100.61 103.301C100.751 102.518 101.507 101.992 102.29 102.134L106.561 102.903C107.344 103.044 107.869 103.8 107.728 104.583L107.386 106.481C107.245 107.264 106.489 107.789 105.706 107.648Z" fill="#1C6EA4"/>
<path opacity="0.37" d="M100.279 105.139C100.765 105.227 101.241 104.896 101.329 104.41C101.416 103.923 101.086 103.447 100.599 103.36L97.337 102.772L98.6198 95.6541L101.882 96.242C102.368 96.3296 102.844 95.999 102.932 95.5126C103.02 95.0262 102.689 94.5502 102.203 94.4626L93.8987 92.966C93.4124 92.8784 92.9363 93.209 92.8487 93.6954C92.761 94.1818 93.0917 94.6578 93.5781 94.7454L96.8403 95.3334L94.2214 109.865C93.8964 111.669 95.0926 113.391 96.8957 113.716L98.6752 114.036C99.1615 114.124 99.6376 113.793 99.7252 113.307C99.8129 112.821 99.4822 112.345 98.9959 112.257L97.2164 111.936C96.3979 111.789 95.8533 111.005 96.0008 110.186L97.0163 104.551L100.279 105.139Z" fill="url(#paint2_linear_791_12439)"/>
<path d="M104.102 116.545L99.8316 115.775C99.0486 115.634 98.5235 114.878 98.6646 114.095L99.0066 112.197C99.1477 111.414 99.9038 110.889 100.687 111.03L104.957 111.8C105.74 111.941 106.265 112.697 106.124 113.48L105.782 115.378C105.641 116.161 104.885 116.686 104.102 116.545Z" fill="#1C6EA4"/>
</g>
<defs>
<linearGradient id="paint0_linear_791_12439" x1="299.482" y1="85.9463" x2="316.926" y2="90.3834" gradientUnits="userSpaceOnUse">
<stop offset="1" stop-color="#4981A8"/>
<stop stop-color="#1C6EA4"/>
</linearGradient>
<linearGradient id="paint1_linear_791_12439" x1="303.112" y1="86.8675" x2="313.297" y2="89.4581" gradientUnits="userSpaceOnUse">
<stop offset="1" stop-color="#4981A8"/>
<stop stop-color="#1C6EA4"/>
</linearGradient>
<linearGradient id="paint2_linear_791_12439" x1="91.2452" y1="102.593" x2="101.329" y2="104.41" gradientUnits="userSpaceOnUse">
<stop offset="1" stop-color="#4981A8"/>
<stop stop-color="#1C6EA4"/>
</linearGradient>
<clipPath id="clip0_791_12439">
<rect width="372" height="138" fill="white"/>
</clipPath>
</defs>
</svg>
