<svg width="372" height="138" viewBox="0 0 372 138" fill="none" xmlns="http://www.w3.org/2000/svg">
<g clip-path="url(#clip0_791_12467)">
<rect width="372" height="138" rx="20" fill="#498BB6"/>
<mask id="mask0_791_12467" style="mask-type:alpha" maskUnits="userSpaceOnUse" x="0" y="0" width="372" height="138">
<rect width="372" height="138" rx="20" fill="#EAEAFA"/>
</mask>
<g mask="url(#mask0_791_12467)">
<path fill-rule="evenodd" clip-rule="evenodd" d="M0 111.11L12.2149 115.603C24.4299 120.095 49.9701 128.439 74.4 127.797C98.8299 126.514 116.042 105.033 139.361 91.4658C159.904 78.6523 182.669 74.2607 212.651 78.6528C241.745 82.9149 273.17 102.766 297.6 104.692C322.03 107.259 347.57 102.766 359.785 100.841L372 98.2737V150.261H359.785C347.57 150.261 322.03 150.261 297.6 150.261C273.17 150.261 247.63 150.261 223.2 150.261C198.77 150.261 173.23 150.261 148.8 150.261C124.37 150.261 98.8299 150.261 74.4 150.261C49.9701 150.261 24.4299 150.261 12.2149 150.261H0V111.11Z" fill="#1C6EA4"/>
<path fill-rule="evenodd" clip-rule="evenodd" d="M0 102.11L12.2149 106.603C24.4299 111.095 49.9701 119.439 74.4 118.797C98.8299 117.514 116.042 96.0333 139.361 82.4658C159.904 69.6523 182.669 65.2607 212.651 69.6529C241.745 73.9149 273.17 93.7664 297.6 95.6919C322.03 98.2591 347.57 93.7664 359.785 91.841L372 89.2738V141.261H359.785C347.57 141.261 322.03 141.261 297.6 141.261C273.17 141.261 247.63 141.261 223.2 141.261C198.77 141.261 173.23 141.261 148.8 141.261C124.37 141.261 98.8299 141.261 74.4 141.261C49.9701 141.261 24.4299 141.261 12.2149 141.261H0V102.11Z" stroke="#1C6EA4"/>
<ellipse cx="74.0681" cy="78.5821" rx="74.0681" ry="78.5821" transform="matrix(-0.539721 -0.841844 0.887244 -0.461301 283.164 46.208)" fill="#1C6EA4"/>
<path d="M243.631 -6.37665C221.717 -40.5581 234.917 -84.4231 273.203 -104.329C311.489 -124.235 360.273 -112.597 382.187 -78.4153C404.101 -44.2338 390.902 -0.368857 352.616 19.5371C314.329 39.443 265.546 27.8048 243.631 -6.37665Z" stroke="#1C6EA4"/>
<ellipse cx="64.2953" cy="62.3238" rx="64.2953" ry="62.3238" transform="matrix(-0.539721 -0.841844 0.887244 -0.461301 304.818 11.7529)" fill="#6666CB"/>
</g>
</g>
<defs>
<clipPath id="clip0_791_12467">
<rect width="372" height="138" fill="white"/>
</clipPath>
</defs>
</svg>
