<svg width="140" height="140" viewBox="0 0 140 140" fill="none" xmlns="http://www.w3.org/2000/svg">
<path d="M70.0334 33.1584C67.1135 29.61 62.9761 26.8824 59.0382 24.5927C50.2393 19.4765 39.9733 15.8038 29.8524 14.5443C27.0624 14.197 24.2977 13.9088 21.5031 13.6442C19.9476 13.4969 18.0326 13.2115 16.5906 13.9858C13.63 15.5754 14.3466 19.3952 14.3465 22.2C14.3465 22.9125 14.6956 24.9783 14.0809 25.4628C13.4881 25.9301 11.8155 25.1893 11.141 25.0775C8.39245 24.6219 4.54536 23.4423 2.85438 26.5314C2.27923 27.5821 2.38339 28.9419 2.38969 30.102C2.40103 32.1889 2.41896 34.2762 2.41896 36.364V60.1446V84.8198C2.41896 87.5725 1.52543 92.0997 3.516 94.3017C5.33607 96.3151 9.47896 96.4002 12.0356 96.458C17.1335 96.5734 22.7364 98.0563 27.616 99.4888C29.134 99.9344 30.6712 100.337 32.1634 100.865C33.0628 101.184 34.0098 101.706 34.9959 101.608C36.5886 101.451 38.3356 99.023 39.3789 97.9474C39.7563 97.5584 40.3948 97.0561 40.5489 96.5164C40.7236 95.904 39.6538 95.4712 39.2529 95.2294C37.6835 94.2831 36.0254 93.6591 34.3252 93.002C28.8561 90.8882 23.0409 90.0671 17.3284 88.9334C15.8597 88.6419 14.34 88.4646 12.8556 88.2847C12.3137 88.2191 11.4491 88.4171 11.0246 87.9926C10.4288 87.3969 10.7683 85.5303 10.7683 84.7452V75.5759V45.1605V36.8858C10.7683 35.9831 10.4619 34.3352 10.9203 33.5316C11.3316 32.8104 14.0185 33.4238 14.2352 34.1455C14.9878 36.6516 14.3465 40.2366 14.3465 42.8496V72.0722C14.3465 75.0469 13.172 80.3871 15.8941 82.4531C17.8483 83.9362 21.5339 83.8681 23.8886 84.3347C27.5539 85.0609 31.1976 86.0138 34.7725 87.0993C36.3925 87.5911 38.2552 87.9754 39.7647 88.7457C41.0185 89.3856 42.0734 90.4138 43.2117 91.2301C44.5047 92.1574 46.9043 93.2254 47.7052 94.63C48.0919 95.3083 46.9569 96.1176 46.551 96.5237C44.98 98.0955 43.3329 99.6088 41.849 101.265C38.9655 104.483 38.0461 108.732 38.6784 112.924C38.8876 114.311 39.5545 115.579 39.7672 116.95C40.6679 118.046 41.2009 119.402 42.1502 120.478C45.1661 123.898 49.2725 126.135 53.8567 126.536C58.0679 126.905 62.0687 125.741 65.5606 123.397C66.2698 122.921 68.6006 121.449 68.5288 120.463C68.4833 119.839 67.5314 119.148 67.1249 118.739C65.8245 117.43 64.5426 116.104 63.2496 114.788H63.1751C60.5684 116.818 58.2781 118.529 54.8258 118.425C50.0666 118.282 45.4275 113.274 47.2932 108.454C48.3326 105.769 51.7208 103.403 53.7428 101.439C58.616 96.7066 63.3248 91.6429 68.4679 87.2053C67.9864 86.2603 67.0385 85.4917 66.2998 84.7432C65.4867 83.9194 64.649 83.123 63.8509 82.2839C63.5717 81.9903 63.2039 81.4021 62.7672 81.3443C62.0244 81.2459 61.0646 82.6159 60.6058 83.0755L56.4658 87.2053C55.9959 87.6752 55.3221 88.6535 54.642 88.8004C54.003 88.9384 53.2604 87.8847 52.8016 87.5406C51.3299 86.4369 49.8203 85.3775 48.387 84.2245C47.877 83.8142 47.0097 83.3687 47.1498 82.5899C47.4557 80.8885 48.7395 79.2307 49.9328 78.0582C53.171 74.8764 57.8606 74.4112 61.7611 76.6579C63.6233 77.7305 65.1452 79.5225 66.6623 81.022C69.1263 83.4574 71.6078 85.8745 74.059 88.3236C75.6754 89.9386 77.2857 91.5555 78.9043 93.1683C79.3681 93.6305 80.1369 94.7185 80.8749 94.2134C82.37 93.1901 83.6351 91.529 84.9422 90.2744C85.3371 89.8955 86.1949 89.3131 86.1892 88.6966C86.1824 87.9315 84.4142 86.6776 83.899 86.1616C81.582 83.8411 79.2366 81.5476 76.9015 79.245C71.0221 73.4473 65.5437 66.6978 56.5404 66.7826C53.753 66.8088 51.5036 68.0075 48.862 68.4939L43.7225 72.4501L40.0654 77.8869C40.0243 78.45 39.8609 79.6579 39.2017 79.8367C38.4141 80.0503 36.6985 79.0451 35.8907 78.8122C33.0179 77.9842 30.1019 77.1687 27.1687 76.5861C26.155 76.3848 23.0469 76.3567 22.6425 75.2516C22.3339 74.4082 22.5756 73.2593 22.5265 72.3703C22.3699 69.5339 22.5898 66.6833 22.5295 63.8419C22.3247 54.1933 22.6076 44.5282 22.4788 34.873C22.4374 31.7678 22.4722 28.66 22.4722 25.5546C22.4722 24.7271 22.1483 22.8681 22.8147 22.2432C23.2143 21.8685 24.0048 22.162 24.485 22.1877C26.0985 22.274 27.6578 22.6581 29.256 22.8075C34.5218 23.2998 40.099 25.1949 44.9855 27.1526C46.8155 27.8858 49.1048 28.4719 50.6511 29.7292C52.1275 30.1253 53.5245 31.0948 54.8214 31.8796C57.5813 33.5497 60.1839 35.3965 62.644 37.4877C63.7446 38.4233 65.684 39.8591 65.958 41.3586C66.3011 43.2357 66.0078 45.4148 66.0078 47.3224V59.3991C66.0078 60.697 65.7275 62.4051 66.1762 63.6418C66.5974 64.8031 68.8727 65.752 70.0334 65.7656C71.5731 65.7836 73.588 64.4553 74.0507 62.9762C74.4321 61.7572 74.208 60.2904 74.208 59.0264V51.2734C74.208 49.0532 74.1857 46.8328 74.1749 44.6139C74.169 43.406 73.9659 42.0035 74.3896 40.8405C74.8757 39.5065 76.6082 38.2253 77.6346 37.2923C80.0993 35.0519 82.8579 33.0944 85.7332 31.4139C86.966 30.6934 88.3225 29.7943 89.7139 29.4311C91.596 27.9664 94.5519 27.1334 96.7959 26.387C101.36 24.8688 106.08 23.2941 110.885 22.7872C112.485 22.6185 114.043 22.2669 115.656 22.1903C116.067 22.1709 116.87 21.8438 117.211 22.1565C117.825 22.7206 117.52 24.5787 117.52 25.3309V34.2766V64.0956L117.52 72.1467C117.52 73.0566 117.83 74.5834 117.341 75.3904C116.803 76.2782 114.789 76.2122 113.867 76.4091C110.639 77.0984 107.486 77.9313 104.326 78.8834C103.572 79.1108 101.272 80.2927 100.601 79.8848C99.9875 79.5117 99.829 77.9337 99.564 77.2905C98.8255 75.4978 97.7364 73.883 96.4784 72.4164C91.5501 66.6707 81.6042 64.9921 75.1524 69.0511C74.7558 69.3006 73.8098 69.7181 73.7562 70.2509C73.6959 70.8501 74.6027 71.5015 74.9739 71.8762C75.9699 72.8816 76.9664 73.8918 77.9453 74.9136C78.3918 75.3796 78.8487 76.1149 79.4595 76.3753C80.1946 76.6888 81.4993 75.803 82.2591 75.6474C84.1578 75.2587 86.0504 75.2957 87.8367 76.1466C91.7476 78.0095 94.1247 82.7476 91.9378 86.758C90.8407 88.7698 88.81 90.3566 87.1956 91.9467C84.3338 94.7652 81.512 97.6281 78.6789 100.475C77.4263 101.734 75.0619 103.296 74.3079 104.902C74.0111 105.534 74.8691 106.184 75.2437 106.583C76.303 107.714 77.3693 108.842 78.46 109.943C78.817 110.303 79.3148 110.972 79.8706 110.994C80.7054 111.026 81.8677 109.433 82.4094 108.896C84.6239 106.7 86.7801 104.443 89.0122 102.266C91.8225 99.5243 95.0605 96.755 97.4709 93.6563C98.2564 92.6466 98.9478 91.6154 99.5347 90.478C99.8652 89.8374 100.039 88.9943 100.693 88.5963C102.076 87.7553 104.12 87.426 105.667 86.9393C109.975 85.5834 114.423 84.5311 118.862 83.7049C121.575 83.1999 125.143 83.1316 125.474 79.6014C125.819 75.9369 125.497 72.1017 125.497 68.4193C125.497 60.5155 125.422 52.6138 125.422 44.7133L125.422 36.364C125.422 35.5337 125.216 34.0101 126.18 33.6401C126.763 33.4166 128.559 32.9087 129.082 33.3862C129.582 33.8427 129.299 35.4438 129.299 36.0658V43.8932V76.8432V85.0434C129.299 85.7786 129.603 87.4303 129.042 87.9929C128.417 88.6205 126.419 88.4797 125.571 88.5733C122.727 88.8876 119.892 89.5962 117.073 90.0883C108.936 91.5085 100.367 94.4302 94.6785 100.641C93.7019 101.708 92.0186 102.847 91.3818 104.136C91.0477 104.813 91.9241 105.724 92.2346 106.293C92.9808 107.662 93.5456 109.178 93.4194 110.762C93.1342 114.342 89.7848 117.723 86.2101 118.042C82.2171 118.398 79.8547 115.741 77.3227 113.073C74.2615 109.848 71.1582 106.661 68.1275 103.407C66.8278 102.011 65.434 100.708 64.1302 99.3168C63.7264 98.8861 63.0918 97.9119 62.427 97.9251C61.7549 97.9385 60.9849 98.9174 60.5422 99.3561C59.1414 100.744 57.7424 102.175 56.2421 103.457V103.68C58.082 105.095 59.6559 106.949 61.2818 108.599C64.0609 111.419 66.8901 114.19 69.6554 117.024C71.8181 119.241 73.794 121.687 76.3289 123.501C80.2108 126.28 85.3882 127.091 89.9375 125.704C91.408 125.256 92.7766 124.654 94.0476 123.781C95.8134 122.567 97.3766 121.17 98.615 119.411C100.665 116.498 101.824 113.06 101.743 109.495C101.714 108.201 101.617 106.876 101.285 105.62C101.171 105.188 100.766 104.429 101.15 104.044C101.626 103.566 102.593 103.397 103.206 103.138C104.897 102.424 106.589 101.675 108.351 101.152C114.291 99.3878 120.296 97.5652 126.466 96.7886C129.474 96.4099 135.376 96.7471 136.986 93.6239C138.318 91.0407 137.573 86.9088 137.573 84.0743C137.573 76.818 137.499 69.5601 137.499 62.3065V37.2585V30.4747C137.499 29.1279 137.645 27.7449 137.04 26.4965C135.527 23.3731 131.349 24.5928 128.702 25.0944C127.994 25.2285 126.46 25.9369 125.814 25.4611C125.173 24.9888 125.579 22.9979 125.537 22.2745C125.366 19.3292 126.274 15.7081 123.186 13.9339C121.654 13.0541 119.976 13.4845 118.34 13.6343C115.345 13.9087 112.378 14.0948 109.394 14.5613C98.8695 16.2071 88.5079 19.5818 79.54 25.4488C76.0705 27.7186 73.3278 30.736 70.0334 33.1584Z" fill="#1C6EA4"/>
</svg>
