<svg width="140" height="140" viewBox="0 0 140 140" fill="none" xmlns="http://www.w3.org/2000/svg">
<path d="M69.943 32.7994C67.0175 29.2442 62.8723 26.5115 58.9269 24.2174C50.1113 19.0915 39.8259 15.4119 29.6858 14.1499C26.8905 13.8021 24.1206 13.5133 21.3207 13.2482C19.7622 13.1006 17.8436 12.8147 16.3988 13.5904C13.4326 15.1831 14.1506 19.0101 14.1505 21.8202C14.1505 22.5341 14.5003 24.6038 13.8844 25.0892C13.2904 25.5573 11.6147 24.8152 10.9389 24.7032C8.18516 24.2467 4.33078 23.0648 2.63659 26.1598C2.06035 27.2125 2.16471 28.5749 2.17102 29.7372C2.18238 31.828 2.20034 33.9193 2.20034 36.011V59.8367V84.5587C2.20034 87.3167 1.30512 91.8524 3.29946 94.0586C5.12298 96.0758 9.27373 96.161 11.8352 96.219C16.9428 96.3346 22.5563 97.8203 27.4451 99.2555C28.966 99.702 30.5061 100.105 32.0011 100.635C32.9023 100.954 33.8511 101.477 34.8391 101.379C36.4347 101.222 38.185 98.7889 39.2304 97.7112C39.6085 97.3214 40.2482 96.8182 40.4025 96.2775C40.5776 95.6639 39.5057 95.2303 39.1041 94.9881C37.5317 94.0399 35.8705 93.4147 34.1671 92.7564C28.6876 90.6386 22.8614 89.8159 17.1381 88.6801C15.6666 88.3881 14.1439 88.2105 12.6568 88.0302C12.1138 87.9644 11.2476 88.1628 10.8223 87.7375C10.2254 87.1407 10.5655 85.2706 10.5655 84.484V75.2973V44.8243V36.5338C10.5655 35.6295 10.2585 33.9784 10.7178 33.1732C11.1299 32.4507 13.8219 33.0653 14.039 33.7883C14.793 36.2992 14.1505 39.891 14.1505 42.5089V71.7869C14.1505 74.7672 12.9737 80.1177 15.701 82.1875C17.6589 83.6734 21.3516 83.6052 23.7107 84.0726C27.3829 84.8003 31.0335 85.7549 34.6152 86.8425C36.2383 87.3353 38.1045 87.7203 39.6169 88.4921C40.8731 89.1332 41.9299 90.1633 43.0704 90.9811C44.3659 91.9102 46.77 92.9803 47.5724 94.3875C47.9599 95.0671 46.8227 95.8779 46.416 96.2848C44.8421 97.8595 43.1919 99.3758 41.7051 101.035C38.8162 104.26 37.8951 108.517 38.5285 112.716C38.7382 114.106 39.4063 115.376 39.6194 116.75C40.5218 117.848 41.0558 119.206 42.0069 120.285C45.0286 123.711 49.1427 125.952 53.7356 126.354C57.9548 126.723 61.9632 125.558 65.4617 123.21C66.1722 122.733 68.5075 121.257 68.4355 120.269C68.3899 119.645 67.4362 118.952 67.0289 118.542C65.7261 117.23 64.4417 115.902 63.1463 114.584H63.0716C60.46 116.618 58.1654 118.332 54.7065 118.228C49.9383 118.084 45.2904 113.066 47.1597 108.238C48.2011 105.547 51.5956 103.177 53.6215 101.209C58.5039 96.4681 63.2216 91.3947 68.3745 86.9487C67.8921 86.0019 66.9424 85.2318 66.2023 84.482C65.3876 83.6566 64.5484 82.8586 63.7487 82.018C63.469 81.7239 63.1006 81.1346 62.663 81.0766C61.9188 80.978 60.9571 82.3506 60.4974 82.8111L56.3497 86.9487C55.8789 87.4195 55.2038 88.3997 54.5224 88.5468C53.8821 88.6851 53.1382 87.6294 52.6785 87.2847C51.204 86.1789 49.6915 85.1175 48.2555 83.9623C47.7446 83.5512 46.8756 83.1048 47.0159 82.3246C47.3225 80.62 48.6087 78.959 49.8043 77.7843C53.0486 74.5965 57.7471 74.1304 61.655 76.3813C63.5208 77.4559 65.0455 79.2514 66.5654 80.7537C69.0342 83.1937 71.5203 85.6154 73.9762 88.0692C75.5957 89.6872 77.209 91.3071 78.8307 92.9231C79.2954 93.3861 80.0656 94.4762 80.805 93.9701C82.303 92.9449 83.5704 91.2806 84.8801 90.0237C85.2757 89.644 86.1351 89.0605 86.1294 88.4429C86.1226 87.6763 84.351 86.42 83.8349 85.9031C81.5135 83.5781 79.1636 81.2803 76.8241 78.9734C70.9335 73.1647 65.4447 66.4023 56.4244 66.4873C53.6317 66.5136 51.378 67.7145 48.7314 68.2018L43.5822 72.1655L39.9181 77.6126C39.877 78.1768 39.7132 79.387 39.0528 79.5661C38.2637 79.7801 36.5449 78.773 35.7356 78.5398C32.8573 77.7101 29.9358 76.8931 26.997 76.3094C25.9813 76.1077 22.8674 76.0795 22.4622 74.9723C22.153 74.1274 22.3952 72.9763 22.346 72.0857C22.1891 69.2438 22.4094 66.3878 22.349 63.541C22.1439 53.8742 22.4273 44.1907 22.2982 34.5172C22.2567 31.4062 22.2916 28.2925 22.2916 25.1811C22.2916 24.3521 21.9671 22.4895 22.6348 21.8634C23.0351 21.4881 23.8271 21.7822 24.3082 21.8079C25.9248 21.8944 27.4871 22.2792 29.0883 22.4289C34.3641 22.9221 39.9518 24.8208 44.8476 26.7822C46.6811 27.5167 48.9747 28.104 50.5239 29.3637C52.0031 29.7605 53.4028 30.7319 54.7022 31.5182C57.4673 33.1914 60.0748 35.0417 62.5396 37.1369C63.6422 38.0742 65.5853 39.5128 65.8599 41.0152C66.2036 42.8958 65.9098 45.079 65.9098 46.9903V59.0898C65.9098 60.3902 65.6289 62.1015 66.0784 63.3406C66.5005 64.5041 68.78 65.4547 69.943 65.4683C71.4856 65.4864 73.5043 64.1556 73.9679 62.6737C74.35 61.4524 74.1255 59.9828 74.1255 58.7164V50.9488C74.1255 48.7243 74.1032 46.4997 74.0923 44.2766C74.0864 43.0664 73.883 41.6612 74.3075 40.4961C74.7944 39.1595 76.5303 37.8758 77.5586 36.9411C80.028 34.6965 82.7918 32.7353 85.6726 31.0516C86.9077 30.3297 88.2668 29.4289 89.6608 29.065C91.5464 27.5976 94.508 26.763 96.7562 26.0151C101.329 24.494 106.058 22.9163 110.872 22.4085C112.475 22.2395 114.036 21.8872 115.652 21.8105C116.064 21.791 116.868 21.4633 117.21 21.7766C117.825 22.3418 117.52 24.2034 117.52 24.9571V33.9197V63.7952L117.52 71.8616C117.52 72.7732 117.83 74.3029 117.34 75.1115C116.801 76.0009 114.784 75.9347 113.86 76.132C110.625 76.8226 107.466 77.6572 104.301 78.611C103.545 78.8389 101.241 80.0231 100.569 79.6144C99.9538 79.2405 99.7951 77.6595 99.5296 77.0151C98.7896 75.2191 97.6985 73.6012 96.4381 72.1318C91.5004 66.3752 81.5357 64.6934 75.0716 68.7601C74.6743 69.0101 73.7265 69.4284 73.6728 69.9622C73.6124 70.5625 74.5209 71.2152 74.8929 71.5906C75.8907 72.5979 76.8891 73.61 77.8698 74.6337C78.3172 75.1006 78.775 75.8373 79.387 76.0982C80.1235 76.4123 81.4306 75.5248 82.1919 75.369C84.0941 74.9795 85.9903 75.0165 87.78 75.869C91.6984 77.7355 94.0799 82.4826 91.8888 86.5006C90.7897 88.5162 88.7551 90.106 87.1377 91.6991C84.2705 94.5229 81.4433 97.3913 78.6049 100.244C77.3499 101.505 74.981 103.07 74.2255 104.679C73.9282 105.312 74.7879 105.963 75.1631 106.363C76.2244 107.496 77.2928 108.627 78.3855 109.729C78.7432 110.09 79.242 110.761 79.7989 110.782C80.6352 110.815 81.7997 109.218 82.3424 108.68C84.5611 106.48 86.7214 104.219 88.9578 102.037C91.7734 99.2911 95.0175 96.5165 97.4324 93.412C98.2194 92.4003 98.9122 91.3672 99.5002 90.2276C99.8313 89.5858 100.006 88.7411 100.661 88.3424C102.046 87.4997 104.095 87.1698 105.644 86.6822C109.961 85.3237 114.417 84.2695 118.864 83.4417C121.582 82.9357 125.157 82.8673 125.489 79.3304C125.834 75.659 125.511 71.8165 125.511 68.1272C125.511 60.2083 125.437 52.2917 125.437 44.3761L125.437 36.011C125.437 35.1792 125.23 33.6527 126.196 33.282C126.78 33.0581 128.58 32.5492 129.104 33.0276C129.604 33.4849 129.32 35.0891 129.32 35.7123V43.5546V76.567V84.7827C129.32 85.5193 129.625 87.1742 129.064 87.7378C128.437 88.3666 126.435 88.2255 125.586 88.3193C122.736 88.6342 119.896 89.3442 117.071 89.8372C108.92 91.2601 100.334 94.1874 94.6348 100.41C93.6563 101.479 91.9698 102.62 91.3319 103.912C90.9971 104.59 91.8752 105.502 92.1863 106.073C92.9339 107.444 93.4997 108.964 93.3733 110.55C93.0876 114.137 89.7318 117.524 86.1504 117.844C82.1497 118.2 79.7829 115.538 77.2461 112.866C74.1791 109.635 71.0699 106.441 68.0335 103.181C66.7313 101.783 65.3348 100.477 64.0285 99.0832C63.624 98.6516 62.9882 97.6756 62.3222 97.6889C61.6488 97.7022 60.8773 98.683 60.4338 99.1226C59.0303 100.513 57.6286 101.947 56.1255 103.231V103.455C57.9689 104.873 59.5458 106.729 61.1747 108.383C63.9592 111.208 66.7937 113.984 69.5642 116.824C71.731 119.045 73.7107 121.495 76.2504 123.314C80.1396 126.098 85.3269 126.911 89.8848 125.521C91.3581 125.072 92.7293 124.469 94.0027 123.594C95.7719 122.378 97.338 120.977 98.5788 119.215C100.633 116.297 101.794 112.853 101.713 109.281C101.683 107.985 101.586 106.657 101.254 105.398C101.14 104.965 100.734 104.205 101.118 103.819C101.595 103.341 102.564 103.172 103.178 102.912C104.872 102.196 106.568 101.446 108.333 100.922C114.285 99.1543 120.301 97.3282 126.482 96.5502C129.496 96.1707 135.41 96.5086 137.023 93.3795C138.357 90.7914 137.611 86.6517 137.611 83.8118C137.611 76.5417 137.536 69.2701 137.536 62.0027V36.9073V30.1106C137.536 28.7613 137.683 27.3756 137.077 26.1248C135.56 22.9955 131.375 24.2176 128.723 24.7201C128.014 24.8545 126.477 25.5642 125.829 25.0874C125.187 24.6143 125.594 22.6196 125.552 21.8948C125.381 18.944 126.29 15.316 123.196 13.5384C121.662 12.657 119.98 13.0882 118.341 13.2383C115.34 13.5132 112.368 13.6996 109.379 14.1671C98.8337 15.816 88.4525 19.197 79.4676 25.0751C75.9915 27.3492 73.2436 30.3724 69.943 32.7994Z" fill="#1C6EA4"/>
<g clip-path="url(#clip0_357_4492)">
<path d="M41.8665 100.935C43.3761 99.2505 45.0515 97.7111 46.6496 96.1122L54.8801 88.2558C55.5719 88.1063 56.2574 87.1111 56.7353 86.6331L60.9466 82.4323C61.4134 81.9647 62.3897 80.571 63.1454 80.6711C63.5895 80.73 63.9637 81.3284 64.2477 81.627C65.0596 82.4805 65.9116 83.2907 66.7389 84.1287C67.4902 84.89 68.4545 85.6719 68.9444 86.6331C63.7125 91.1473 58.9226 96.2983 53.9654 101.112C51.9085 103.11 48.4619 105.516 47.4046 108.248C45.5067 113.151 50.2258 118.245 55.067 118.391C58.5788 118.497 60.9086 116.756 63.5603 114.691H63.636C64.9512 116.03 66.2553 117.379 67.5781 118.71C67.9917 119.126 68.96 119.83 69.0062 120.464C69.0793 121.467 66.7083 122.965 65.9869 123.449C62.4348 125.833 58.365 127.017 54.0812 126.642C49.4179 126.234 45.2408 123.958 42.1729 120.48C41.2072 119.385 40.6651 118.005 39.7488 116.89C39.5325 115.496 38.8541 114.206 38.6413 112.795C37.9981 108.531 38.9334 104.209 41.8665 100.935Z" fill="#05B49F"/>
<path d="M49.6416 77.5508C48.4278 78.7436 47.1219 80.43 46.8106 82.1607L38.7256 79.36C39.3961 79.1782 39.5624 77.9495 39.6042 77.3766L43.3243 71.8461L48.5524 67.8217C51.2395 67.327 53.5277 66.1076 56.3631 66.0809C65.5216 65.9946 71.0945 72.8605 77.0753 78.7582C79.4506 81.1005 81.8365 83.4335 84.1934 85.794C84.7175 86.3189 86.5161 87.5944 86.523 88.3727C86.5288 88.9997 85.6563 89.5922 85.2546 89.9777C83.9249 91.2539 82.638 92.9437 81.1172 93.9845C80.3664 94.4984 79.5843 93.3916 79.1126 92.9215C77.4661 91.2808 75.828 89.636 74.1838 87.9933C71.6902 85.5019 69.166 83.0431 66.6594 80.5657C65.1163 79.0405 63.5682 77.2175 61.6739 76.1264C57.7061 73.8411 52.9357 74.3143 49.6416 77.5508Z" fill="#1C6EA4"/>
<path d="M100.128 76.771C100.398 77.4253 100.559 79.0306 101.184 79.4101C101.644 82.3183 101.687 84.2288 101.277 88.2719C100.612 88.6766 100.435 89.5343 100.099 90.1859C99.5015 91.343 98.7983 92.3918 97.9992 93.419C95.5472 96.5711 92.2535 99.3881 89.3948 102.177C87.1242 104.391 84.9308 106.688 82.6781 108.921C82.1271 109.468 80.9448 111.089 80.0956 111.055C79.5302 111.033 79.0238 110.352 78.6607 109.986C77.5511 108.867 76.4664 107.719 75.3889 106.569C75.0079 106.162 74.1351 105.501 74.4369 104.858C75.2039 103.224 77.6091 101.636 78.8833 100.355C81.7652 97.4592 84.6357 94.5469 87.5468 91.6799C89.189 90.0625 91.2547 88.4483 92.3708 86.4018C94.5953 82.3222 92.1774 77.5024 88.199 75.6074C86.3818 74.7418 84.4567 74.7043 82.5252 75.0997C81.7523 75.2579 80.4252 76.159 79.6774 75.8401C79.0561 75.5752 78.5913 74.8272 78.137 74.3532C77.1412 73.3138 76.1276 72.2862 75.1145 71.2635C74.7368 70.8823 73.8144 70.2196 73.8757 69.6101C73.9302 69.0682 74.8925 68.6435 75.296 68.3897C81.859 64.2607 91.9763 65.9682 96.9896 71.8129C98.2693 73.3048 99.3772 74.9475 100.128 76.771Z" fill="#FEBA28"/>
<path d="M91.8052 103.855C92.453 102.544 95.1587 100.3 95.1587 100.3L97.7398 98.1226C99.8636 100.521 100.794 102.087 101.88 105.364C102.217 106.643 102.315 107.991 102.345 109.307C102.428 112.933 101.249 116.431 99.1631 119.393C97.9034 121.183 96.3133 122.604 94.517 123.839C93.224 124.727 91.8318 125.339 90.336 125.795C85.7083 127.206 80.4416 126.381 76.4929 123.554C73.9142 121.708 71.9042 119.221 69.7042 116.966C66.8913 114.082 64.0134 111.264 61.1862 108.395C59.5324 106.716 57.9314 104.831 56.0597 103.392V103.164C57.5859 101.86 59.009 100.405 60.4339 98.9929C60.8843 98.5466 61.6676 97.5508 62.3512 97.5372C63.0276 97.5238 63.673 98.5148 64.0838 98.9529C65.4101 100.368 66.8279 101.694 68.15 103.113C71.2329 106.424 74.3897 109.666 77.5038 112.946C80.0794 115.66 82.4825 118.363 86.5444 118.001C90.1807 117.676 93.5878 114.237 93.8779 110.596C94.0063 108.985 93.4317 107.442 92.6727 106.05C92.3568 105.47 91.4653 104.544 91.8052 103.855Z" fill="#FA4545"/>
</g>
<defs>
<clipPath id="clip0_357_4492">
<rect width="64.531" height="61.1932" fill="white" transform="translate(38 66.0801)"/>
</clipPath>
</defs>
</svg>
