<svg width="61" height="64" viewBox="0 0 61 64" fill="none" xmlns="http://www.w3.org/2000/svg">
<g filter="url(#filter0_d_410_7435)">
<rect x="0.542725" y="0.835938" width="60.257" height="60.257" rx="30.1285" fill="#597383" shape-rendering="crispEdges"/>
<rect x="1.80686" y="2.10007" width="57.7287" height="57.7287" rx="28.8644" stroke="#8099A9" stroke-width="2.52827" shape-rendering="crispEdges"/>
<path d="M37.9135 26.6189V23.7219C37.9135 19.6661 34.7268 16.4795 30.6711 16.4795C26.6154 16.4795 23.4287 19.6661 23.4287 23.7219V26.6189C20.9663 26.6189 19.0833 28.5019 19.0833 30.9643V41.1037C19.0833 43.5661 20.9663 45.4491 23.4287 45.4491H37.9135C40.3759 45.4491 42.2589 43.5661 42.2589 41.1037V30.9643C42.2589 28.5019 40.3759 26.6189 37.9135 26.6189ZM26.3257 23.7219C26.3257 21.2595 28.2087 19.3765 30.6711 19.3765C33.1335 19.3765 35.0165 21.2595 35.0165 23.7219V26.6189H26.3257V23.7219Z" fill="#92BCCA"/>
</g>
<defs>
<filter id="filter0_d_410_7435" x="0.542725" y="0.835938" width="60.2571" height="62.3637" filterUnits="userSpaceOnUse" color-interpolation-filters="sRGB">
<feFlood flood-opacity="0" result="BackgroundImageFix"/>
<feColorMatrix in="SourceAlpha" type="matrix" values="0 0 0 0 0 0 0 0 0 0 0 0 0 0 0 0 0 0 127 0" result="hardAlpha"/>
<feOffset dy="2.10689"/>
<feComposite in2="hardAlpha" operator="out"/>
<feColorMatrix type="matrix" values="0 0 0 0 0.286425 0 0 0 0 0.414919 0 0 0 0 0.479167 0 0 0 1 0"/>
<feBlend mode="normal" in2="BackgroundImageFix" result="effect1_dropShadow_410_7435"/>
<feBlend mode="normal" in="SourceGraphic" in2="effect1_dropShadow_410_7435" result="shape"/>
</filter>
</defs>
</svg>
