<svg width="412" height="226" viewBox="0 0 412 226" fill="none" xmlns="http://www.w3.org/2000/svg">
<path d="M21.02 7.82882C35.152 24.6708 48.6279 40.7327 71.3298 51.2357C105.365 66.9837 130.635 68.5097 153.657 69.8987C177.512 71.3397 198.955 72.6337 225.237 89.4546C254.287 108.047 266.017 125.659 278.073 143.761C287.45 157.841 297.025 172.218 315.102 187.583C348.538 216.004 383.275 225.801 424.593 225.801H561.973V-113H-880V225.801H-742.62C-701.3 225.801 -666.57 216.004 -633.13 187.583C-615.05 172.218 -605.481 157.841 -596.101 143.761C-584.041 125.66 -572.311 108.047 -543.261 89.4546C-516.981 72.6337 -495.541 71.3397 -471.681 69.8987C-448.661 68.5097 -423.392 66.9837 -389.357 51.2357C-366.655 40.7327 -353.179 24.6708 -339.047 7.82882C-310.097 -26.6731 -278.398 -64.452 -159.014 -64.452C-39.6289 -64.452 -7.92993 -26.6731 21.02 7.82882Z" fill="url(#paint0_linear_322_4156)" fill-opacity="0.5"/>
<defs>
<linearGradient id="paint0_linear_322_4156" x1="-147.809" y1="284.943" x2="-151.107" y2="82.4352" gradientUnits="userSpaceOnUse">
<stop stop-color="#ECF2FF"/>
<stop offset="1" stop-color="#ECF2FF" stop-opacity="0"/>
</linearGradient>
</defs>
</svg>
