<svg width="220" height="225" viewBox="0 0 220 225" fill="none" xmlns="http://www.w3.org/2000/svg">
<path d="M168.323 202.61V195.733L204.018 172.154H216.125C217.683 172.154 218.621 173.879 217.775 175.187L209.642 187.755C209.211 188.421 209.223 189.282 209.673 189.936L217.621 201.497C218.517 202.8 217.584 204.575 216.002 204.575H170.288C169.203 204.575 168.323 203.695 168.323 202.61Z" fill="#F27070"/>
<path d="M51.4136 202.61V195.733L15.7186 172.154H3.61136C2.0542 172.154 1.1158 173.879 1.96172 175.187L10.0943 187.755C10.5255 188.421 10.5135 189.282 10.0638 189.936L2.1158 201.497C1.21951 202.8 2.15285 204.575 3.73492 204.575H49.4487C50.5339 204.575 51.4136 203.695 51.4136 202.61Z" fill="#F27070"/>
<circle cx="109.442" cy="126.211" r="98.2112" fill="url(#paint0_linear_942_21323)"/>
<path d="M140.782 137.895C132.721 129.752 122.244 127.45 111.049 129.802C103.19 131.453 95.6118 136.301 91.7609 142.948C88.8055 148.048 87.7323 152.35 86.0127 157.938H151.203C149.822 149.162 145.224 142.382 140.782 137.895Z" fill="#D33611"/>
<path d="M110.137 156.503C110.858 154.554 111.487 152.553 112.538 150.76C113.59 148.967 115.138 147.368 117.118 146.74C118.166 146.409 119.295 146.359 120.313 145.943C121.331 145.527 122.265 144.562 122.122 143.473C119.356 143.738 116.339 143.943 114.028 142.399C113.217 141.857 112.492 140.812 112.978 139.966C113.234 139.52 113.75 139.297 114.242 139.149C116.787 138.385 119.79 138.774 121.855 137.1C123.501 135.765 124.03 133.487 124.141 131.37L126.887 129.866C121.918 128.619 116.572 128.641 111.05 129.801C103.191 131.452 95.6127 136.3 91.7618 142.947C88.8065 148.047 87.7333 152.349 86.0137 157.937H109.577C109.772 157.46 109.959 156.982 110.137 156.503Z" fill="#AD2D14"/>
<path d="M141.539 137.136C134.691 130.284 125.412 127.134 115.798 128.009C106.319 128.872 96.7958 133.233 91.4577 141.397C88.2311 146.331 86.6899 152.078 84.9806 157.651C84.7752 158.32 85.3344 159.007 86.0133 159.007C93.3717 159.007 100.731 159.007 108.089 159.007C119.799 159.007 131.508 159.007 143.217 159.007C145.879 159.007 148.54 159.007 151.202 159.007C151.957 159.007 152.345 158.326 152.235 157.651C150.967 149.853 147.053 142.743 141.539 137.136C140.571 136.151 139.057 137.666 140.025 138.65C145.302 144.016 148.958 150.763 150.17 158.221C150.514 157.769 150.858 157.317 151.202 156.865C143.844 156.865 136.485 156.865 129.127 156.865C117.417 156.865 105.708 156.865 93.9983 156.865C91.3364 156.865 88.6752 156.865 86.0133 156.865C86.3576 157.317 86.7018 157.769 87.046 158.221C88.488 153.52 89.7849 148.775 92.1533 144.434C94.3036 140.492 97.4264 137.299 101.227 134.916C108.763 130.191 118.646 128.698 127.236 131.058C132.123 132.4 136.454 135.077 140.025 138.651C141 139.626 142.515 138.112 141.539 137.136Z" fill="#281612"/>
<path d="M100.328 134.078C104.011 145.242 119.408 149.3 128.386 141.958C131.393 139.498 132.904 135.833 133.103 131.989C133.174 130.611 131.033 130.615 130.961 131.989C130.805 134.996 129.675 137.943 127.42 139.973C125.552 141.655 123.231 142.747 120.777 143.253C116.048 144.228 110.823 142.943 107.027 139.975C104.897 138.31 103.241 136.083 102.392 133.509C101.963 132.205 99.8947 132.764 100.328 134.078Z" fill="#281612"/>
<path d="M129.821 148.456C129.994 151.102 130.167 153.747 130.341 156.393C130.366 156.774 130.391 157.155 130.416 157.536C130.454 158.113 130.88 158.607 131.486 158.607C132.037 158.607 132.595 158.116 132.557 157.536C132.383 154.89 132.211 152.245 132.037 149.599C132.012 149.218 131.987 148.837 131.962 148.457C131.924 147.879 131.497 147.386 130.891 147.386C130.341 147.385 129.783 147.876 129.821 148.456Z" fill="#281612"/>
<path d="M99.2518 148.171C98.6181 150.825 97.9835 153.479 97.3498 156.133C97.261 156.505 97.1713 156.879 97.0825 157.252C96.762 158.591 98.8267 159.163 99.1479 157.821C99.7817 155.167 100.416 152.514 101.05 149.86C101.139 149.487 101.228 149.114 101.317 148.741C101.637 147.401 99.5723 146.829 99.2518 148.171Z" fill="#281612"/>
<path d="M126.115 117.514C124.263 122.939 124.016 130.539 125.128 134.473C114.264 142.753 108.435 133.392 108.435 133.392C109.179 128.431 108.426 123.256 106.298 118.712" fill="#EAA16A"/>
<path d="M106.298 118.713C108.427 123.255 109.18 128.432 108.435 133.393C108.435 133.393 110.519 136.735 114.514 137.657C115.253 135.386 115.01 132.82 116.019 130.643C116.848 128.855 118.462 127.526 120.234 126.662C121.617 125.988 123.104 125.568 124.603 125.206C124.827 122.549 125.323 119.833 126.115 117.514L106.298 118.713Z" fill="#C47D4D"/>
<path d="M125.083 117.228C124.081 120.225 123.598 123.401 123.439 126.552C123.303 129.273 123.375 132.113 124.096 134.757C124.26 134.354 124.424 133.951 124.588 133.548C121.334 135.99 117.078 137.954 113.095 136.04C112.021 135.524 111.073 134.809 110.253 133.948C110.109 133.797 109.969 133.644 109.835 133.485C109.688 133.311 109.539 133.112 109.607 133.206C109.522 133.089 109.436 132.974 109.359 132.852C109.395 133.127 109.432 133.402 109.467 133.677C110.228 128.36 109.468 123.053 107.222 118.172C106.647 116.921 104.8 118.008 105.373 119.253C106.906 122.586 107.68 126.238 107.642 129.907C107.634 130.723 107.587 131.54 107.498 132.351C107.438 132.896 107.261 133.443 107.523 133.954C107.672 134.242 107.925 134.514 108.125 134.762C110.194 137.324 113.344 138.994 116.667 138.963C119.993 138.932 123.066 137.351 125.669 135.397C126.056 135.107 126.296 134.684 126.161 134.188C125.488 131.722 125.453 129.088 125.58 126.552C125.729 123.583 126.203 120.621 127.147 117.797C127.585 116.487 125.518 115.925 125.083 117.228Z" fill="#281612"/>
<path d="M69.0902 81.2469C67.2786 77.4698 62.0309 75.6455 57.7025 76.7972C53.375 77.9497 50.161 81.5975 49.1076 85.6078C47.5157 91.6717 50.8146 98.5445 56.8047 101.517C58.8939 102.554 61.2941 103.145 63.6585 102.921C66.0222 102.697 68.3319 101.597 69.6558 99.7914" fill="#EAA16A"/>
<path d="M64.6459 101.413C65.4351 100.982 66.1601 100.402 66.7843 99.6545C69.7643 96.0876 69.478 90.4203 67.0159 86.6892C65.8389 84.9046 63.6783 82.8137 61.1956 82.9486C59.9503 83.016 54.0768 83.9416 55.4768 86.1363C55.8202 86.6749 56.5618 86.6321 57.1306 86.4822C58.0078 86.2506 58.6939 86.1538 59.4942 86.617C61.2178 87.6125 62.0641 89.6422 62.4012 91.4054C62.7677 93.3241 61.5026 95.3737 59.3665 95.898C57.1052 96.454 54.9588 94.7995 53.7936 93.1496C51.2666 89.5716 53.0243 84.9656 54.4361 81.3257C54.5234 81.0997 54.6122 80.8744 54.7003 80.6491C54.8026 80.3882 55.0477 79.3872 55.4014 79.3047C54.0475 79.6196 52.8061 80.3271 51.8987 81.2995C51.2 82.0491 50.7042 82.939 50.2862 83.8464C48.803 87.066 48.2303 90.7344 49.313 94.0856C49.9777 96.1431 51.6759 98.1372 53.3503 99.6141C56.358 102.266 61.1432 103.322 64.6459 101.413Z" fill="#C47D4D"/>
<path d="M61.9672 97.4739C61.9672 97.4739 62.0243 97.4096 62.1337 97.2867C62.2408 97.163 62.4106 96.9956 62.593 96.7489C62.9761 96.2762 63.4814 95.5599 63.9422 94.6121C64.3959 93.6658 64.8456 92.4999 65.0645 91.1816C65.3025 89.8832 65.3049 88.384 64.8512 87.0809C64.5894 86.4415 64.2341 85.8594 63.7772 85.3676C63.3005 84.9004 62.7762 84.4871 62.1964 84.2071C61.0479 83.625 59.805 83.4933 58.7921 83.6305C57.7665 83.7693 56.9892 84.1921 56.472 84.5141C55.9858 84.8933 55.7153 85.1034 55.7153 85.1034C55.7153 85.1034 55.8867 84.8147 56.2674 84.3031C56.6846 83.8367 57.3874 83.153 58.5462 82.7358C59.6844 82.3249 61.262 82.202 62.8405 82.7747C63.6329 83.0483 64.3927 83.5195 65.0828 84.1231C65.7538 84.7505 66.2963 85.554 66.6549 86.4542C67.2902 88.3008 67.0887 90.0743 66.639 91.5377C66.1948 93.0138 65.4603 94.1996 64.7568 95.0983C64.0445 95.9978 63.3227 96.595 62.8008 96.9559C62.5486 97.1463 62.3265 97.2613 62.1853 97.347C62.0425 97.4303 61.9672 97.4739 61.9672 97.4739Z" fill="#281612"/>
<path d="M69.655 99.7915C69.655 99.7915 69.5582 99.9684 69.3298 100.286C69.1029 100.603 68.7294 101.059 68.1297 101.551C67.534 102.042 66.7068 102.57 65.6241 102.971C64.5461 103.373 63.1985 103.637 61.7089 103.599C58.7329 103.549 55.1937 102.324 52.3327 99.7645C49.4725 97.243 47.4016 93.3992 47.2524 89.1248C47.2175 87.0007 47.6514 84.8845 48.5659 83.0538C49.4718 81.2231 50.7456 79.6273 52.2764 78.4169C53.7898 77.1914 55.5523 76.3625 57.2925 75.958C59.0597 75.5622 60.7619 75.613 62.2094 75.931C65.1426 76.5585 67.0224 78.0877 67.9592 79.2537C68.4264 79.8533 68.7071 80.3578 68.8626 80.7092C69.0117 81.0613 69.0895 81.2469 69.0895 81.2469C69.0895 81.2469 68.9729 81.0804 68.7516 80.7639C68.5287 80.4522 68.1567 80.0167 67.6149 79.5297C66.5267 78.5803 64.5771 77.4817 61.9667 77.2517C60.6778 77.1272 59.2477 77.2573 57.8731 77.7102C56.4835 78.1829 55.1255 78.9729 53.9635 80.0659C52.7872 81.1438 51.8219 82.524 51.1422 84.0564C50.4553 85.592 50.1563 87.2981 50.1769 89.0558C50.3006 92.5846 51.86 95.8954 54.1166 98.2035C56.351 100.534 59.2636 101.911 61.8319 102.265C64.42 102.655 66.5854 101.954 67.8537 101.217C68.5001 100.85 68.9475 100.48 69.2314 100.213C69.5186 99.9477 69.655 99.7915 69.655 99.7915Z" fill="#281612"/>
<path d="M69.8321 20.4145C60.8851 28.3614 55.6747 41.3854 55.102 53.2791C54.5975 63.7523 56.3806 74.2223 59.0703 84.3567C59.773 87.0043 60.5432 89.7702 59.9388 92.4416C59.5478 94.1699 58.6078 95.7174 57.9725 97.372C55.3915 104.099 58.3064 112.046 63.6009 116.933C68.8954 121.819 76.1125 124.097 83.2408 125.15C97.2555 127.22 111.638 125.071 125.165 120.863C136.37 117.377 147.495 112.216 155.152 103.324C165.908 90.8314 168.088 72.7065 164.761 56.5605C162.457 45.3815 157.68 34.591 150.145 26.0184C139.626 14.0501 123.953 8.11549 108.254 7.42225C97.5165 6.94793 86.6031 9.41948 77.5545 15.3414" fill="#EAA16A"/>
<path d="M148.412 58.4632C151.493 56.8681 153.713 52.5905 155.626 50.0452C157.322 47.7894 159.017 45.5335 160.713 43.2777C158.123 36.9981 154.626 31.1143 150.146 26.0174C139.627 14.0491 123.953 8.11452 108.255 7.42128C97.5176 6.94695 86.6042 9.41848 77.5556 15.3404L69.8316 20.4143C60.8846 28.3612 55.6742 41.3852 55.1015 53.2789C54.597 63.7521 56.3801 74.2221 59.0698 84.3565C59.7725 87.0041 60.5427 89.77 59.9383 92.4414C59.5473 94.1697 58.6073 95.7172 57.972 97.3718C55.391 104.099 58.3059 112.046 63.6004 116.932C68.8949 121.819 76.112 124.097 83.2403 125.15C97.255 127.22 111.638 125.071 125.165 120.863C133.805 118.175 142.39 114.482 149.382 108.859C149.396 108.623 149.388 108.383 149.349 108.137C137.349 114.83 124.368 118.326 111.453 120.497C100.169 122.393 88.5768 121.78 77.6365 118.429C71.1634 116.447 64.6807 112.341 62.7596 105.85C61.1463 100.399 62.6692 97.8168 63.1983 92.1566C64.0414 83.1239 60.4269 74.2435 58.9674 65.4415C57.4985 56.5825 57.6857 47.8417 60.5609 39.2539C60.7608 38.6567 60.9718 38.0642 61.1947 37.4748C62.7414 41.2551 66.6795 43.6767 70.7152 44.3073C77.9268 45.4344 85.7944 42.5813 92.4357 40.021C97.8737 37.9238 103.058 35.2357 108.142 32.3993C110.663 30.993 113.192 29.5676 115.88 28.5016C117.43 27.8869 118.996 27.2642 120.631 26.9136C121.871 26.6479 123.52 25.6478 124.575 26.7693C125.104 27.3317 125.315 28.1177 125.457 28.8768C125.904 31.269 125.863 33.7223 126.078 36.1463C126.503 40.9204 127.96 45.6438 130.61 49.6375C133.261 53.6311 137.142 56.8617 141.677 58.4124C143.346 58.9827 145.142 59.3269 146.876 59.0025C147.411 58.9026 147.922 58.717 148.412 58.4632Z" fill="#C47D4D"/>
<path d="M164.186 54.0107C158.272 55.7708 152.254 57.1715 146.161 58.1662C147.949 61.4143 149.737 64.6623 151.525 67.9104C152.894 70.3978 154.276 72.9051 156.062 75.0673C156.705 75.8454 157.412 76.587 158.259 77.0716C159.237 77.63 160.34 77.8148 161.419 77.9814C162.968 78.2201 164.529 78.4311 166.079 78.4303C166.794 71.2196 166.275 63.7082 164.768 56.5576C164.589 55.7066 164.392 54.8579 164.186 54.0107Z" fill="#845439"/>
<path d="M163.612 48.3804C160.185 38.0088 154.52 28.2051 146.289 21.0252C138.464 14.1991 128.568 9.97466 118.354 8.10434C104.42 5.55189 89.3392 7.46106 77.4987 15.2382C88.6928 9.00856 101.929 6.47912 114.612 8.2725C127.297 10.0659 139.348 16.1932 148.176 25.4766C149.519 26.8884 150.786 28.3732 151.972 29.9199C158.216 38.0635 162.13 47.8379 163.829 57.9255C165.462 67.6198 165.681 78.9377 162.211 88.2409C160.476 93.8193 157.347 99.0812 153.42 103.387C149.39 107.793 144.325 111.338 138.796 114.124C133.258 116.916 127.413 118.962 121.561 120.636C115.71 122.318 109.821 123.51 103.985 124.196C98.1475 124.851 92.3541 124.978 86.7416 124.427C76.7079 123.443 64.7491 120.148 59.8663 110.314C58.571 107.706 57.8754 104.783 58.0055 101.866C58.2038 97.4203 61.3725 93.7336 60.9061 89.2522C60.6476 86.7703 59.875 84.5716 59.3341 82.4046C56.6277 72.0338 55.0842 61.3703 56.1534 50.6473C56.6373 46.0294 57.7255 41.7074 59.0628 37.9025C60.4279 34.1048 62.0737 30.8353 63.6831 28.2289C65.2972 25.6233 66.8518 23.6649 67.9964 22.3744C68.5556 21.7161 69.0473 21.2592 69.3535 20.9205C69.6676 20.5898 69.8334 20.4161 69.8334 20.4161C69.8334 20.4161 69.6517 20.5715 69.3051 20.8674C68.9672 21.1728 68.4287 21.5844 67.8092 22.192C66.5441 23.381 64.8094 25.2243 62.9874 27.7649C61.1719 30.3038 59.2952 33.5551 57.7429 37.402C56.22 41.2545 54.9906 45.6923 54.4901 50.4712C53.4169 61.2759 55.4332 72.2829 57.8913 82.7703C58.41 84.9848 59.1231 87.1883 59.3087 89.3933C59.3935 90.4943 59.3404 91.5881 59.0374 92.624C58.5123 94.4221 57.4828 96.0195 56.9069 97.801C53.578 108.089 61.0315 118.128 69.9643 122.432C75.0652 124.889 80.7531 126.1 86.5155 126.694C92.2986 127.31 98.2601 127.22 104.251 126.584C110.24 125.915 116.268 124.721 122.237 123.024C128.199 121.338 134.189 119.257 139.931 116.364C146.272 113.168 152.138 108.928 156.668 103.422C169.014 88.4169 169.46 66.081 163.612 48.3804Z" fill="#281612"/>
<path d="M93.222 100.784C95.1296 109.066 89.0665 117.533 79.6784 119.696C70.2904 121.859 61.1339 116.898 59.2263 108.616C57.3187 100.334 63.3818 91.8672 72.7698 89.705C82.1571 87.542 91.3144 92.5026 93.222 100.784Z" fill="url(#paint1_radial_942_21323)"/>
<path d="M69.8389 101.016C69.8944 102.05 69.1012 102.932 68.0685 102.987C67.035 103.043 66.153 102.25 66.0975 101.217C66.042 100.184 66.8343 99.3015 67.8678 99.246C68.9006 99.1897 69.7834 99.9828 69.8389 101.016Z" fill="white"/>
<path d="M74.1753 101.667C74.2062 102.238 73.7676 102.726 73.1957 102.757C72.6246 102.788 72.136 102.35 72.1051 101.778C72.0741 101.206 72.5128 100.718 73.0846 100.687C73.6565 100.657 74.1451 101.095 74.1753 101.667Z" fill="white"/>
<path d="M151.505 89.2864C153.874 97.4482 146.05 106.893 134.031 110.381C122.012 113.869 110.348 110.081 107.979 101.919C105.609 93.7575 113.433 84.3132 125.452 80.8248C137.472 77.3363 149.136 81.1246 151.505 89.2864Z" fill="url(#paint2_radial_942_21323)"/>
<path d="M123.856 94.2511C124.148 95.2434 123.58 96.2848 122.588 96.5775C121.595 96.8694 120.554 96.3015 120.262 95.3092C119.97 94.3162 120.538 93.2747 121.53 92.9828C122.523 92.691 123.564 93.2589 123.856 94.2511Z" fill="white"/>
<path d="M128.227 93.8851C128.389 94.434 128.074 95.0098 127.525 95.1716C126.976 95.3334 126.401 95.0186 126.239 94.4697C126.077 93.9208 126.391 93.345 126.941 93.1831C127.49 93.0213 128.066 93.3354 128.227 93.8851Z" fill="white"/>
<path d="M93.4545 94.3322C94.1914 97.1995 97.3982 98.8533 100.618 98.0268C103.837 97.1995 105.85 94.2045 105.113 91.3371C104.377 88.4698 101.17 86.816 97.9503 87.6425C94.7307 88.4698 92.7184 91.464 93.4545 94.3322Z" fill="url(#paint3_radial_942_21323)"/>
<path d="M105.844 94.1829C104.892 95.87 103.27 97.2033 101.384 97.6499C99.4988 98.0964 97.377 97.5912 96.0048 96.2237C94.6318 94.8563 94.1289 92.6361 94.9205 90.8674C95.4536 89.676 96.5386 89.0573 97.8117 88.9685C98.4526 88.9241 99.0998 88.9994 99.728 89.1208C100.255 89.2231 101.011 89.6189 101.525 89.3357C101.724 89.2263 101.858 89.0097 101.87 88.7829C101.911 87.9485 100.382 87.1696 99.7296 86.93C98.777 86.5802 97.7316 86.6128 96.7734 86.9213C94.7595 87.5685 93.0875 89.3698 92.6687 91.4527C92.2221 93.6768 93.0978 96.1032 94.8277 97.5705C96.5577 99.0379 99.0625 99.5106 101.225 98.8269C103.389 98.1424 105.152 96.3427 105.844 94.1829Z" fill="#281612"/>
<path d="M95.8429 92.9154C96.0024 93.5357 96.6345 93.9093 97.2548 93.7499C97.8751 93.5904 98.2487 92.9583 98.0892 92.338C97.9298 91.7177 97.2976 91.3442 96.6774 91.5036C96.0571 91.663 95.6835 92.2952 95.8429 92.9154Z" fill="white"/>
<path d="M124.365 106.646C124.047 107.899 123.221 108.986 121.838 109.242C119.729 109.632 118.078 107.122 116.165 106.593C114.306 106.077 112.69 107.009 111.946 108.73C111.538 109.674 111.135 110.599 109.982 110.716C107.498 110.969 105.551 108.363 105.942 106.048C106.286 104.008 107.683 102.075 109.256 100.78C111.486 98.9455 114.494 98.123 117.349 98.5212C118.552 98.6885 119.721 99.074 120.784 99.6626C122.574 100.656 123.906 102.295 124.385 104.299C124.563 105.041 124.56 105.875 124.365 106.646Z" fill="#C97547"/>
<path d="M109.062 106.931C109.302 103.909 111.979 101.685 114.924 101.476C117.99 101.258 120.701 103.07 122.229 105.64C122.75 106.516 121.309 107.182 120.792 106.311C119.642 104.378 117.498 102.913 115.189 103.04C112.944 103.164 110.828 104.745 110.642 107.077C110.561 108.095 108.981 107.951 109.062 106.931Z" fill="#281612"/>
<path d="M152.258 76.9617C154.428 73.3781 159.828 72.071 164.024 73.6375C168.22 75.204 171.064 79.1461 171.723 83.2405C172.719 89.4297 168.77 95.9512 162.52 98.3284C160.34 99.158 157.894 99.5126 155.563 99.0605C153.232 98.6084 151.04 97.2909 149.898 95.3643" fill="#EAA16A"/>
<path d="M154.726 97.4636C153.982 96.9591 153.317 96.3103 152.769 95.506C150.149 91.667 150.983 86.0545 153.795 82.5796C155.139 80.9178 157.493 79.0459 159.95 79.4203C161.183 79.6083 166.939 81.0995 165.333 83.1475C164.939 83.6503 164.205 83.5353 163.654 83.3315C162.803 83.0158 162.13 82.8532 161.288 83.2363C159.476 84.0604 158.437 85.9982 157.931 87.7201C157.379 89.5936 158.441 91.7566 160.516 92.4864C162.713 93.2589 165.009 91.8201 166.329 90.2908C169.191 86.9746 167.888 82.2202 166.836 78.4598C166.771 78.2266 166.704 77.9934 166.638 77.761C166.562 77.4913 166.414 76.4713 166.07 76.3555C167.387 76.8004 168.554 77.6246 169.363 78.6803C169.986 79.4941 170.393 80.4277 170.721 81.3715C171.885 84.7203 172.099 88.4269 170.696 91.6567C169.835 93.6397 167.952 95.46 166.142 96.7672C162.892 99.1166 158.027 99.7043 154.726 97.4636Z" fill="#C47D4D"/>
<path d="M157.773 93.804C157.773 93.804 157.723 93.7342 157.626 93.6018C157.531 93.4685 157.379 93.2853 157.22 93.0219C156.885 92.5143 156.451 91.7521 156.085 90.7646C155.724 89.7787 155.391 88.5746 155.3 87.2421C155.189 85.9262 155.332 84.4342 155.91 83.1818C156.233 82.571 156.643 82.0253 157.145 81.5803C157.665 81.1615 158.226 80.8006 158.831 80.5786C160.031 80.1098 161.28 80.0995 162.275 80.3342C163.282 80.5714 164.014 81.0679 164.498 81.4392C164.945 81.8635 165.194 82.0991 165.194 82.0991C165.194 82.0991 165.051 81.7945 164.722 81.2488C164.352 80.7443 163.72 79.9956 162.606 79.4681C161.514 78.9494 159.955 78.6733 158.329 79.0905C157.513 79.2865 156.711 79.6807 155.966 80.2153C155.237 80.7753 154.62 81.5216 154.176 82.383C153.365 84.159 153.394 85.9436 153.699 87.4443C153.998 88.9569 154.614 90.2078 155.227 91.1707C155.849 92.1352 156.51 92.7991 156.994 93.2092C157.227 93.4233 157.435 93.5597 157.568 93.6581C157.703 93.7533 157.773 93.804 157.773 93.804Z" fill="#281612"/>
<path d="M149.897 95.3646C149.897 95.3646 149.977 95.5502 150.173 95.8881C150.369 96.226 150.696 96.7162 151.245 97.2635C151.791 97.81 152.563 98.416 153.602 98.9196C154.635 99.4249 155.951 99.8175 157.437 99.9238C160.404 100.163 164.045 99.2869 167.141 97.0168C170.232 94.7848 172.666 91.1592 173.229 86.9196C173.47 84.809 173.243 82.6603 172.51 80.7495C171.786 78.8395 170.672 77.1278 169.267 75.7755C167.88 74.4096 166.206 73.4134 164.513 72.8415C162.793 72.276 161.093 72.1617 159.623 72.3378C156.643 72.6773 154.623 74.0178 153.578 75.087C153.055 75.6382 152.727 76.1134 152.537 76.4481C152.355 76.7844 152.259 76.9613 152.259 76.9613C152.259 76.9613 152.39 76.8066 152.642 76.5131C152.893 76.2244 153.307 75.827 153.893 75.3955C155.068 74.5556 157.115 73.6513 159.735 73.6759C161.031 73.6767 162.441 73.9448 163.765 74.5286C165.103 75.1338 166.378 76.0515 167.428 77.2531C168.494 78.4397 169.322 79.9071 169.85 81.4983C170.384 83.0925 170.517 84.8209 170.326 86.5683C169.86 90.0686 167.987 93.2127 165.518 95.2901C163.067 97.3928 160.036 98.481 157.445 98.5841C154.83 98.7213 152.744 97.8132 151.553 96.9573C150.945 96.5306 150.536 96.1173 150.279 95.8246C150.018 95.5336 149.897 95.3646 149.897 95.3646Z" fill="#281612"/>
<path d="M159.422 30.1362C149.614 13.9878 131.866 2.55495 112.992 1.72449C101.88 1.23589 90.7322 4.3071 81.0752 9.82604C74.0731 13.8284 67.6666 19.2744 63.9045 26.4075C62.9424 28.2318 62.1436 30.2774 62.472 32.3143C62.8155 34.4447 64.3796 36.2349 66.2579 37.2978C68.1361 38.3607 70.3055 38.7858 72.4494 39.0301C81.9184 40.1096 91.4746 37.9458 100.507 34.904C109.54 31.8621 118.271 27.9327 127.43 25.2978C128.586 24.9654 129.868 24.6625 130.953 25.1796C132.246 25.7959 132.781 27.3426 133.013 28.7561C133.857 33.8856 132.42 39.2062 133.405 44.3103C134.46 49.7777 138.187 54.2004 142.517 57.4929C144.768 59.2054 147.051 61.2193 149.965 61.6048C153.4 62.0593 157.486 60.9623 160.819 60.1279C163.682 59.4109 165.732 58.6113 166.226 55.533C166.618 53.0932 166.26 50.5423 165.976 48.1096C165.226 41.7222 162.743 35.6044 159.422 30.1362Z" fill="#663E28"/>
<path d="M157.899 27.7724C155.245 23.843 152.115 20.2293 148.612 17.0225C146.823 22.2297 143.125 26.842 138.574 30.0314C136.903 31.2021 135.13 32.1968 133.285 33.0439C133.259 35.421 133.033 37.8133 133.046 40.1849C136.051 39.9422 139.027 39.4909 141.939 38.6874C148.288 36.9352 154.383 33.2422 157.899 27.7724Z" fill="#8C5835"/>
<path d="M160.817 60.1265C163.68 59.4095 165.73 58.6099 166.224 55.5316C166.616 53.0918 166.259 50.5401 165.974 48.1082C165.655 45.3837 165.005 42.713 164.123 40.1154C164.978 51.1271 158.107 53.2052 152.594 53.7359C146.895 54.2847 139.991 52.0472 137.452 46.9161C135.986 43.9536 135.298 37.7803 135.13 34.4791C134.945 30.855 135.465 24.7753 132.751 22.3672C129.552 19.53 124.604 20.5802 120.529 21.8731C106.837 26.2173 93.3931 31.457 79.3737 34.5869C74.7954 35.6093 69.9396 36.3906 65.4788 34.9383C64.5745 34.644 63.6798 34.2046 62.8716 33.6541C63.5228 35.1882 64.7895 36.4667 66.2577 37.2972C68.1359 38.3601 70.3053 38.7852 72.4492 39.0295C81.9182 40.109 91.4744 37.9452 100.507 34.9034C109.54 31.8615 118.27 27.9321 127.43 25.2972C128.586 24.9649 129.867 24.6619 130.953 25.179C132.246 25.7953 132.781 27.342 133.013 28.7555C133.856 33.885 132.42 39.2056 133.405 44.3097C134.46 49.7763 138.186 54.1999 142.516 57.4923C144.768 59.2048 147.051 61.2187 149.965 61.6042C153.398 62.0587 157.484 60.9617 160.817 60.1265Z" fill="#563220"/>
<path d="M159.938 29.8397C159.895 29.7691 159.842 29.7191 159.787 29.6755C158.991 28.3342 158.119 26.9906 157.157 25.6564C155.383 23.0699 153.212 20.5896 150.839 18.122C148.435 15.6782 145.696 13.3772 142.703 11.2071C139.692 9.05757 136.355 7.15078 132.767 5.50335C131.858 5.11945 130.964 4.67685 130.022 4.3334C129.08 3.98837 128.133 3.64096 127.178 3.29117C126.202 3.00166 125.22 2.71055 124.232 2.41787C123.243 2.12122 122.218 1.94276 121.202 1.69767C120.187 1.4383 119.14 1.31536 118.096 1.14403C117.572 1.0663 117.049 0.9735 116.52 0.908459C115.989 0.863248 115.456 0.81724 114.922 0.771236C112.788 0.539628 110.615 0.526137 108.425 0.585625C104.047 0.7514 99.5948 1.41925 95.2085 2.62965C90.8135 3.81228 86.4946 5.54855 82.3305 7.7179C78.1821 9.90628 74.1686 12.5737 70.5851 15.8726C68.7933 17.5192 67.1561 19.3261 65.7046 21.2606C64.9709 22.222 64.3102 23.2357 63.6836 24.2644C63.0808 25.3066 62.4835 26.3402 62.0108 27.5085C61.5396 28.6626 61.17 29.938 61.1653 31.3094C61.1446 32.6793 61.5761 34.0848 62.2924 35.2032C63.7201 37.4804 66.106 38.8343 68.4062 39.48C70.7405 40.1455 73.0011 40.3001 75.2418 40.4207C77.4865 40.5175 79.7098 40.4492 81.8918 40.2549C86.2599 39.8718 90.4479 38.9668 94.4407 37.8603C102.435 35.6148 109.629 32.5174 116.42 29.9222C119.813 28.6142 123.105 27.4125 126.313 26.4036C127.915 25.9198 129.53 25.2789 130.642 25.7905C131.189 26.0324 131.612 26.5511 131.899 27.1873C132.184 27.8282 132.352 28.5389 132.451 29.2852C132.966 32.6729 132.685 36.1558 132.638 39.564C132.595 42.7074 133.075 45.8659 134.369 48.7483C135.558 51.4007 137.584 53.7342 139.664 55.7314C140.497 56.5317 141.368 57.2916 142.265 58.0205C142.749 58.414 143.24 58.7986 143.736 59.177C146.087 60.968 148.486 62.268 151.504 62.3021C154.714 62.3386 157.876 61.4756 160.964 60.7007C160.982 60.6959 160.992 60.6848 161.009 60.6793C163.386 60.1613 165.568 59.2936 166.545 56.8252C167.543 54.3005 166.988 51.1683 166.637 48.5635C165.746 41.9396 163.381 35.5577 159.938 29.8397ZM165.204 47.0445C165.472 48.5619 165.66 50.0927 165.764 51.6307C165.851 52.9093 165.984 54.2593 165.703 55.5236C165.053 58.4544 162.567 59.1913 159.913 59.6926C159.81 59.7124 159.73 59.7528 159.665 59.8052C157.101 60.454 154.494 61.0933 151.845 61.1155C148.889 61.1409 146.637 59.9035 144.343 58.1562C141.951 56.335 139.644 54.3537 137.763 51.9955C135.689 49.3971 134.555 46.7955 134.022 43.48C133.489 40.1645 133.806 36.2359 133.869 32.9045C133.893 31.6386 133.851 30.3703 133.695 29.1139C133.607 28.3239 133.445 27.4831 133.103 26.6638C132.766 25.8563 132.168 24.9989 131.224 24.5492C130.278 24.0971 129.249 24.1581 128.379 24.3215C127.489 24.4952 126.708 24.7546 125.883 24.9807C122.609 25.9285 119.256 27.0715 115.82 28.3168C108.944 30.7891 101.728 33.7389 93.8871 35.8179C89.9688 36.8434 85.895 37.666 81.7015 37.9856C79.6067 38.1482 77.4849 38.191 75.3552 38.0792C73.2343 37.9499 71.0467 37.7611 69.0867 37.1774C68.1087 36.8847 67.1728 36.4802 66.3709 35.9408C65.5666 35.3991 64.8631 34.7019 64.3705 33.9087C63.8756 33.1084 63.6201 32.247 63.6328 31.3261C63.6368 30.4028 63.9033 29.4248 64.3062 28.4548C64.6989 27.4847 65.2628 26.5091 65.8236 25.547C66.4074 24.5968 67.0213 23.6576 67.7074 22.7629C69.0637 20.964 70.5977 19.2706 72.2904 17.7159C75.6733 14.6003 79.5036 12.036 83.4925 9.91183C87.4909 7.80911 91.636 6.11329 95.851 4.94494C100.057 3.74883 104.324 3.06748 108.52 2.86205C110.618 2.78273 112.701 2.76847 114.746 2.96676C115.259 3.00325 115.769 3.04051 116.279 3.07699C116.786 3.13331 117.289 3.21661 117.792 3.28403C118.796 3.43473 119.803 3.53626 120.781 3.77342C121.76 3.99551 122.75 4.15098 123.705 4.42304C124.662 4.69034 125.612 4.95606 126.556 5.22019C127.482 5.54301 128.402 5.86343 129.316 6.1815C130.231 6.49719 131.101 6.91203 131.987 7.26738C135.483 8.80059 138.756 10.5876 141.725 12.6174C144.675 14.6677 147.393 16.8514 149.793 19.1817C152.161 21.5367 154.346 23.9091 156.144 26.3965C157.144 27.7132 158.051 29.0394 158.882 30.3648C158.892 30.3878 158.892 30.4092 158.906 30.4322C161.984 35.5434 164.166 41.1607 165.204 47.0445Z" fill="#281612"/>
<path d="M95.8205 30.0229C95.8205 30.0229 94.5895 29.0797 93.6226 27.6449C92.6596 26.2069 92.252 24.7109 92.252 24.7109C92.252 24.7109 93.6567 25.4422 94.6648 26.9445C95.6745 28.446 95.8205 30.0229 95.8205 30.0229Z" fill="#281612"/>
<path d="M102.962 28.5202C102.962 28.5202 101.985 27.585 101.591 26.1502C101.195 24.7161 101.556 23.4121 101.556 23.4121C101.556 23.4121 102.417 24.429 102.8 25.817C103.182 27.2051 102.962 28.5202 102.962 28.5202Z" fill="#281612"/>
<path d="M106.386 26.1062C106.386 26.1062 105.611 25.2155 105.419 23.9964C105.227 22.7773 105.691 21.6914 105.691 21.6914C105.691 21.6914 106.466 22.5821 106.658 23.8013C106.851 25.0204 106.386 26.1062 106.386 26.1062Z" fill="#281612"/>
<path d="M122.931 16.2757C122.931 16.2757 121.792 15.1383 121.104 13.444C120.417 11.7498 120.441 10.1396 120.441 10.1396C120.441 10.1396 121.58 11.277 122.268 12.9713C122.955 14.6663 122.931 16.2757 122.931 16.2757Z" fill="#281612"/>
<path d="M126.832 17.571C126.832 17.571 126.131 16.4304 126.035 14.9258C125.94 13.4211 126.491 12.2012 126.491 12.2012C126.491 12.2012 127.195 13.3854 127.288 14.8464C127.38 16.3067 126.832 17.571 126.832 17.571Z" fill="#281612"/>
<path d="M132.389 20.8478C132.389 20.8478 132.101 19.3701 132.496 17.729C132.892 16.0879 133.823 14.9053 133.823 14.9053C133.823 14.9053 134.112 16.383 133.716 18.0241C133.32 19.6651 132.389 20.8478 132.389 20.8478Z" fill="#281612"/>
<path d="M140.192 22.6742C140.192 22.6742 139.724 21.8683 139.903 21.037C140.082 20.2058 140.84 19.6641 140.84 19.6641C140.84 19.6641 141.308 20.4699 141.13 21.3012C140.951 22.1324 140.192 22.6742 140.192 22.6742Z" fill="#281612"/>
<path d="M75.1543 30.8335C75.1543 30.8335 73.8796 30.4948 72.7819 29.5977C71.6865 28.6983 71.1035 27.5156 71.1035 27.5156C71.1035 27.5156 72.4353 27.6901 73.5774 28.6269C74.7212 29.562 75.1543 30.8335 75.1543 30.8335Z" fill="#281612"/>
<path d="M80.5298 25.7499C80.5298 25.7499 79.5003 24.4451 79.114 22.574C78.7246 20.7029 79.1497 19.0967 79.1497 19.0967C79.1497 19.0967 79.9659 20.5117 80.3426 22.3194C80.7154 24.127 80.5298 25.7499 80.5298 25.7499Z" fill="#281612"/>
<path d="M109.378 16.3321C109.378 16.3321 108.021 15.7864 106.915 14.5887C105.81 13.391 105.375 11.9941 105.375 11.9941C105.375 11.9941 106.732 12.5399 107.837 13.7376C108.943 14.9353 109.378 16.3321 109.378 16.3321Z" fill="#281612"/>
<path d="M113.581 14.8657C113.581 14.8657 112.756 14.0614 112.495 12.8994C112.232 11.7374 112.632 10.6562 112.632 10.6562C112.632 10.6562 113.457 11.4605 113.718 12.6225C113.981 13.7853 113.581 14.8657 113.581 14.8657Z" fill="#281612"/>
<path d="M154.537 36.6826C154.537 36.6826 154.219 37.8113 153.309 38.6275C152.399 39.4437 151.243 39.638 151.243 39.638C151.243 39.638 151.561 38.5093 152.471 37.6931C153.38 36.8769 154.537 36.6826 154.537 36.6826Z" fill="#281612"/>
<path d="M158.302 42.1388C158.302 42.1388 157.204 43.0993 155.602 43.5514C154 44.0027 152.562 43.7561 152.562 43.7561C152.562 43.7561 153.693 42.7852 155.261 42.3434C156.83 41.9016 158.302 42.1388 158.302 42.1388Z" fill="#281612"/>
<path d="M149.912 65.7661C154.708 64.9396 159.531 64.2757 164.371 63.776C165.387 63.6713 165.073 62.1159 164.064 62.2198C159.222 62.7195 154.4 63.3834 149.604 64.2099C148.597 64.3828 148.906 65.939 149.912 65.7661Z" fill="#281612"/>
<path d="M151.489 68.3008C156.302 67.6242 161.17 67.6219 165.991 68.2366C167.006 68.3659 167.117 66.7826 166.108 66.6542C161.149 66.022 156.132 66.0482 151.182 66.7446C150.17 66.8866 150.48 68.4428 151.489 68.3008Z" fill="#281612"/>
<path d="M152.634 70.9798C156.912 70.8521 161.193 70.879 165.469 71.0615C166.488 71.1051 166.607 69.5227 165.586 69.4791C161.31 69.2966 157.03 69.2697 152.752 69.3974C151.74 69.4275 151.614 71.0099 152.634 70.9798Z" fill="#281612"/>
<path d="M113.413 67.9123C116.395 69.9714 120.3 69.7279 123.49 68.3184C126.824 66.8455 129.317 63.9979 131.643 61.2908C132.271 60.5603 132.361 59.4848 131.643 58.7669C131.001 58.1245 129.75 58.0325 129.119 58.7669C127.136 61.0743 125.101 63.4982 122.355 64.9196C120.124 66.0745 117.343 66.2997 115.215 64.83C114.421 64.2819 113.233 64.6825 112.772 65.4701C112.255 66.3569 112.618 67.3634 113.413 67.9123Z" fill="#281612"/>
<path d="M72.0882 66.1858C75.0158 67.9665 78.1156 69.4497 81.3327 70.6276C84.488 71.7825 87.8741 72.3599 90.678 70.089C91.4275 69.4823 91.3093 68.1965 90.678 67.5651C89.9371 66.8243 88.9052 66.9568 88.1541 67.5651C86.3416 69.0333 83.2427 67.5667 81.4342 66.8671C78.8096 65.8511 76.2937 64.5661 73.8895 63.1043C71.9224 61.9066 70.1267 64.9921 72.0882 66.1858Z" fill="#281612"/>
<path d="M136.035 71.6059C130.075 74.5328 124.115 77.4604 118.155 80.3872C117.316 80.7997 116.477 81.2113 115.638 81.6238C113.859 82.4979 114.739 84.9012 116.638 84.9496C122.866 85.1082 129.095 85.2661 135.323 85.4247C136.219 85.4477 137.116 85.4699 138.012 85.4929C140.562 85.558 140.56 81.9887 138.012 81.9236C131.784 81.765 125.555 81.6071 119.327 81.4485C118.431 81.4255 117.534 81.4033 116.638 81.3803C116.971 82.4892 117.304 83.5972 117.637 84.7061C123.597 81.7793 129.557 78.8516 135.517 75.9248C136.356 75.5123 137.195 75.1007 138.034 74.6882C140.273 73.5881 138.276 70.505 136.035 71.6059Z" fill="#281612"/>
<path d="M69.9654 82.3054C74.8538 84.0234 79.7413 85.7423 84.6297 87.4603C85.3309 87.707 86.032 87.9536 86.734 88.1995C86.734 87.0526 86.734 85.9049 86.734 84.7579C81.8448 85.5487 76.9565 86.3395 72.0673 87.1303C71.3733 87.243 70.6793 87.3548 69.9852 87.4674C69.0961 87.611 68.6059 88.8127 68.8232 89.6629C69.0842 90.6838 69.9773 91.0534 70.8696 90.909C75.7588 90.1182 80.6471 89.3274 85.5363 88.5366C86.2303 88.424 86.9244 88.3122 87.6184 88.1995C88.3283 88.0845 88.8399 87.1938 88.8399 86.4783C88.8399 85.6693 88.3172 85.003 87.6184 84.7571C82.73 83.0391 77.8425 81.3203 72.9541 79.6023C72.2529 79.3556 71.5518 79.1089 70.8506 78.863C68.8105 78.1468 67.9364 81.5923 69.9654 82.3054Z" fill="#281612"/>
<path d="M115.905 73.6976C115.905 73.6976 115.789 73.7373 115.566 73.7928C115.344 73.8523 115.015 73.8983 114.601 73.8911C113.775 73.8919 112.609 73.5612 111.634 72.8069C110.657 72.0565 110.06 71.1317 109.695 70.4408C109.331 69.7444 109.185 69.2598 109.185 69.2598C109.185 69.2598 109.649 69.4708 110.305 69.8681C110.966 70.2639 111.81 70.8342 112.648 71.4743C113.484 72.1168 114.207 72.7014 114.829 73.0853C115.134 73.2796 115.404 73.4374 115.598 73.5326C115.794 73.6381 115.905 73.6976 115.905 73.6976Z" fill="#C47D4D"/>
<path d="M88.0532 75.1173C88.0532 75.1173 88.48 74.7977 89.1415 74.3011C89.7681 73.8157 90.6128 73.1605 91.5385 72.4427C92.4665 71.7281 93.3136 71.0761 93.9418 70.5922C94.589 70.0775 95.0062 69.7451 95.0062 69.7451C95.0062 69.7451 94.9483 70.2884 94.612 71.0935C94.2821 71.893 93.6198 72.9472 92.5617 73.7665C91.5012 74.5835 90.3138 74.9579 89.4571 75.0753C88.5934 75.1974 88.0532 75.1173 88.0532 75.1173Z" fill="#C47D4D"/>
<path d="M110.921 90.5388C110.263 90.2136 109.266 90.6038 108.785 91.1582C108.772 89.633 109.767 87.6905 108.807 86.3294C108.489 85.878 107.97 85.8122 107.474 85.9661C106.655 86.2199 105.895 86.657 105.262 87.2344C105.305 86.5078 105.343 85.7503 105.055 85.0825C104.48 83.7507 103.141 83.8642 102.277 84.8073C101.759 85.372 101.266 85.9582 100.798 86.565C100.898 85.9962 100.997 85.4045 100.844 84.8477C100.564 83.8221 99.6538 83.6246 98.8384 84.0442C94.1801 86.4396 91.308 91.2074 88.7111 95.7563C88.6247 94.7783 88.5382 93.8011 88.4518 92.8231C88.3875 92.0974 88.0877 91.1503 87.3603 91.1876C86.8527 91.213 86.5378 91.7365 86.3284 92.1989C85.0268 95.0742 84.1837 98.1906 83.9068 101.337C83.6887 103.818 85.1014 110.245 85.1014 110.245L53.8501 157.937H91.0621C91.0621 157.937 104.115 121.134 105.497 117.346C107.188 112.714 107.588 107.712 108.99 102.985C110.069 99.3494 111.758 95.7611 111.569 91.9728C111.542 91.4216 111.415 90.7831 110.921 90.5388Z" fill="#C47D4D"/>
<path d="M111.06 92.0029C111.02 91.9957 110.977 91.9925 110.932 91.9949C110.572 92.0092 110.324 92.3503 110.137 92.6572C105.178 100.801 101.961 109.88 97.3876 118.247C93.0798 126.127 88.0289 133.898 87.131 143.062C86.7296 147.163 88.2066 151.882 92.5825 153.127C99.4039 135.819 105.235 118.12 110.036 100.147C110.619 97.966 111.187 95.7776 111.6 93.5583C111.711 92.9586 111.604 92.098 111.06 92.0029Z" fill="#EAA16A"/>
<path d="M111.461 89.6141C111.288 89.4983 111.118 89.4475 110.956 89.438C110.777 89.3944 110.594 89.3666 110.414 89.3666C110.303 89.3674 110.194 89.3904 110.084 89.4023C110.102 89.2984 110.121 89.1945 110.14 89.0906C110.256 88.4053 110.341 87.7033 110.232 87.0164C110.122 86.3295 109.795 85.6529 109.227 85.2516C108.514 84.7463 107.533 84.7582 106.714 85.0636C106.531 85.1318 106.358 85.2159 106.187 85.3063C105.947 84.2371 105.375 83.3012 104.163 83.0664C103.037 82.8483 102.305 83.317 101.682 83.9984C101.415 83.2734 100.811 82.7681 99.6228 82.7705C97.9032 82.7737 96.0535 84.4568 94.8431 85.5371C92.2598 87.8445 90.9605 90.3041 89.3877 93.1501C89.4487 92.5488 89.4448 91.9579 89.1751 91.3813C88.6698 90.3034 87.4507 89.7275 86.3744 90.4319C85.2338 91.1782 84.7674 93.0834 84.347 94.2835C83.7632 95.9516 83.3317 97.6728 83.07 99.4209C82.537 102.974 83.2072 106.546 83.9631 110.031C80.4993 115.317 77.0355 120.603 73.5717 125.889C67.9797 134.423 62.3878 142.957 56.7959 151.491C55.5062 153.459 54.2165 155.427 52.9268 157.395C52.4747 158.085 53.0711 159.006 53.8516 159.006C58.0412 159.006 62.2308 159.006 66.4204 159.006C73.0997 159.006 79.7791 159.006 86.4585 159.006C87.9933 159.006 89.5288 159.006 91.0636 159.006C91.5626 159.006 91.9369 158.668 92.0964 158.22C94.3395 151.895 96.5842 145.571 98.8305 139.247C101.411 131.981 104.012 124.722 106.594 117.455C108.308 112.63 108.699 107.464 110.233 102.587C110.982 100.208 111.927 97.8742 112.372 95.4106C112.694 93.626 113.239 90.8062 111.461 89.6141ZM110.267 94.0543C110.117 94.8618 109.937 95.6645 109.753 96.4648C105.016 117.098 97.6034 137.005 90.2118 156.842C78.7527 156.85 67.2936 156.859 55.8346 156.868C65.6415 141.898 75.4491 126.928 85.256 111.958C85.624 111.396 86.0008 110.811 86.0976 110.147C86.2015 109.434 86.0071 108.709 85.7763 108.026C83.2167 100.453 86.2379 92.6956 86.9851 92.6734C87.7957 92.6488 88.0337 93.5752 88.1027 94.2169C88.1424 94.5897 88.1424 94.9673 88.113 95.3408C88.0813 95.747 87.8291 96.3133 88.0797 96.6781C88.4239 97.1802 89.1775 96.6313 89.4971 96.1134C90.8003 94.0043 92.1099 91.8881 93.6597 89.9472C95.1779 88.0452 96.9609 86.2684 99.1017 85.0755C100.077 84.5322 100.146 85.9916 99.9108 86.5833C99.6657 87.1988 99.6149 88.1911 100.276 88.2339C100.483 88.2474 100.678 88.1372 100.836 88.0047C101.459 87.4836 101.681 86.6301 102.171 85.9821C102.66 85.3341 103.769 84.9732 104.222 85.6458C104.882 86.623 103.371 88.5013 104.487 88.8788C105.411 89.1913 105.669 87.5161 106.535 87.068C107.368 86.6373 108.322 87.6414 108.335 88.5798C108.349 89.5181 107.832 90.374 107.6 91.2829C107.536 91.5352 107.498 91.8207 107.636 92.0412C108.224 92.974 109.714 90.9339 110.598 91.5931C110.537 92.4196 110.417 93.2397 110.267 94.0543Z" fill="#281612"/>
<path d="M108.244 90.5374C106.519 93.1731 105.222 96.05 103.765 98.8349C103.34 99.6479 104.571 100.37 104.998 99.5551C106.455 96.7702 107.752 93.8933 109.476 91.2576C109.981 90.4866 108.746 89.7704 108.244 90.5374Z" fill="#281612"/>
<path d="M104.575 86.7656C102.889 90.2421 101.078 93.656 99.1453 97.0016C98.6845 97.7987 99.9179 98.5181 100.378 97.7218C102.311 94.3762 104.122 90.9623 105.807 87.4858C106.207 86.6633 104.976 85.9383 104.575 86.7656Z" fill="#281612"/>
<path d="M100.225 86.3862C97.8403 89.8167 95.575 93.3289 93.4334 96.9164C92.9614 97.7072 94.1948 98.4259 94.666 97.6374C96.8076 94.0499 99.0729 90.5377 101.458 87.1072C101.984 86.3505 100.747 85.6366 100.225 86.3862Z" fill="#281612"/>
<path d="M88.5277 94.9958C87.56 96.5425 86.7811 98.2034 86.1957 99.9302C86.0759 100.284 86.3337 100.727 86.6946 100.808C87.0904 100.899 87.4442 100.688 87.5727 100.309C88.1192 98.6976 88.8473 97.177 89.7611 95.7152C89.9657 95.3884 89.8309 94.9292 89.5049 94.7388C89.1622 94.5389 88.7331 94.6674 88.5277 94.9958Z" fill="#281612"/>
<path d="M84.1443 108.856C84.8232 111.004 85.9717 112.938 87.4613 114.555C87.7738 114.895 88.3941 114.81 88.6519 114.451C88.9509 114.034 88.874 113.543 88.5408 113.18C87.2948 111.827 86.3152 110.099 85.7266 108.236C85.5847 107.787 85.0453 107.517 84.636 107.699C84.2022 107.894 83.9928 108.376 84.1443 108.856Z" fill="#281612"/>
<path d="M36.9298 33.6509C37.5731 35.2396 38.4527 36.8973 38.5415 38.6399C38.6296 40.3683 37.761 42.1767 36.9782 43.6703C35.3323 46.8113 32.8108 49.397 31.2268 52.5706C29.7095 55.61 29.1677 59.0461 30.7271 62.1775C32.0787 64.8918 34.7581 66.8549 37.7174 67.445C43.8796 68.6729 51.6171 64.4095 50.8874 57.4002C50.701 55.6124 50.072 53.9396 49.3383 52.3112C48.6355 50.7518 47.794 49.2352 46.5392 48.0486C44.1612 45.7992 40.8346 44.7863 37.6143 44.699C34.4979 44.615 30.4606 45.2677 28.653 48.1216C27.0595 50.6376 27.3188 54.2481 28.2786 56.9481C29.2629 59.7187 31.2324 62.0514 34.1267 62.8851C36.6038 63.5981 39.579 63.6711 42.1148 63.1936C44.3056 62.7812 46.3694 61.6199 47.2284 59.4704C48.4269 56.4706 46.8628 53.0718 45.0345 50.663C43.2443 48.3056 39.2784 47.173 36.4959 48.2787C33.5516 49.4486 33.0496 52.7443 33.3851 55.5426C33.5619 57.0211 33.8673 58.5654 35.0222 59.6124C36.1786 60.6602 37.8181 60.8815 39.3046 60.6197C40.7838 60.3596 42.7795 59.6338 43.7432 58.4187C44.6633 57.2582 44.5554 55.6211 44.1985 54.2656C43.3863 51.1809 39.9732 49.2828 37.3708 51.7084C36.3896 52.6229 35.414 54.2338 35.6187 55.6251C35.8598 57.263 37.8602 57.8119 39.2935 57.6762C40.7029 57.5438 41.8229 56.2953 41.4081 54.8628C41.0258 53.5414 38.9579 54.1038 39.3426 55.4324C39.376 55.5466 37.8991 55.5704 37.7317 55.1833C37.6191 54.9231 38.1933 54.0689 38.3313 53.8682C39.0317 52.849 40.1747 52.2541 41.2304 53.1932C42.026 53.9015 42.4011 55.2864 42.3139 56.3223C42.2044 57.6183 40.488 58.0998 39.4235 58.3988C38.4067 58.6844 37.1122 58.7454 36.3278 57.8991C35.5631 57.0742 35.4918 55.6116 35.437 54.5416C35.3212 52.2517 36.0517 50.0181 38.7184 50.026C39.7987 50.0292 40.9472 50.306 41.9173 50.7788C43.1356 51.3721 43.7511 52.523 44.3603 53.6707C45.3272 55.4918 46.2354 57.8626 44.6617 59.6433C43.675 60.7593 42.0307 61.1321 40.6086 61.2567C38.5986 61.4327 36.281 61.3796 34.367 60.7197C32.3373 60.0201 30.9762 58.2267 30.2988 56.2477C29.6175 54.2568 29.3002 51.7036 30.2108 49.7318C31.3323 47.3007 34.7049 46.8557 37.0734 46.8359C39.4688 46.8152 41.9213 47.3689 43.9383 48.6998C46.1568 50.164 47.3839 52.7427 48.2064 55.1928C49.017 57.6104 49.0662 60.0756 47.4331 62.1546C44.5054 65.8825 38.3171 66.7534 34.6264 63.6878C32.5102 61.9293 31.4965 59.2579 32.0541 56.5476C32.6601 53.6033 34.5265 51.1698 36.2437 48.7831C37.8983 46.4837 39.441 44.0661 40.2699 41.3304C41.1773 38.3346 40.1168 35.848 38.9968 33.0821C38.4844 31.821 36.4118 32.3722 36.9298 33.6509Z" fill="#281612"/>
<g filter="url(#filter0_d_942_21323)">
<path d="M13.7539 161.675C13.7539 161.675 52.0687 147.266 110.032 147.266C167.996 147.266 205.983 161.675 205.983 161.675L200.416 191.803C200.416 191.803 145.58 180.838 110.032 180.996C75.7536 181.148 22.9233 191.803 22.9233 191.803L13.7539 161.675Z" fill="#F27070"/>
<path d="M75.9864 173.221C75.1259 173.336 74.3051 173.284 73.524 173.067C72.755 172.849 72.0668 172.496 71.4595 172.01C70.8627 171.509 70.3932 170.9 70.051 170.18L71.9868 169.017C72.4171 169.749 72.9711 170.298 73.6487 170.664C74.3248 171.019 75.0506 171.144 75.8263 171.041C76.2626 170.983 76.6294 170.867 76.9268 170.691C77.2347 170.502 77.4574 170.276 77.5949 170.011C77.7444 169.744 77.7967 169.441 77.7516 169.102C77.6985 168.702 77.5338 168.391 77.2576 168.168C76.9919 167.932 76.6131 167.773 76.1211 167.69L73.4104 167.2C72.3126 167.012 71.4536 166.627 70.8334 166.043C70.2132 165.46 69.8443 164.726 69.7268 163.841C69.6237 163.065 69.7206 162.356 70.0174 161.712C70.3263 161.067 70.7984 160.535 71.4336 160.118C72.0793 159.687 72.8446 159.412 73.7293 159.295C74.5413 159.187 75.3059 159.233 76.0232 159.434C76.739 159.623 77.373 159.939 77.9254 160.384C78.4883 160.815 78.936 161.353 79.2686 162L77.3533 163.179C76.9965 162.536 76.5273 162.068 75.9458 161.775C75.3626 161.47 74.7196 161.365 74.0167 161.458C73.6046 161.513 73.2507 161.634 72.9549 161.821C72.6575 161.996 72.4348 162.223 72.2868 162.502C72.1494 162.767 72.1032 163.069 72.1483 163.408C72.1982 163.784 72.3636 164.101 72.6447 164.36C72.9241 164.606 73.3227 164.775 73.8405 164.867L76.4349 165.318C77.5602 165.526 78.4306 165.904 79.0459 166.451C79.6734 166.997 80.0475 167.724 80.1683 168.633C80.2713 169.408 80.1623 170.12 79.8413 170.767C79.5202 171.414 79.0308 171.954 78.3729 172.386C77.7151 172.819 76.9196 173.097 75.9864 173.221ZM85.6541 171.731L89.6615 157.846L92.8849 157.68L98.2912 171.084L95.5807 171.222L94.4598 168.342L89.1851 168.612L88.3464 171.593L85.6541 171.731ZM89.7868 166.378L93.6328 166.181L91.0135 159.502L91.7094 159.467L89.7868 166.378ZM103.836 170.889L104.061 157.228L106.555 157.269L106.366 168.729L112.216 168.825L112.179 171.026L103.836 170.889ZM116.705 171.113L122.495 157.871L125.712 158.129L129.318 172.124L126.613 171.907L125.879 168.904L120.614 168.483L119.392 171.328L116.705 171.113ZM121.503 166.346L125.341 166.654L123.618 159.69L124.313 159.746L121.503 166.346ZM134.842 172.652L136.815 159.133L139.283 159.493L138.422 165.391L144.174 166.23L145.035 160.333L147.521 160.696L145.548 174.215L143.062 173.852L143.856 168.408L138.104 167.568L137.31 173.012L134.842 172.652Z" fill="white"/>
</g>
<defs>
<filter id="filter0_d_942_21323" x="10.4791" y="147.266" width="195.504" height="49.1218" filterUnits="userSpaceOnUse" color-interpolation-filters="sRGB">
<feFlood flood-opacity="0" result="BackgroundImageFix"/>
<feColorMatrix in="SourceAlpha" type="matrix" values="0 0 0 0 0 0 0 0 0 0 0 0 0 0 0 0 0 0 127 0" result="hardAlpha"/>
<feOffset dx="-1.96486" dy="3.27477"/>
<feGaussianBlur stdDeviation="0.654954"/>
<feComposite in2="hardAlpha" operator="out"/>
<feColorMatrix type="matrix" values="0 0 0 0 0.854902 0 0 0 0 0.254902 0 0 0 0 0.262745 0 0 0 1 0"/>
<feBlend mode="normal" in2="BackgroundImageFix" result="effect1_dropShadow_942_21323"/>
<feBlend mode="normal" in="SourceGraphic" in2="effect1_dropShadow_942_21323" result="shape"/>
</filter>
<linearGradient id="paint0_linear_942_21323" x1="11.2305" y1="126.211" x2="207.653" y2="126.211" gradientUnits="userSpaceOnUse">
<stop offset="1" stop-color="#4981A8"/>
<stop stop-color="#1C6EA4"/>
</linearGradient>
<radialGradient id="paint1_radial_942_21323" cx="0" cy="0" r="1" gradientTransform="matrix(16.9975 -3.91689 3.45427 14.9957 76.2239 104.7)" gradientUnits="userSpaceOnUse">
<stop stop-color="#C36936" stop-opacity="0.7"/>
<stop offset="0.2745" stop-color="#C87340" stop-opacity="0.5078"/>
<stop offset="0.7363" stop-color="#D48D5A" stop-opacity="0.1846"/>
<stop offset="1" stop-color="#DD9F6C" stop-opacity="0"/>
</radialGradient>
<radialGradient id="paint2_radial_942_21323" cx="0" cy="0" r="1" gradientTransform="matrix(21.7633 -6.31674 4.28939 14.7782 129.742 95.6029)" gradientUnits="userSpaceOnUse">
<stop stop-color="#C36936" stop-opacity="0.7"/>
<stop offset="0.2745" stop-color="#C87340" stop-opacity="0.5078"/>
<stop offset="0.7363" stop-color="#D48D5A" stop-opacity="0.1846"/>
<stop offset="1" stop-color="#DD9F6C" stop-opacity="0"/>
</radialGradient>
<radialGradient id="paint3_radial_942_21323" cx="0" cy="0" r="1" gradientTransform="matrix(-5.82883 1.49738 1.33368 5.19207 97.7307 91.5702)" gradientUnits="userSpaceOnUse">
<stop offset="0.2645" stop-color="#C36936" stop-opacity="0.9"/>
<stop offset="0.4576" stop-color="#C56D3A" stop-opacity="0.6637"/>
<stop offset="0.6665" stop-color="#CB7A47" stop-opacity="0.4081"/>
<stop offset="0.8819" stop-color="#D6905D" stop-opacity="0.1446"/>
<stop offset="1" stop-color="#DD9F6C" stop-opacity="0"/>
</radialGradient>
</defs>
</svg>
